<?xml version="1.0" encoding="utf-8"?>
<!-- Generator: Adobe Illustrator 24.3.0, SVG Export Plug-In . SVG Version: 6.00 Build 0)  -->
<svg version="1.1" xmlns="http://www.w3.org/2000/svg" xmlns:xlink="http://www.w3.org/1999/xlink" x="0px" y="0px"
	 viewBox="0 0 1280 424" style="enable-background:new 0 0 1280 424;" xml:space="preserve">
<style type="text/css">
	.st0{display:none;}
	.st1{display:inline;fill:#232121;}
	.st2{fill:#CF405C;stroke:#CF405C;stroke-width:1.3729;stroke-miterlimit:10;}
	.st3{fill:#CF405C;stroke:#CF405C;stroke-width:1.5691;stroke-miterlimit:10;}
	.st4{fill:#498BEA;stroke:#09366D;stroke-width:0.9491;stroke-linecap:round;stroke-linejoin:round;stroke-miterlimit:10;}
	.st5{fill:#498BEA;}
	.st6{fill:#09366D;}
	.st7{fill:#64BA09;stroke:#116B08;stroke-width:1.3337;stroke-linecap:round;stroke-linejoin:round;stroke-miterlimit:10;}
	.st8{fill:#CF405C;stroke:#870F2C;stroke-width:1.3337;stroke-miterlimit:10;}
	.st9{fill:#EDAC29;stroke:#845E08;stroke-width:1.0297;stroke-linecap:round;stroke-linejoin:round;stroke-miterlimit:10;}
	.st10{fill:#184DB5;stroke:#09366D;stroke-width:1.0297;stroke-linecap:round;stroke-linejoin:round;stroke-miterlimit:10;}
	.st11{fill:#F2D249;stroke:#140703;stroke-width:1.0297;stroke-linecap:round;stroke-linejoin:round;stroke-miterlimit:10;}
	.st12{fill:#FFDC9F;stroke:#232121;stroke-width:1.3729;stroke-miterlimit:10;}
	.st13{fill:#232121;stroke:#232121;stroke-width:1.3729;stroke-miterlimit:10;}
	.st14{fill:#232121;stroke:#232121;stroke-width:1.3729;stroke-linecap:round;stroke-linejoin:round;stroke-miterlimit:10;}
	.st15{fill:#9B2405;stroke:#560606;stroke-width:1.3729;stroke-miterlimit:10;}
	.st16{fill:#630808;stroke:#630808;stroke-width:1.3729;stroke-miterlimit:10;}
	.st17{fill:#630808;stroke:#630808;stroke-width:1.3729;stroke-linejoin:round;stroke-miterlimit:10;}
	.st18{fill:#630808;stroke:#630808;stroke-width:1.3729;stroke-linecap:round;stroke-linejoin:round;stroke-miterlimit:10;}
	.st19{fill:#B22F10;stroke:#6B270A;stroke-width:1.0297;stroke-linecap:round;stroke-linejoin:round;stroke-miterlimit:10;}
	.st20{fill:#CF405C;stroke:#870F2C;stroke-width:1.0297;stroke-miterlimit:10;}
	.st21{fill:#AF1238;stroke:#6B270A;stroke-width:1.0297;stroke-linecap:round;stroke-linejoin:round;stroke-miterlimit:10;}
	.st22{fill:#F7BF5C;stroke:#443007;stroke-width:1.0297;stroke-miterlimit:10;}
	.st23{fill:#191817;stroke:#111010;stroke-width:1.5691;stroke-miterlimit:10;}
	.st24{fill:#7DAEF4;}
	.st25{fill:#870F2C;}
	.st26{fill:#EA802A;stroke:#9B5808;stroke-width:1.3337;stroke-linecap:round;stroke-linejoin:round;stroke-miterlimit:10;}
	.st27{fill:#F7D239;stroke:#996600;stroke-width:1.3337;stroke-linecap:round;stroke-linejoin:round;stroke-miterlimit:10;}
	.st28{fill:#996600;}
	.st29{fill:#116B08;}
	.st30{fill:#EDAC29;stroke:#191102;stroke-width:1.3337;stroke-linecap:round;stroke-linejoin:round;stroke-miterlimit:10;}
	.st31{fill:#FF6490;}
	.st32{fill:#DD4A74;}
	.st33{fill:#33CC00;stroke:#116B08;stroke-width:1.2733;stroke-linecap:round;stroke-linejoin:round;stroke-miterlimit:10;}
	.st34{fill:#278C1C;stroke:#116B08;stroke-width:1.3729;stroke-miterlimit:10;}
	.st35{fill:#99CC66;}
	.st36{fill:#FFE67D;}
	.st37{fill:#278C1C;}
	.st38{fill:#EBF43B;stroke:#996600;stroke-width:1.2733;stroke-linecap:round;stroke-linejoin:round;stroke-miterlimit:10;}
	.st39{fill:#D34E33;}
	.st40{fill:#F2C33D;stroke:#996600;stroke-width:1.2733;stroke-linecap:round;stroke-linejoin:round;stroke-miterlimit:10;}
	.st41{fill:#EBF43B;}
	.st42{fill:#FFD366;}
	.st43{fill:#A1C518;}
	.st44{fill:#B4D81E;}
	.st45{fill:#EDAC29;stroke:#845E08;stroke-width:0.9491;stroke-linecap:round;stroke-linejoin:round;stroke-miterlimit:10;}
	.st46{fill:#64BA09;stroke:#116B08;stroke-width:1.2292;stroke-linecap:round;stroke-linejoin:round;stroke-miterlimit:10;}
	.st47{fill:#3676DD;stroke:#09366D;stroke-width:0.9491;stroke-linecap:round;stroke-linejoin:round;stroke-miterlimit:10;}
	.st48{fill:#3676DD;}
	.st49{fill:#FCDC56;stroke:#845E08;stroke-width:0.9491;stroke-linecap:round;stroke-linejoin:round;stroke-miterlimit:10;}
	.st50{fill:#FCDC56;}
	.st51{fill:#845E08;}
	.st52{fill:#E85679;stroke:#870F2C;stroke-width:0.9491;stroke-miterlimit:10;}
	.st53{fill:#E85679;}
	.st54{fill:#159B64;stroke:#086647;stroke-width:0.9491;stroke-linecap:round;stroke-linejoin:round;stroke-miterlimit:10;}
	.st55{fill:#088248;}
	.st56{fill:#44E29A;}
	.st57{fill:#C48618;}
	.st58{fill:#F4B65B;}
</style>
<g id="Capa_1" class="st0">
</g>
<g id="Capa_3" class="st0">
	<rect x="88" y="-64" class="st1" width="1103" height="580"/>
</g>
<g id="Capa_4">
	<path class="st2" d="M61.18,90.72c0,0-16.48,238.89-15.1,245.76c1.37,6.86,83.75,6.86,91.99,10.98l5.49-35.7l-61.78-4.12l13-216.83
		L61.18,90.72z"/>
	<path class="st2" d="M249.77,206.05c0,0-7.36-64.53-52.67-60.41s-44.43,60.41-44.43,60.41h36.19c0,0,0-21.97,10.98-26.09
		c10.98-4.12,10.98,34.32,10.98,34.32s-53.54,1.37-54.92,50.8c-1.37,49.43,59.04,42.56,59.04,42.56v4.12l34.32,2.75
		C254.77,302.15,249.77,206.05,249.77,206.05z M198.48,273.61c-6.86-1.07-17.85-18.14,0-22.26s19.22,10.98,19.22,10.98
		C213.58,274.7,205.34,274.7,198.48,273.61z"/>
	<polygon class="st2" points="409.91,86.6 321.55,86.6 325.67,347.46 359.21,347.46 359.11,232.13 396.18,232.13 397.55,197.81 
		359.11,199.18 359.11,123.67 409.91,123.18 	"/>
	<polygon class="st2" points="462.08,204.68 426.29,204.68 430.5,304.9 465.12,304.9 	"/>
	<circle class="st3" cx="444.23" cy="167.61" r="21.97"/>
	<path class="st2" d="M560.93,263.71c0,0-1.5,15.5-19.98,15.98c-18.47,0.49-23.96-28.34-23.96-28.34l83.75-4.12
		c0,0-4.12-82.38-60.41-79.63c-56.29,2.75-59.04,75.51-59.04,75.51s-5.49,64.53,56.29,70.02c61.78,5.49,60.41-48.05,60.41-48.05
		L560.93,263.71z M540.39,204.77c12.3-2.84,16.42,15.01,16.42,15.01h-32.85C523.96,219.78,528.08,207.61,540.39,204.77z"/>
	<path class="st2" d="M674.59,217.03l35.3-4.91c0,0-5-44.52-48.84-47.26c-43.84-2.75-45.9,47.26-45.9,47.26s0.69,32.37,24.03,46.1
		c23.34,13.73,32.95,16.48,31.58,23.34c-1.37,6.86-8.24,6.37-8.24,6.37s-10.98,1.86-13.73-11.87l-33.64,9.51
		c0,0,10.3,39.72,47.37,37.07c37.07-2.65,42.56-24.61,43.93-35.6c1.37-10.98-0.98-32.62-26.58-46.52
		c-25.6-13.89-30.5-15.48-29.42-28.41c1.08-12.94,12.06-12.94,17.55-10.19C673.51,204.68,674.59,217.03,674.59,217.03z"/>
	<polygon class="st2" points="761.09,212.12 726.37,212.12 726.37,174.91 761.09,174.91 761.09,100.23 796.39,100.23 796.39,174.91 
		831.11,174.91 831.11,212.12 796.39,212.12 795.7,318.63 759.91,318.63 	"/>
	<path class="st2" d="M925.97,263.71c0,0-1.5,15.5-19.96,15.98c-18.48,0.49-23.97-28.34-23.97-28.34l83.75-4.12
		c0,0-4.12-82.38-60.41-79.63c-56.29,2.75-59.04,75.51-59.04,75.51s-5.49,64.53,56.29,70.02c61.78,5.49,60.41-48.05,60.41-48.05
		L925.97,263.71z M905.43,204.77c12.3-2.84,16.42,15.01,16.42,15.01h-32.85C888.99,219.78,893.11,207.61,905.43,204.77z"/>
	<path class="st2" d="M978.3,170.35l5.49,138.67h34.42c0,0-1.27-63.16,0-69.33c1.27-6.18,17.75-36.8,50.01-35.22v-34.11
		c0,0-17.16-5.49-52.86,15.1l-1.86-15.77L978.3,170.35z"/>
	<path class="st2" d="M1172.38,204.68c0,0-7.36-64.53-52.67-60.41c-45.31,4.12-44.43,60.41-44.43,60.41h36.19
		c0,0,0-21.97,10.98-26.09c10.98-4.12,10.98,34.32,10.98,34.32s-53.54,1.37-54.92,50.8s59.04,42.56,59.04,42.56v4.12l34.32,2.75
		C1177.38,300.78,1172.38,204.68,1172.38,204.68z M1121.09,272.24c-6.86-1.07-17.85-18.14,0-22.26
		c17.85-4.12,19.22,10.98,19.22,10.98C1136.19,273.32,1127.95,273.32,1121.09,272.24z"/>
</g>
<g id="Capa_5">
	<path class="st4" d="M484.89,145.41l2.26,4.98l15.04,16.44c0,0,2.03-6.96,2.01-9.48s-4.49-16.18-4.63-14.89
		c-0.14,1.29-2.85,2.3-2.85,2.3s0.71-0.57,0.41-3.86c-0.3-3.28-4.19-9.55-4.19-9.55l-0.85,1.86c0,0-1.31-6-4.76-10.27
		c-3.45-4.27-2.38-16.89-2.38-16.89s-7.11,2.22-8.95,7.22s-0.25,10.96,0.56,13.42s3.08,1.28,3.08,1.28l-4.48-1.17
		c-0.45,3.81,7.47,13.62,7.47,13.62l5.51,5.37C488.15,145.8,486.5,148.13,484.89,145.41z"/>
	<g>
		<path class="st5" d="M481.42,111.25c0,0-7.99,1.75-0.8,13.58c6.69,10.99,20.64,39.18,20.37,35.11"/>
		<path class="st6" d="M481.43,111.3c-1.13,0.32-2.16,1.05-2.81,2.02c-0.66,0.98-0.9,2.18-0.85,3.35c0.11,2.36,1.12,4.59,2.26,6.65
			c2.47,4.07,4.87,8.24,7.18,12.42c2.33,4.18,4.67,8.35,6.89,12.58l3.34,6.34c0.56,1.06,1.12,2.11,1.71,3.14
			c0.29,0.52,0.58,1.04,0.9,1.54c0.16,0.25,0.33,0.5,0.51,0.72c0.09,0.1,0.21,0.23,0.29,0.24c0.06,0.01,0.08-0.2,0.08-0.33
			c0-0.03,0.02-0.05,0.04-0.05c0.03,0,0.05,0.02,0.05,0.04c0.01,0.08,0.01,0.15,0.01,0.23c-0.01,0.07-0.02,0.2-0.16,0.23
			c-0.23-0.02-0.31-0.15-0.44-0.25c-0.22-0.22-0.41-0.45-0.6-0.69c-0.37-0.48-0.72-0.97-1.06-1.46c-0.66-1-1.3-2.02-1.92-3.04
			c-1.24-2.05-2.41-4.13-3.6-6.21c-2.34-4.17-4.49-8.44-6.73-12.66c-2.23-4.23-4.52-8.4-6.93-12.55c-1.1-2.12-2.07-4.42-2.13-6.87
			c-0.03-1.21,0.26-2.46,0.98-3.46c0.71-0.99,1.78-1.7,2.95-2c0.03-0.01,0.05,0.01,0.06,0.03
			C481.48,111.26,481.46,111.29,481.43,111.3z"/>
	</g>
	<path class="st4" d="M484.01,127.07l1.71,5.19l13.18,17.97c0,0,2.76-6.7,3.02-9.2c0.25-2.51-2.73-16.57-3-15.31
		c-0.27,1.26-3.08,1.98-3.08,1.98s0.77-0.49,0.82-3.79c0.06-3.3-3.13-9.95-3.13-9.95l-1.04,1.76c0,0-0.66-6.1-3.63-10.72
		c-1.96-3.05-1.56-11.87-0.55-17.05c0,0-7.31,1.44-9.68,6.22c-2.36,4.78-1.15,8.36-0.62,10.88c0.54,2.53,2.65,4.12,2.65,4.12
		l-4.32-1.65c-0.86,3.74,5.96,14.35,5.96,14.35l4.9,5.94C487.2,127.81,485.32,129.95,484.01,127.07z"/>
	<g>
		<path class="st5" d="M484.24,92.74c0,0-8.14,0.88-2.25,13.41c6.13,13.07,16.36,39.79,16.47,37.1"/>
		<path class="st6" d="M484.24,92.79c-1.15,0.2-2.24,0.8-3,1.69c-0.76,0.89-1.13,2.05-1.22,3.2c-0.15,2.34,0.58,4.65,1.49,6.81
			c1.99,4.28,3.98,8.62,5.86,12.97c1.9,4.35,3.81,8.7,5.59,13.1l2.64,6.61l1.34,3.29c0.22,0.55,0.45,1.1,0.69,1.64
			c0.12,0.27,0.25,0.54,0.38,0.8c0.07,0.13,0.14,0.26,0.23,0.37c0.04,0.05,0.1,0.12,0.12,0.12c-0.01,0.02,0.04-0.07,0.03-0.13
			l0-0.01c0-0.03,0.02-0.05,0.05-0.05c0.03,0,0.05,0.02,0.05,0.05c0,0,0,0.01,0,0.01c-0.02,0.07,0.04,0.18-0.13,0.24
			c-0.13-0.02-0.16-0.09-0.23-0.15c-0.1-0.12-0.19-0.24-0.27-0.37c-0.17-0.25-0.32-0.51-0.47-0.77c-0.3-0.52-0.57-1.05-0.85-1.57
			c-0.53-1.06-1.04-2.14-1.55-3.21c-1.01-2.15-1.95-4.33-2.91-6.5c-1.89-4.36-3.61-8.78-5.41-13.17c-1.79-4.4-3.68-8.73-5.6-13.09
			c-0.86-2.21-1.55-4.59-1.33-7.01c0.12-1.2,0.54-2.4,1.36-3.3c0.82-0.9,1.94-1.48,3.13-1.66c0.03,0,0.05,0.01,0.05,0.04
			C484.29,92.76,484.27,92.78,484.24,92.79z"/>
	</g>
	<path class="st4" d="M494.38,123.29l0.99,5.38l10.64,19.58c0,0,3.64-6.26,4.23-8.71s-0.47-16.79-0.91-15.57
		c-0.44,1.22-3.32,1.55-3.32,1.55s0.83-0.39,1.33-3.65c0.5-3.26-1.76-10.28-1.76-10.28l-1.27,1.6c0,0,0.17-6.13-2.15-11.11
		c-2.32-4.98,1.76-14.44,1.76-14.44s-7.44-2.09-10.43,2.33s-2.27,8.12-2.08,10.7c0.19,2.58,2.07,4.44,2.07,4.44l-4.06-2.22
		c-1.36,3.59,3.97,15.02,3.97,15.02l4.06,6.54C497.45,124.46,495.29,126.33,494.38,123.29z"/>
	<g>
		<path class="st5" d="M499.24,91.84c0,0-8.18-0.23-4.04,12.99c4.14,13.21,11.93,35.51,11.31,38.98"/>
		<path class="st6" d="M499.24,91.89c-1.16,0.05-2.32,0.49-3.17,1.26c-0.87,0.77-1.39,1.86-1.65,2.98
			c-0.45,2.29-0.05,4.66,0.54,6.91l0.48,1.69l0.55,1.68l1.11,3.36l2.25,6.71c1.51,4.47,3.06,8.93,4.39,13.47
			c0.64,2.27,1.29,4.55,1.84,6.85c0.5,2.3,1.15,4.63,0.98,7.03c0,0.03-0.02,0.04-0.05,0.04c-0.02,0-0.04-0.02-0.04-0.04l0-0.01
			l-0.02-0.87l-0.15-0.87c-0.09-0.58-0.27-1.14-0.4-1.71c-0.29-1.14-0.61-2.27-0.95-3.4c-0.67-2.25-1.37-4.5-2.1-6.74l-4.2-13.51
			l-2.12-6.75l-1.05-3.38l-0.52-1.69l-0.45-1.72c-0.53-2.3-0.88-4.73-0.35-7.09c0.3-1.16,0.87-2.28,1.8-3.06
			c0.91-0.79,2.11-1.2,3.3-1.22c0.03,0,0.05,0.02,0.05,0.05C499.29,91.86,499.27,91.88,499.24,91.89L499.24,91.89z"/>
	</g>
	<path class="st4" d="M503.4,112.53l-0.02,5.47l6.84,21.21c0,0,4.73-5.49,5.77-7.78c1.03-2.3,2.64-16.58,1.98-15.47
		c-0.66,1.11-3.55,0.91-3.55,0.91s0.89-0.23,1.98-3.34c1.09-3.11,0.16-10.43,0.16-10.43l-1.55,1.34c0,0,1.3-6-0.06-11.32
		c-0.17-0.68,3.67-14.24,4.85-16.35c0,0-7.39-0.94-11.14,2.85c-3.75,3.79-3.73,7.57-4.02,10.13s1.22,4.75,1.22,4.75l-3.58-2.93
		c-1.99,3.28,1.13,15.49,1.13,15.49l2.78,7.18C506.2,114.24,503.74,115.68,503.4,112.53z"/>
	<g>
		<path class="st5" d="M514.44,80.02c0,0-8-1.73-6.37,12.02c2.24,18.89,4.57,38.71,3.93,40.4"/>
		<path class="st6" d="M514.43,80.07c-1.15-0.17-2.37,0.05-3.35,0.66c-1,0.6-1.7,1.57-2.17,2.62c-0.86,2.17-0.91,4.56-0.75,6.88
			c0.17,2.32,0.56,4.67,0.84,7.01l0.89,7.02c0.59,4.68,1.23,9.35,1.66,14.05c0.19,2.35,0.41,4.7,0.54,7.06
			c0.06,1.18,0.12,2.36,0.15,3.54c0,1.18,0.06,2.37-0.19,3.56c-0.01,0.02-0.03,0.04-0.05,0.04c-0.02,0-0.04-0.03-0.04-0.05l0-0.02
			c0.13-1.14-0.04-2.33-0.15-3.5c-0.1-1.17-0.24-2.34-0.38-3.51l-0.82-7.02c-0.55-4.68-0.98-9.37-1.47-14.06l-0.75-7.03
			c-0.23-2.35-0.57-4.67-0.7-7.05c-0.1-2.36,0.01-4.81,0.96-7.03c0.51-1.08,1.28-2.08,2.34-2.67c1.04-0.6,2.29-0.79,3.47-0.59
			c0.03,0,0.04,0.03,0.04,0.05C514.49,80.06,514.46,80.07,514.43,80.07L514.43,80.07z"/>
	</g>
	<path class="st4" d="M514.37,110.22l-0.53,5.44l4.81,21.76c0,0,5.23-5.01,6.47-7.21c1.24-2.19,4.19-16.26,3.43-15.22
		c-0.76,1.05-3.62,0.57-3.62,0.57s0.9-0.14,2.28-3.14c1.38-3,1.15-10.37,1.15-10.37l-1.67,1.19c0,0,1.86-5.85,1-11.27
		c0.01,0.08,5.51-14.58,6.37-15.82c0,0-7.27-1.63-11.36,1.79s-4.43,7.18-4.95,9.71c-0.53,2.53,0.76,4.84,0.76,4.84l-3.29-3.25
		c-2.29,3.07-0.33,15.53-0.33,15.53l2.09,7.41C517,112.19,514.41,113.39,514.37,110.22z"/>
	<g>
		<path class="st5" d="M528.43,78.9c0,0-7.8-2.48-7.47,11.36c0.48,20.28,1.51,37.74,0.11,40.59"/>
		<path class="st6" d="M528.41,78.95c-1.13-0.28-2.36-0.17-3.4,0.34c-1.05,0.5-1.84,1.4-2.41,2.41c-1.06,2.08-1.33,4.46-1.39,6.79
			l0,1.76l0.06,1.77l0.13,3.54l0.28,7.07c0.2,4.71,0.46,9.43,0.5,14.15c-0.01,2.36,0.01,4.73-0.09,7.09
			c-0.06,1.18-0.12,2.36-0.24,3.55c-0.16,1.17-0.25,2.38-0.75,3.48c-0.01,0.02-0.04,0.03-0.06,0.02c-0.02-0.01-0.03-0.04-0.03-0.06
			l0-0.01c0.38-1.1,0.36-2.3,0.4-3.47c0.04-1.17,0.03-2.35,0.01-3.53c-0.04-2.35-0.11-4.71-0.19-7.06
			c-0.16-4.71-0.21-9.43-0.31-14.15l-0.14-7.08l-0.06-3.54l-0.03-1.77l0.04-1.78c0.13-2.36,0.46-4.79,1.62-6.91
			c0.61-1.03,1.47-1.95,2.58-2.44c1.1-0.5,2.36-0.57,3.51-0.26c0.03,0.01,0.04,0.03,0.03,0.06
			C528.47,78.94,528.44,78.95,528.41,78.95L528.41,78.95z"/>
	</g>
	<path class="st4" d="M529.28,109.31l-0.96,5.38l3.06,22.07c0,0,5.61-4.58,7.03-6.67c1.41-2.08,5.47-15.88,4.63-14.89
		c-0.84,0.98-3.65,0.28-3.65,0.28s0.91-0.07,2.53-2.95c1.62-2.88,1.97-10.24,1.97-10.24l-1.75,1.05c0,0,2.32-5.68,1.9-11.16
		c0.05,0.7,7.14-14.69,7.62-15.26c0,0-7.12-2.21-11.47,0.88c-4.35,3.09-4.99,6.8-5.71,9.28c-0.73,2.48,0.37,4.89,0.37,4.89
		l-3.02-3.5c-2.53,2.88-1.57,15.46-1.57,15.46l1.49,7.55C531.74,111.49,529.06,112.48,529.28,109.31z"/>
	<g>
		<path class="st5" d="M545.79,79.21c0,0-7.58-3.09-8.36,10.73c-1.2,21.28-0.91,36.73-3.13,40.47"/>
		<path class="st6" d="M545.77,79.26c-1.1-0.36-2.34-0.36-3.42,0.07c-1.09,0.42-1.95,1.25-2.59,2.21c-1.22,1.99-1.68,4.35-1.93,6.66
			c-0.35,4.68-0.44,9.42-0.61,14.13c-0.14,4.72-0.2,9.44-0.49,14.16c-0.18,2.36-0.33,4.72-0.63,7.07c-0.34,2.33-0.6,4.76-1.77,6.88
			c-0.01,0.02-0.04,0.03-0.06,0.02c-0.02-0.01-0.03-0.04-0.02-0.06l0,0c0.52-1.05,0.66-2.24,0.85-3.39
			c0.15-1.16,0.26-2.33,0.34-3.51c0.16-2.35,0.26-4.7,0.34-7.06c0.17-4.71,0.43-9.43,0.68-14.14c0.27-4.72,0.45-9.43,0.89-14.15
			c0.31-2.34,0.84-4.74,2.16-6.76c0.69-0.98,1.62-1.83,2.76-2.23c1.13-0.41,2.4-0.38,3.52,0.02c0.02,0.01,0.04,0.04,0.03,0.06
			C545.83,79.26,545.8,79.27,545.77,79.26L545.77,79.26z"/>
	</g>
	<path class="st4" d="M541.54,106.38l-2.26,4.98l-2.49,22.15c0,0,6.57-3.05,8.46-4.72c1.88-1.67,9.22-14.03,8.17-13.29
		s-3.6-0.63-3.6-0.63s0.9,0.16,3.18-2.23c2.28-2.39,4.44-9.44,4.44-9.44l-1.96,0.59c0,0,3.65-4.93,4.6-10.34
		c0.95-5.41,11.15-10.38,11.15-10.38s-6.35-6.43-11.33-4.51c-4.98,1.91-6.51,5.36-7.83,7.59c-1.32,2.22-0.85,4.83-0.85,4.83
		l-2.06-4.14c-3.17,2.17-5.34,14.59-5.34,14.59l-0.42,7.69C543.39,109.09,540.55,109.39,541.54,106.38z"/>
	<g>
		<path class="st5" d="M564.98,81.29c0,0-6.58-4.87-10.75,8.33c-7.29,23.07-7.43,32.83-13.04,38.44"/>
		<path class="st6" d="M564.95,81.33c-0.98-0.63-2.19-0.93-3.34-0.79c-1.16,0.13-2.22,0.73-3.06,1.52c-1.7,1.61-2.72,3.81-3.52,6
			c-1.48,4.47-2.73,9.06-3.95,13.62c-1.21,4.58-2.23,9.2-3.52,13.77c-0.68,2.27-1.36,4.56-2.32,6.76c-0.48,1.09-1.03,2.17-1.69,3.17
			c-0.67,1-1.45,1.92-2.32,2.72c-0.02,0.02-0.05,0.02-0.07,0c-0.02-0.02-0.02-0.05,0-0.06c1.58-1.76,2.66-3.88,3.47-6.07
			c0.81-2.2,1.44-4.47,2.02-6.76c1.17-4.58,2.39-9.16,3.7-13.72c1.32-4.56,2.64-9.1,4.23-13.59c0.87-2.2,1.97-4.42,3.77-6.04
			c0.9-0.8,2.02-1.4,3.23-1.5c1.21-0.11,2.43,0.23,3.42,0.9c0.02,0.01,0.03,0.04,0.01,0.07C565,81.34,564.97,81.34,564.95,81.33z"/>
	</g>
	<path class="st4" d="M554.2,111.76l-2.13,5.04l-1.89,22.2c0,0,6.49-3.23,8.33-4.95s8.84-14.27,7.8-13.5s-3.62-0.53-3.62-0.53
		s0.91,0.13,3.12-2.31c2.21-2.45,4.18-9.56,4.18-9.56l-1.94,0.64c0,0,3.52-5.03,4.32-10.46c0.8-5.43,10.8-10.67,10.8-10.67
		s-6.45-6.26-11.38-4.21c-4.93,2.05-6.37,5.53-7.62,7.79c-1.26,2.26-0.72,4.85-0.72,4.85L561.28,92
		c-3.11,2.25-4.95,14.73-4.95,14.73l-0.21,7.7C556.12,114.42,553.29,114.8,554.2,111.76z"/>
	<g>
		<path class="st5" d="M576.95,88.58c0,0-6.71-4.69-10.52,8.62s-9.57,36.22-12,38.78"/>
		<path class="st6" d="M576.93,88.62c-1-0.6-2.2-0.87-3.35-0.69c-1.15,0.16-2.18,0.79-3.02,1.58c-1.63,1.67-2.6,3.86-3.35,6.06
			l-0.53,1.67l-0.47,1.71l-0.92,3.42l-1.81,6.84c-1.2,4.56-2.35,9.14-3.74,13.66c-0.71,2.25-1.42,4.51-2.23,6.73
			c-0.85,2.2-1.58,4.5-3.05,6.41c-0.02,0.02-0.04,0.02-0.07,0.01c-0.02-0.01-0.02-0.04-0.01-0.06l0.01-0.01l0.46-0.74l0.35-0.81
			c0.24-0.53,0.4-1.1,0.61-1.65c0.38-1.11,0.74-2.23,1.07-3.36c0.68-2.25,1.33-4.52,1.95-6.79l3.92-13.59l1.95-6.81l0.99-3.4
			l0.5-1.7l0.57-1.69c0.82-2.21,1.87-4.43,3.6-6.11c0.89-0.8,1.98-1.42,3.19-1.56c1.2-0.15,2.42,0.16,3.42,0.8
			c0.02,0.01,0.03,0.04,0.01,0.07C576.98,88.63,576.95,88.64,576.93,88.62L576.93,88.62z"/>
	</g>
	<path class="st4" d="M561.95,114.5l-3.07,4.52l-6.19,21.41c0,0,6.99-1.9,9.13-3.23c2.14-1.33,11.46-12.27,10.29-11.72
		c-1.17,0.55-3.45-1.23-3.45-1.23s0.86,0.31,3.51-1.66c2.65-1.97,5.97-8.56,5.97-8.56l-2.03,0.25c0,0,4.43-4.25,6.28-9.42
		c1.85-5.17,13.17-5.78,13.17-5.78s-5.6-9.98-10.83-8.93c-5.23,1.05-7.32,4.19-9,6.16c-1.67,1.97-1.65,4.62-1.65,4.62l-1.33-4.43
		c-3.49,1.6-7.73,13.48-7.73,13.48l-1.71,7.51C563.31,117.48,560.46,117.3,561.95,114.5z"/>
	<g>
		<path class="st5" d="M589.28,98.78c0,0-5.66-10.97-12,1.34s-16.46,33.66-19.33,35.69"/>
		<path class="st6" d="M589.23,98.8c-0.59-1.03-1.31-1.99-2.17-2.8c-0.85-0.8-1.91-1.45-3.06-1.56c-1.16-0.12-2.28,0.4-3.16,1.14
			c-0.89,0.76-1.6,1.7-2.24,2.69c-1.22,2.01-2.19,4.21-3.27,6.33l-3.14,6.43c-2.1,4.29-4.13,8.61-6.4,12.81
			c-1.15,2.1-2.3,4.19-3.54,6.24c-0.63,1.02-1.26,2.04-1.94,3.03c-0.35,0.49-0.7,0.98-1.08,1.44c-0.38,0.46-0.77,0.94-1.27,1.29
			c-0.02,0.02-0.05,0.01-0.07-0.01c-0.01-0.02-0.01-0.05,0.01-0.06l0,0c0.86-0.8,1.43-1.88,2.03-2.89c0.6-1.02,1.17-2.07,1.73-3.12
			c1.11-2.1,2.21-4.22,3.27-6.35c2.15-4.25,4.39-8.47,6.57-12.71l3.27-6.37c1.12-2.11,2.13-4.26,3.42-6.31
			c0.67-1,1.44-1.96,2.39-2.73c0.95-0.76,2.18-1.29,3.42-1.13c1.24,0.15,2.31,0.86,3.16,1.7c0.86,0.85,1.56,1.83,2.13,2.89
			c0.01,0.02,0,0.05-0.02,0.06C589.28,98.84,589.25,98.83,589.23,98.8z"/>
	</g>
	<path class="st4" d="M570.8,119.56l-3.07,4.52l-6.19,21.41c0,0,6.99-1.9,9.13-3.23s11.46-12.27,10.29-11.72
		c-1.17,0.55-3.45-1.23-3.45-1.23s0.86,0.31,3.51-1.66c2.65-1.97,5.97-3.49,5.97-3.49l-2.03-4.82c0,0,4.43,0.81,6.28-4.36
		c1.85-5.17,13.17-10.84,13.17-10.84s-5.6-4.91-10.83-3.87c-5.23,1.05-7.32-0.88-9,1.09c-1.67,1.97-1.65,4.62-1.65,4.62l-1.33-4.43
		c-3.49,1.6-7.73,13.48-7.73,13.48l-1.71,7.51C572.17,122.54,569.32,122.36,570.8,119.56z"/>
	<g>
		<path class="st5" d="M598.13,101.31c0,0-5.66-10.97-12,1.34c-11.8,22.93-10.99,29.79-19.33,35.69"/>
		<path class="st6" d="M598.09,101.33c-0.59-1.04-1.32-2-2.19-2.81c-0.86-0.8-1.92-1.46-3.09-1.55c-1.16-0.1-2.29,0.43-3.16,1.18
			c-0.89,0.77-1.6,1.72-2.23,2.72c-0.64,1-1.15,2.08-1.69,3.15l-1.57,3.23c-1.03,2.16-2.03,4.34-2.99,6.54
			c-1.95,4.38-3.61,8.87-5.56,13.28c-1.01,2.18-2.06,4.39-3.49,6.37c-0.72,0.99-1.52,1.91-2.4,2.74c-0.9,0.82-1.87,1.54-2.89,2.19
			c-0.02,0.01-0.05,0.01-0.07-0.01c-0.01-0.02-0.01-0.05,0.01-0.06c1.89-1.48,3.53-3.23,4.79-5.23c1.27-1.99,2.25-4.17,3.16-6.38
			c1.82-4.42,3.71-8.85,5.75-13.21c1.01-2.18,2.05-4.35,3.13-6.49l1.64-3.21c0.56-1.06,1.1-2.15,1.77-3.16
			c0.67-1.01,1.44-1.98,2.39-2.76c0.94-0.77,2.17-1.32,3.43-1.18c1.25,0.13,2.33,0.85,3.19,1.69c0.86,0.85,1.57,1.84,2.14,2.9
			c0.01,0.02,0,0.05-0.02,0.06C598.13,101.37,598.1,101.36,598.09,101.33z"/>
	</g>
	<path class="st4" d="M581.26,125.69l-3.62,4.1l-8.83,20.46c0,0,7.18-1.01,9.47-2.05c2.29-1.05,12.91-5.67,11.68-5.27
		c-1.23,0.4-3.26-1.65-3.26-1.65s0.82,0.41,3.69-1.21c2.87-1.62,7-7.74,7-7.74l-2.05-0.01c0,0,4.93-3.66,7.41-8.55
		c2.48-4.9,14.43-9.1,14.43-9.1s-4.94-5.58-10.26-5.2s-7.79,3.23-9.7,4.97c-1.91,1.74-2.22,4.37-2.22,4.37l-0.76-4.56
		c-3.66,1.15-9.36,7.34-9.36,7.34l-2.64,7.23C582.24,128.82,579.44,128.28,581.26,125.69z"/>
	<g>
		<path class="st5" d="M612.26,113.58c0,0-4.87-6.57-12.71,4.84c-15.14,22.06-13.25,22.36-23.67,27.91"/>
		<path class="st6" d="M612.22,113.61c-0.71-0.83-1.68-1.45-2.74-1.68c-1.06-0.24-2.18-0.1-3.18,0.33c-2.02,0.85-3.6,2.48-4.97,4.17
			c-1.37,1.71-2.52,3.61-3.76,5.44l-3.63,5.55l-3.58,5.59c-1.2,1.86-2.41,3.72-3.78,5.49c-1.37,1.76-2.94,3.45-4.82,4.7
			c-1.86,1.26-3.85,2.25-5.87,3.18c-0.02,0.01-0.05,0-0.06-0.02c-0.01-0.02,0-0.05,0.02-0.06c1.88-1.17,3.79-2.3,5.51-3.64
			c1.74-1.31,3.17-2.96,4.46-4.73c2.56-3.55,4.99-7.28,7.5-10.92l3.76-5.48c1.29-1.8,2.47-3.68,3.91-5.39
			c1.44-1.68,3.1-3.3,5.22-4.13c1.05-0.42,2.23-0.54,3.32-0.26c1.1,0.28,2.07,0.93,2.77,1.81c0.02,0.02,0.01,0.05-0.01,0.07
			C612.27,113.63,612.24,113.63,612.22,113.61L612.22,113.61z"/>
	</g>
	<path class="st4" d="M588.86,141.93l-3.62-0.96l-8.83,20.46c0,0,7.18-1.01,9.47-2.05c2.29-1.05,12.91-10.73,11.68-10.33
		c-1.23,0.4-3.26-1.65-3.26-1.65s0.82,0.41,3.69-1.21c2.87-1.62,7-2.67,7-2.67l-2.05-0.01c0,0,4.93-3.66,7.41-8.55
		c2.48-4.9,14.43-14.16,14.43-14.16s-4.94-0.52-10.26-0.14s-7.79,3.23-9.7,4.97c-1.91,1.74-2.22,4.37-2.22,4.37l-0.76-4.56
		c-3.66,1.15-9.36,12.4-9.36,12.4l-2.64,7.23C589.83,145.06,587.03,144.52,588.86,141.93z"/>
	<g>
		<path class="st5" d="M622.38,118.44c0,0-4.87-1.51-12.71,9.9c-15.14,22.06-13.25,22.36-23.67,27.91"/>
		<path class="st6" d="M622.37,118.48c-1.09-0.19-2.21,0.19-3.21,0.64c-1,0.49-1.93,1.12-2.79,1.82c-1.73,1.41-3.21,3.11-4.57,4.88
			c-1.36,1.77-2.58,3.65-3.83,5.53l-3.69,5.64l-3.64,5.68c-1.21,1.89-2.44,3.78-3.82,5.59c-1.38,1.79-2.96,3.52-4.85,4.8
			c-1.89,1.29-3.91,2.29-5.95,3.24c-0.02,0.01-0.05,0-0.06-0.02c-0.01-0.02,0-0.05,0.02-0.06c1.91-1.19,3.85-2.33,5.59-3.7
			c1.77-1.34,3.19-3.03,4.49-4.83c2.59-3.62,5.06-7.39,7.6-11.1l3.82-5.56c1.29-1.84,2.54-3.71,3.97-5.47
			c1.41-1.76,2.95-3.44,4.74-4.82c0.89-0.69,1.85-1.31,2.88-1.78c1.03-0.43,2.17-0.79,3.31-0.57c0.03,0.01,0.04,0.03,0.04,0.06
			c-0.01,0.03-0.03,0.04-0.05,0.04L622.37,118.48z"/>
	</g>
	<path class="st4" d="M478.3,158.96l2.82,4.68l16.85,14.58c0,0,1.2-7.15,0.89-9.65c-0.31-2.5-6.35-15.55-6.33-14.25
		s-2.56,5.15-2.56,5.15s0.64-3.18-0.04-6.41c-0.68-3.23-5.27-9-5.27-9l-0.63,1.95c0,0-2-5.8-5.92-9.64
		c-3.92-3.84-4.33-16.5-4.33-16.5s-6.81,3.03-8.05,8.22c-1.24,5.19,0.73,8.4,1.82,10.75c1.09,2.35,3.5,3.43,3.5,3.43l-4.58-0.65
		c-0.01,3.84,9,12.66,9,12.66l6.1,4.7C481.58,158.98,480.22,161.49,478.3,158.96z"/>
	<g>
		<path class="st5" d="M470.88,125.45c0,0-7.74,2.67,0.79,13.58c6.88,8.8,25.32,37.89,24.32,32.5"/>
		<path class="st6" d="M470.89,125.49c-1.1,0.46-2.04,1.31-2.57,2.36c-0.53,1.06-0.64,2.29-0.43,3.45c0.41,2.35,1.69,4.45,3.08,6.38
			c2.97,3.78,5.77,7.74,8.54,11.67c2.78,3.94,5.57,7.87,8.27,11.86c1.34,2,2.7,3.98,4.07,5.96c0.68,0.99,1.38,1.97,2.11,2.92
			c0.36,0.48,0.72,0.96,1.12,1.4c0.2,0.21,0.41,0.44,0.65,0.57c0.26,0.18,0.24-0.27,0.2-0.53c0-0.03,0.01-0.05,0.04-0.05
			c0.02,0,0.05,0.01,0.05,0.04c0.03,0.15,0.06,0.3,0.05,0.47c-0.01,0.08-0.02,0.19-0.13,0.26c-0.11,0.06-0.21,0.02-0.29-0.01
			c-0.31-0.14-0.53-0.35-0.76-0.55c-0.45-0.41-0.86-0.86-1.27-1.31c-0.8-0.91-1.55-1.86-2.3-2.81c-1.49-1.9-2.9-3.86-4.32-5.81
			c-2.81-3.92-5.44-7.97-8.13-11.96c-2.7-4-5.39-7.97-8.31-11.83c-1.36-1.99-2.61-4.17-2.97-6.61c-0.18-1.21-0.04-2.5,0.55-3.59
			c0.59-1.08,1.57-1.92,2.71-2.36c0.02-0.01,0.05,0,0.06,0.03C470.93,125.45,470.92,125.48,470.89,125.49z"/>
	</g>
	<path class="st7" d="M938.04,135.29c0,0,11.68-31.54-2.66-29.62s-22.44,22.17-22.44,22.17s12.59,16.94,17.94,18.09
		C936.23,147.08,938.04,135.29,938.04,135.29z"/>
	<path class="st8" d="M849.55,202.06c0,0-7.16-9.74-7.16-15.23c0-5.49,18.83-28.83,31.38-32.95s27.42-8.04,31.66-7.45
		c4.24,0.59,6.98,7.45,6.98,7.45S863.58,171.98,849.55,202.06z"/>
	<path class="st9" d="M465.42,91.88c0,0-1.3-5.49,2.59-5.49s3.89,4.12,3.89,4.12s3.33-4.12,4.9-1.37c1.57,2.75,0.05,5.62-1.13,6.24
		c-1.18,0.62,1.59,2.73-1.09,5.11s-5.14,0-5.14,0s-4.85,2.48-6.38,1.06c-1.53-1.42,0-6.11,0-6.11s-2.82-2.62-1.53-3.77
		C462.83,90.51,465.42,91.88,465.42,91.88z"/>
	<path class="st9" d="M452.47,90.51c0,0-1.3-5.49,2.59-5.49s3.89,4.12,3.89,4.12s3.33-4.12,4.9-1.37c1.57,2.75,0.05,5.62-1.13,6.24
		c-1.18,0.62,1.59,2.73-1.09,5.11c-2.68,2.38-5.14,0-5.14,0s-4.85,2.48-6.38,1.06c-1.53-1.42,0-6.11,0-6.11s-2.82-2.62-1.53-3.77
		C449.88,89.14,452.47,90.51,452.47,90.51z"/>
	<path class="st9" d="M439.51,87.77c0,0-1.3-5.49,2.59-5.49s3.89,4.12,3.89,4.12s3.33-4.12,4.9-1.37c1.57,2.75,0.05,5.62-1.13,6.24
		c-1.18,0.62,1.59,2.73-1.09,5.11s-5.14,0-5.14,0s-4.85,2.48-6.38,1.06c-1.53-1.42,0-6.11,0-6.11s-2.82-2.62-1.53-3.77
		S439.51,87.77,439.51,87.77z"/>
	<path class="st9" d="M426.56,90.51c0,0-1.3-5.49,2.59-5.49s3.89,4.12,3.89,4.12s3.33-4.12,4.9-1.37c1.57,2.75,0.05,5.62-1.13,6.24
		c-1.18,0.62,1.59,2.73-1.09,5.11c-2.68,2.38-5.14,0-5.14,0s-4.85,2.48-6.38,1.06c-1.53-1.42,0-6.11,0-6.11s-2.82-2.62-1.53-3.77
		C423.97,89.14,426.56,90.51,426.56,90.51z"/>
	<path class="st9" d="M416.2,93.26c0,0-1.3-5.49,2.59-5.49c3.89,0,3.89,4.12,3.89,4.12s3.33-4.12,4.9-1.37
		c1.57,2.75,0.05,5.62-1.13,6.24s1.59,2.73-1.09,5.11c-2.68,2.38-5.14,0-5.14,0s-4.85,2.48-6.38,1.06c-1.53-1.42,0-6.11,0-6.11
		s-2.82-2.62-1.53-3.77C413.6,91.88,416.2,93.26,416.2,93.26z"/>
	<path class="st10" d="M465.42,102.87c0,0-1.3-5.49,2.59-5.49s3.89,4.12,3.89,4.12s3.33-4.12,4.9-1.37s0.05,5.62-1.13,6.24
		c-1.18,0.62,1.59,2.73-1.09,5.11c-2.68,2.38-5.14,0-5.14,0s-4.85,2.48-6.38,1.06c-1.53-1.42,0-6.11,0-6.11s-2.82-2.62-1.53-3.77
		C462.83,101.49,465.42,102.87,465.42,102.87z"/>
	<path class="st10" d="M452.47,101.49c0,0-1.3-5.49,2.59-5.49s3.89,4.12,3.89,4.12s3.33-4.12,4.9-1.37
		c1.57,2.75,0.05,5.62-1.13,6.24c-1.18,0.62,1.59,2.73-1.09,5.11s-5.14,0-5.14,0s-4.85,2.48-6.38,1.06c-1.53-1.42,0-6.11,0-6.11
		s-2.82-2.62-1.53-3.77C449.88,100.12,452.47,101.49,452.47,101.49z"/>
	<path class="st10" d="M439.51,98.75c0,0-1.3-5.49,2.59-5.49s3.89,4.12,3.89,4.12s3.33-4.12,4.9-1.37s0.05,5.62-1.13,6.24
		c-1.18,0.62,1.59,2.73-1.09,5.11c-2.68,2.38-5.14,0-5.14,0s-4.85,2.48-6.38,1.06c-1.53-1.42,0-6.11,0-6.11s-2.82-2.62-1.53-3.77
		C436.92,97.38,439.51,98.75,439.51,98.75z"/>
	<path class="st10" d="M426.56,101.49c0,0-1.3-5.49,2.59-5.49s3.89,4.12,3.89,4.12s3.33-4.12,4.9-1.37
		c1.57,2.75,0.05,5.62-1.13,6.24c-1.18,0.62,1.59,2.73-1.09,5.11s-5.14,0-5.14,0s-4.85,2.48-6.38,1.06c-1.53-1.42,0-6.11,0-6.11
		s-2.82-2.62-1.53-3.77C423.97,100.12,426.56,101.49,426.56,101.49z"/>
	<path class="st10" d="M416.2,104.24c0,0-1.3-5.49,2.59-5.49c3.89,0,3.89,4.12,3.89,4.12s3.33-4.12,4.9-1.37
		c1.57,2.75,0.05,5.62-1.13,6.24s1.59,2.73-1.09,5.11c-2.68,2.38-5.14,0-5.14,0s-4.85,2.48-6.38,1.06c-1.53-1.42,0-6.11,0-6.11
		s-2.82-2.62-1.53-3.77S416.2,104.24,416.2,104.24z"/>
	<path class="st11" d="M464.01,143.71l2.82-24.16c0,0-27.59-8.38-46.18,1.3l3.38,24.94L464.01,143.71z"/>
	<path class="st12" d="M316.55,190.95c-6.86,17.85-28.83,16.48-39.13,11.05c-9.13-4.81-25.76-9.8-29.38-10.87
		c-0.47-0.14-0.71-0.21-0.71-0.21l-1.61-5.62l-0.7-2.43l-1.02-3.51l-0.22-0.77c-0.81,0-6,1.54-13.13,3.79
		c-0.19,0.07-0.29,0.1-0.29,0.1c-17.09,5.41-44.92,14.79-49.74,16.71c-6.86,2.75-86.49,12.36-82.38-31.58
		c3.93-41.83,56.39-28.9,61.4-27.55c0.25,0.05,0.38,0.1,0.38,0.1s0.07-0.14,0.19-0.4c1.26-2.68,8.77-18.37,13.19-24.86
		c0.15-0.23,0.3-0.44,0.44-0.63c0.48-0.66,0.91-1.19,1.28-1.57c0.29-0.29,0.89-0.54,1.74-0.73c2.66-0.63,7.85-0.82,14.29-0.73h0.25
		c0.6,0.01,1.22,0.01,1.85,0.04c13.76,0.32,32.2,1.81,44.18,3.34c0.05,0,0.1,0.01,0.11,0.01c2.77,0.36,5.2,0.71,7.14,1.06
		c2.29,0.4,3.89,0.78,4.57,1.13c0.67,0.33,1.41,1.15,2.21,2.35c0.29,0.4,0.56,0.85,0.84,1.33c5.74,9.78,13.43,34.76,13.43,34.76
		s1.4-0.47,3.89-0.93h0.03c0.47-0.08,1-0.18,1.55-0.26c5.15-0.78,13.52-1.26,23.37,1.19C311.06,159.37,323.41,173.1,316.55,190.95z"
		/>
	<path class="st13" d="M316.55,190.95c-6.86,17.85-28.83,16.48-39.13,11.05c-9.13-4.81-25.76-9.8-29.38-10.87l-1.51-4.3
		c0,0,34.32,12.36,38.44,13.73c3.1,1.03,17.08-0.26,20.88-7.4c1.26-2.35,1.41-5.33-0.29-9.08c-1.22-2.69-2.58-4.9-4.05-6.71
		c-1.84-2.28-3.87-3.91-6.05-5.07c-5.82-3.1-12.71-2.77-20.1-1.95c-1.52,0.16-3.42,0.54-5.56,1.03c-2.99,0.7-6.47,1.67-10.1,2.8
		c-3.76,1.14-7.7,2.43-11.49,3.73c-1.43,0.48-2.83,0.96-4.2,1.44l-0.22-0.77c-0.81,0-6.03,1.55-13.18,3.8
		c-0.15,0.05-0.23,0.08-0.23,0.08c-17.09,5.41-44.92,14.79-49.74,16.71c-6.86,2.75-86.49,12.36-82.38-31.58
		c3.93-41.83,56.39-28.9,61.4-27.55c0.25,0.05,0.38,0.1,0.38,0.1s0.07-0.14,0.19-0.4c0.07,0.74,0.01,1.35-0.19,1.77
		c-0.37,0.74-0.74,1.19-1.1,1.43c-0.92,0.67-1.65-0.05-1.65-0.05c-50.8-12.36-59.04,20.59-50.8,38.44
		c6.89,14.92,32.03,17.37,52.12,16.97c3.93-0.08,7.66-0.26,11.04-0.49c2.17-0.15,4.54-0.51,7.06-1.04l0.18-0.04
		c6.34-1.36,13.56-3.82,20.79-6.77c0.01,0,0.03-0.01,0.04-0.03c0.03,0,0.07-0.01,0.11-0.04l0.3-0.12c1.17-0.48,2.35-0.97,3.51-1.48
		l0.27-0.12c3.64-1.58,7.24-3.25,10.68-4.94c8.83-4.35,16.58-8.8,21.25-11.97l0.14-0.1c1.21-0.82,2.2-1.55,2.94-2.17
		c3.08-2.55,7.47-4.93,11.79-6.89c4.53-2.06,8.97-3.68,11.66-4.6l1.43-0.48c0.77-0.25,1.21-0.38,1.21-0.38l8.21-2.57
		c5.15-0.78,13.52-1.26,23.37,1.19C311.06,159.37,323.41,173.1,316.55,190.95z"/>
	<path class="st14" d="M243.78,178.59c0,0,39.82-19.22,56.29,4.12s-54.36,2.6-54.36,2.6l-0.7-2.44c0,0,46.82,13.57,48.2,5.33
		C294.58,179.96,287.1,171.62,243.78,178.59z"/>
	<path class="st13" d="M233.99,171.15c0,0-65.71,15.68-79.44-9.03c0,0-1.37-1.93,1.37-3.71c0,0-16.48-0.41-8.24,10.58
		c8.24,10.98,36.28,18.75,70.31,13.5L233.99,171.15z"/>
	<path class="st13" d="M158.66,153.88c0,0-26.09,0-24.71,13.73c1.37,13.73,41.2,21.89,67.97,20.55l-4.25,1.79
		c2.31-0.46-62.57,4.07-67.83-22.35c0,0,1.37-17.85,30.2-15.1"/>
	<path class="st13" d="M160.03,147.01c0,0-23.34-4.69-37.07,5.2c-13.73,9.9-1.37,29.12,8.24,34.61c9.61,5.49,22.72,8.81,45.68,9.9
		l-9.99,2.46c0,0-36.03-2.52-46.68-13.73c-9.52-10.02-16.47-23.33,0-35.7c18.27-13.72,41.29-3.86,41.29-3.86"/>
	<path class="st13" d="M176.89,111.96c30.57,23.49,74.44,6.55,72.39,4.85l3.05,3.68c0,0-48.17,24.17-78.47-6.23"/>
	<path class="st12" d="M230.37,182.48l1.06-6.63l7.09,3.32l3.97-8.33l7.26,5.32l6.4-12.66l8.24,5.44l6.86-9.56l9.61,8.24l9.95-8.24
		l5.15,9.61l9.61-1.37v11.69l10.17,3.17l-3.97,7.52l2.03,2.33l-7.99,4.46c-0.78-0.46,2.28-4.99-4.36-19.56
		C293.7,160.21,230.37,182.48,230.37,182.48z"/>
	<path class="st13" d="M244.7,115.68c0,0-10.53-0.24-16.02,2.5c-5.49,2.75-31.33,1.85-36.95-2.51c-5.61-4.36-5.61-4.36-5.61-4.36
		l7.16-0.11c0,0-0.54,2.93,5.07,4.27c5.61,1.33,20.72,4.08,28.95,1.33c8.24-2.75,10.3-2.18,10.3-2.18"/>
	<polyline class="st13" points="193.62,126.57 186.12,175.86 216.33,175.84 217.7,129.16 	"/>
	<polygon class="st12" points="213.09,129.6 215.41,134.29 210.83,138.77 215.41,144.91 210.83,150.4 213.58,156.62 208.29,161.43 
		213.09,167.17 206.52,175.55 193.5,175.55 189.68,167.39 195.73,160.74 191.29,151.21 197.1,148.39 193.06,142.44 197.1,138.77 
		194.36,130.54 198.13,128.11 	"/>
	<polygon class="st13" points="206.71,129.16 209.46,133.28 206.74,137.12 200.56,137.12 198.48,131.91 201.91,128.66 	"/>
	<polygon class="st13" points="207.02,140.43 209.77,144.55 207.05,148.39 200.87,148.39 198.78,143.17 202.22,139.92 	"/>
	<polygon class="st13" points="205.65,151.41 208.39,155.53 205.67,159.37 199.5,159.37 197.41,154.16 200.84,150.9 	"/>
	<polygon class="st13" points="204.28,163.77 207.02,167.89 204.3,171.73 198.12,171.73 196.04,166.51 199.47,163.26 	"/>
	<path class="st13" d="M169.94,173.17c7.16-37,14.13-50.96,14.13-50.96l-7.07-5.04c0,0-13.99,19.61-15.48,52.19"/>
	<path class="st13" d="M236.92,168.98c2.75-17.85-6.55-41.24-6.55-41.24l9.94-2.6c0,0,6.81,25.53,8.58,38.12"/>
	<path class="st13" d="M269.64,154.32l-7.84,2.69l-1.43,0.48c0.1-8.59-9.56-29.11-12.44-35.06c-0.51-1.06-0.81-1.65-0.81-1.65
		l4.16-1.54l0.21-0.08c0.29,0.4,0.56,0.85,0.84,1.33c5.74,9.78,13.43,34.76,13.43,34.76S267.15,154.78,269.64,154.32z"/>
	<path class="st13" d="M173.42,114.89c-1.72,4.06-9.34,22.52-13.77,37.59c-0.05,0.19-0.11,0.38-0.16,0.58
		c-1.32,4.54-2.33,8.76-2.79,12.14l-0.04-0.05l-2.11-3.02c0,0,0.26-1.19,0.7-3.2c0.03-0.15,0.07-0.33,0.11-0.49
		c0.27-1.25,0.62-2.76,1-4.46c0.12-0.54,0.25-1.1,0.38-1.69c0.4-1.73,0.84-3.62,1.3-5.59c0.14-0.62,0.29-1.24,0.44-1.85
		c0.15-0.62,0.3-1.25,0.45-1.88c0.23-0.96,0.48-1.94,0.71-2.9c0.25,0.05,0.38,0.1,0.38,0.1s0.07-0.14,0.19-0.4
		C161.49,137.07,169,121.38,173.42,114.89z"/>
	<path class="st15" d="M252.33,212.62c0,0-21.66-18.93-45.3-13.44c-23.65,5.49-17.34,11.67-17.34,11.67s-6.28,1.27-5.61,4.41
		c0.67,3.14,0.67,3.14,0.67,3.14s54.37-8.24,65.63,0.69L252.33,212.62z"/>
	<path class="st15" d="M251.85,208.64c0,0,3.27-1.53,6.53,0c3.25,1.53,0,5.75,0,5.75s5.61-0.1,3.74,4.71
		c-1.86,4.81-6.53,2.06-11.75,0C245.16,217.03,251.85,208.64,251.85,208.64z"/>
	<path class="st15" d="M262.5,210.85c0,0,1.68-11.2,15.51-5.26c13.83,5.94,14.56,16.17,14.56,16.17s-7.37-10.45-15.04-6.9
		S260.63,212.91,262.5,210.85z"/>
	<path class="st15" d="M263.26,219.73c0,0,8.73-7.22,15.05,6.44c6.32,13.66,0.04,21.76,0.04,21.76s1.49-12.7-6.58-15.18
		C263.7,230.27,260.48,220.01,263.26,219.73z"/>
	<path class="st16" d="M192.99,210.17c0,0,11.9-5.76,22.43-6.31s18.57,3.16,18.57,3.16s-17.25-2.64-25.69,0.95
		C199.85,211.54,192.99,215.66,192.99,210.17z"/>
	<path class="st17" d="M262.5,210.85c0,0,4.17-2.36,9.2-2.9c5.03-0.54,7.24-0.54,4.76,2.9C273.99,214.29,267.49,210.17,262.5,210.85
		z"/>
	<path class="st18" d="M264.38,221.15c0,0,6.6-2.75,8.79,2.06c2.19,4.81,3.3,4.36,0,5.96C269.87,230.76,272.62,222.52,264.38,221.15
		z"/>
	<path class="st10" d="M446.76,140.83c0,0-14.25-1.37-16.84,4.12c-2.59,5.49,2.59,5.49,6.48,5.49
		C440.28,150.44,440.28,140.83,446.76,140.83z"/>
	<path class="st19" d="M432.66,150.53c0,0,14.25,1.37,16.84-4.12s-2.59-5.49-6.48-5.49C439.14,140.91,439.14,150.53,432.66,150.53z"
		/>
	<path class="st9" d="M441.73,150.53c0,0,14.25,1.37,16.84-4.12c2.59-5.49-2.59-5.49-6.48-5.49S448.21,150.53,441.73,150.53z"/>
	<path class="st10" d="M449.81,149.74c0,0,13.22,5.8,17.24,1.37c4.01-4.43-0.93-6.06-4.64-7.28S455.99,151.78,449.81,149.74z"/>
	<path class="st9" d="M435.46,140.78c0,0-13.92,3.52-14.72,9.6c-0.8,6.08,4.11,4.33,7.79,3.01S429.32,142.97,435.46,140.78z"/>
	<path class="st20" d="M434.45,129.16h10.41l0.83-12.93c0,0-12.22,0.93-13.03,0.75C431.86,116.81,434.45,129.16,434.45,129.16z"/>
	<path class="st9" d="M446.76,130.12c0,0,9.35-0.05,10.18,0.87l-1.25,9.69l-9.99,0.25L446.76,130.12z"/>
	<polygon class="st10" points="456.47,129.16 459.17,118.18 466.84,119.55 465.6,130.12 	"/>
	<path class="st19" d="M422.92,132.75c0,0,5.18-2.75,10.36-2.75l2.1,10.62l-10.5,3.18L422.92,132.75z"/>
	<path class="st21" d="M418.9,112.69c0,0-1.3-5.49,2.59-5.49s3.89,4.12,3.89,4.12s3.33-4.12,4.9-1.37c1.57,2.75,0.05,5.62-1.13,6.24
		s1.59,2.73-1.09,5.11s-5.14,0-5.14,0s-4.85,2.48-6.38,1.06c-1.53-1.42,0-6.11,0-6.11s-2.82-2.62-1.53-3.77
		C416.31,111.32,418.9,112.69,418.9,112.69z"/>
	<path class="st21" d="M429.15,109.73c0,0-1.3-5.49,2.59-5.49c3.89,0,3.89,4.12,3.89,4.12s3.33-4.12,4.9-1.37
		c1.57,2.75,0.05,5.62-1.13,6.24s1.59,2.73-1.09,5.11c-2.68,2.38-5.14,0-5.14,0s-4.85,2.48-6.38,1.06c-1.53-1.42,0-6.11,0-6.11
		s-2.82-2.62-1.53-3.77S429.15,109.73,429.15,109.73z"/>
	<path class="st21" d="M442.11,108.36c0,0-1.3-5.49,2.59-5.49c3.89,0,3.89,4.12,3.89,4.12s3.33-4.12,4.9-1.37
		c1.57,2.75,0.05,5.62-1.13,6.24c-1.18,0.62,1.59,2.73-1.09,5.11c-2.68,2.38-5.14,0-5.14,0s-4.85,2.48-6.38,1.06
		c-1.53-1.42,0-6.11,0-6.11s-2.82-2.62-1.53-3.77S442.11,108.36,442.11,108.36z"/>
	<path class="st21" d="M452.47,111.11c0,0-1.3-5.49,2.59-5.49s3.89,4.12,3.89,4.12s3.33-4.12,4.9-1.37s0.05,5.62-1.13,6.24
		c-1.18,0.62,1.59,2.73-1.09,5.11s-5.14,0-5.14,0s-4.85,2.48-6.38,1.06c-1.53-1.42,0-6.11,0-6.11s-2.82-2.62-1.53-3.77
		C449.88,109.73,452.47,111.11,452.47,111.11z"/>
	<path class="st21" d="M464.13,113.85c0,0-1.3-5.49,2.59-5.49s3.89,4.12,3.89,4.12s3.33-4.12,4.9-1.37
		c1.57,2.75,0.05,5.62-1.13,6.24s1.59,2.73-1.09,5.11s-5.14,0-5.14,0s-4.85,2.48-6.38,1.06c-1.53-1.42,0-6.11,0-6.11
		s-2.82-2.62-1.53-3.77C461.54,112.48,464.13,113.85,464.13,113.85z"/>
	<path class="st22" d="M477.18,153.88v5.34h-2.46c0,0-0.29,15.25-3.03,16.63c-2.75,1.37-18.29,1.37-20.13,0
		c-0.47-0.36-0.92-0.97-1.33-1.73c-1.21-2.18-2.24-5.49-3.25-6.51c-1.37-1.37-5.49-1.52-6.86-0.76l-0.52,0.58
		c-1.37,1.37-2.75,6.86-4.57,8.24c-1.84,1.37-17.4,1.37-20.14,0c-2.75-1.37-3.03-16.63-3.03-16.63h-2.46v-5.34l26.09-1.37l3.3,5.49
		l1.35,1.55c0.07,1.24,4.43,1.73,7.7-1.37l3.28-5.49L477.18,153.88z"/>
	<path class="st23" d="M451.1,158c0,0,12.8-2.75,19.44,0c0,0,0.2,6.12-0.55,11.04c-0.3,1.97-1.97,3.44-3.96,3.52
		c-4.04,0.16-10.66,0.4-11.82-0.14C451.15,170.97,449.86,157.29,451.1,158z"/>
	<path class="st24" d="M463.72,156.8l-9.51,15.61h7.5l8.83-14.42C470.54,158,465.36,155.61,463.72,156.8z"/>
	<path class="st23" d="M435.76,158c0,0-12.8-2.75-19.44,0c0,0-0.2,6.12,0.55,11.04c0.3,1.97,1.97,3.44,3.96,3.52
		c4.04,0.16,10.66,0.4,11.82-0.14C435.71,170.97,437,157.29,435.76,158z"/>
	<path class="st24" d="M428.17,156.47l-7.34,16.09l7.34,0.19l5.98-15.05C434.15,157.69,429.28,157,428.17,156.47z"/>
	<path class="st25" d="M901.11,151.05c0,0-8.91,3.71-17.69,7.73s-23.88,8.14-29.37,21.87c-5.49,13.73-3.78,19.29-3.78,19.29
		s28.92-34.57,41.75-36.54C904.85,161.43,901.11,151.05,901.11,151.05z"/>
	<path class="st26" d="M924.76,155.25c0,0,17.55,1.15,21.82,9.5c4.27,8.35,3.97,24.95,3.97,24.95s-23.38-11.89-28.7-11.5
		c-5.33,0.39-12.19-6.47-12.19-10.59S919.27,153.88,924.76,155.25z"/>
	<path class="st27" d="M921.85,155.25c0,0-2.58,10.98-9.45,17.22c-0.21,0.19-0.44,0.38-0.69,0.58h-0.01
		c-7.78,5.9-32.65,9.89-45,16.65c-12.74,6.99-17.86,35.82-17.86,35.82s-0.01-0.03-0.04-0.08c-0.56-0.99-6.23-11.38-2.58-16.01
		c1.46-1.84,2.24-4.16,3.34-7.37c0.23-0.66,0.47-1.36,0.73-2.11c1.8-5.15,4.63-12.3,11.33-22.72c8.14-12.66,27.6-18.77,39.92-21.46
		c6.4-1.4,10.87-1.88,10.87-1.88L921.85,155.25z"/>
	<path class="st8" d="M911.42,140.33c0,0,11.68-31.54-2.66-29.62c-14.34,1.92-22.44,22.17-22.44,22.17s12.59,16.94,17.94,18.09
		C909.61,152.12,911.42,140.33,911.42,140.33z"/>
	<path class="st25" d="M912.12,111c0,0-13.64,0.87-13.2,9.86c0.44,8.99,8.08,30.19,8.08,30.19S923.5,115.48,912.12,111z"/>
	<path class="st28" d="M911.72,173.04h-0.01c-7.78,5.9-32.65,9.89-45,16.65c-12.74,6.99-17.86,35.82-17.86,35.82
		s-0.01-0.03-0.04-0.08c-0.27-0.85-2.51-8.75,5.11-25.5c8.1-17.78,22.12-22.04,32.41-23.41c10.3-1.37,15.29-8.62,15.29-8.62
		C911.55,166.6,913.03,169.79,911.72,173.04z"/>
	<path class="st29" d="M937.8,107.88c0,0-3.34-4.81-4.76,2.75c-1.42,7.55,4.76,24.71,4.76,24.71S949.02,105.53,937.8,107.88z"/>
	<path class="st7" d="M933.04,181.57c0,0,13.68-9.85,21.92-2.98s5.43,38.66,5.43,38.66S946.82,183.18,933.04,181.57z"/>
	<path class="st8" d="M912.4,126.42c0,0,13.14-2.75,18.93,0c5.79,2.75,8.53,4.31,3.04,20.69c-5.49,16.38-18.43,25.77-27.75,24.51
		S913.78,137.4,912.4,126.42z"/>
	<path class="st7" d="M933.82,131.43c0,0,13.32,1.64,17.92,6.1c4.59,4.47,6.68,6.84-3.8,20.57c-10.48,13.73-25.75,18.45-34.17,14.25
		S931.58,142.27,933.82,131.43z"/>
	<path class="st30" d="M955.51,115.97"/>
	<path class="st31" d="M893.87,121.61c0,0-3.73,6.86,0.2,13.73s-5.07-3.91-5.07-3.91L893.87,121.61z"/>
	<path class="st31" d="M921.85,125.79c0,0-1.32,13.75-5.73,20.57c-4.41,6.83-6.46,18.39-6.46,18.39s8.04-21.37,13.97-25.39
		S921.85,125.79,921.85,125.79z"/>
	<path class="st31" d="M898.91,148.46c0,0-21.22,4.51-34.41,16.29s-13.19,11.78-13.19,11.78S857.27,150.6,898.91,148.46z"/>
	<circle class="st32" cx="456.59" cy="114.06" r="3.43"/>
	<path class="st33" d="M1130.3,70.51h20.66c0,0,12.94,6.05,8.85,19.31s-32.65,22.45-36.73,32.65S1135.47,79.76,1130.3,70.51z"/>
	<path class="st29" d="M913.78,172.35c0,0,20.37-13.41,23.57-19.72c3.2-6.3,5.18-11.06,5.18-11.06s-0.59,6.8-4.72,15.39
		C933.68,165.55,922.7,176.4,913.78,172.35z"/>
	<path class="st34" d="M1109.07,98.19c-1.27,6.43-3.81,12.64-4.89,15.09c-0.31,0.7-0.49,1.1-0.49,1.1c0-7.64-2.57-10.7-6.01-12.34
		c-0.91-0.44-1.89-0.79-2.89-1.07c-0.32-0.09-0.63-0.18-0.95-0.28c-5.06-1.38-10.58-2.19-12.6-9.77c-3.24-12.18,6.29-16,10.32-17.05
		c1.03-0.27,1.7-0.36,1.7-0.36s13.48,3.12,16.04,13.37C1110.14,90.18,1109.85,94.23,1109.07,98.19z"/>
	<path class="st35" d="M940.4,135.34c0,0-10.38,5.65-12.67,13.12c-2.29,7.47-9.97,14.03-9.97,14.03s13.17-11.86,16.6-15.39
		C937.8,143.58,944.37,140.83,940.4,135.34z"/>
	<path class="st33" d="M1218.54,207.47c-3.93,0.76-6.17-11.44-15.55-7.3c-9.36,4.13-28.04,2.41-33.11,0
		c-2.82-1.35-3.87-4.76-4.22-7.54c-0.3-2.24-0.16-4.06-0.16-4.06l0.05-0.05l13.09-12.24l0.13-0.12l0.28-0.26
		c0,0,1.85,12.91,12.14,10.17c9.36-2.49,19.96-4.88,25.76,0.62c0.58,0.54,1.11,1.17,1.59,1.89
		C1223.78,196.43,1222.47,206.72,1218.54,207.47z"/>
	<path class="st29" d="M937.35,179.05c0,0,12.23,6.61,13.21,7.54c0.98,0.93,10.3,28.68,10.3,28.68s-17.47-31.4-27.81-33.7"/>
	<path class="st33" d="M1128.27,125.46c2.92,1.86,6.28,3.15,6.28,3.15s-20.98,6.74-31.07,7.11c-0.38,0.02-0.73,0.02-1.07,0.02
		c-1.83-0.02-3.18-0.32-3.83-0.96c-4.08-4.08-2.04-10.2,3.17-16.94c1.05-1.36,1.84-2.93,2.42-4.57c2.34-6.52,1.55-14.2,1.55-14.2
		l-0.06,0.02c-0.41,0.16-2.89,1.1-5.66,1.64c-1.14,0.22-2.34,0.38-3.46,0.38c-0.66,0-1.23-0.05-1.75-0.15
		c-0.35-0.07-0.65-0.16-0.95-0.28c-2-0.74-2.95-2.44-4.44-4.67c-1.58-2.38-0.7-16.48,2.16-22.15c0.82-1.63,1.81-2.56,2.94-2.34
		c5.1,1.02,19.38-3.06,28.57-4.08c3.61-0.4,6.6,1.09,8.89,3.06c3.52,3.02,5.4,7.14,5.4,7.14l4.08,10.2
		c0,8.16-17.34,28.57-17.34,32.65c0,0.03,0,0.06,0.01,0.09C1124.17,122.33,1126.1,124.04,1128.27,125.46z"/>
	<path class="st36" d="M898.91,160.59c0,0-22.89-3.28-37.99,22.81C860.92,183.4,886.1,158.38,898.91,160.59z"/>
	<path class="st33" d="M1177.45,156.7c-2.12,4.64-6.1,6.96-6.1,6.96s-50.44-17.67-86.7-0.6c-3.01,1.42-6.72,0.72-8.66-1.98
		c-0.01-0.01-0.01-0.01-0.01-0.01c-0.87-1.21-1.23-2.58-0.31-3.96c2.45-3.68,5.66-7.08,9.41-10.15l0.03-0.01
		c1.86-1.53,3.85-2.98,5.96-4.34c3.8-2.45,7.96-4.64,12.31-6.55c0.07-0.03,0.13-0.05,0.18-0.07c6.61-2.88,13.68-5.1,20.72-6.59
		c20.63-4.4,40.99-2.67,48.38,6.74C1179.83,145.26,1179.55,152.11,1177.45,156.7z"/>
	<path class="st37" d="M1120.8,137.52c2.55-2.77,0.09-3.49,0.09-3.49c1.64-1.7-0.65-2.86-0.65-2.86s1.96-0.14,2.68,0.47
		s0.72,0.61,0.72,0.61s2.61-1.38,2.56,0.37c-0.05,1.76-1.67,1.97-1.67,1.97s0.32,1.19-1.23,2.23
		C1121.74,137.86,1120.8,137.52,1120.8,137.52z"/>
	<path class="st38" d="M1105.67,99.09c-0.41,0.16-2.89,1.1-5.66,1.64L1105.67,99.09z"/>
	<path class="st38" d="M1122.43,105.01c-6.49,10.39-13.64,11.41-12.61,19.06c0.82,6.15,1.83,6.62,2.18,6.57
		c0.04,0,0.07-0.01,0.09-0.02l-8.6,5.1l-5.71,3.4c1.45-1.19,3-2.32,4.64-3.38c-1.83-0.02-3.18-0.32-3.83-0.96
		c-4.08-4.08-2.04-10.2,3.17-16.94c1.05-1.36,1.84-2.93,2.42-4.57c2.34-6.52,1.55-14.2,1.55-14.2s1.39-0.32,3.34-0.89
		c4.07-1.19,10.59-3.49,11.97-6.25C1121.04,91.93,1128.9,94.63,1122.43,105.01z"/>
	<path class="st38" d="M1177.45,156.7c-0.01-2.27-0.37-4.82-1.42-7.38c-3.19-7.8-26.96-14.5-49.09-12.53
		c-22.14,1.97-50.96,24.28-50.96,24.28s0,0,0.01,0.01c1.94,2.7,5.65,3.39,8.66,1.98c36.26-17.07,86.7,0.6,86.7,0.6"/>
	<path class="st33" d="M1178.44,183.35c0,0.03-0.01,0.05-0.03,0.08c-1.09,3.34-3.42,5.53-5.73,6.93c-2.5,1.53-4.99,2.15-5.83,2.33
		c-0.2,0.04-0.3,0.05-0.3,0.05s-0.34-1.66-1-4.23c-1.17-4.63-3.37-12.2-6.45-18.18c0,0-43.52-18.23-82.49,15.73l-1.43,3.34
		c0,0-1.48-3.43-1.89-8.17c-0.39-4.85,0.34-11.06,4.98-16.33c9.18-10.42,69.14-37.02,91.6-6.67c1.04,1.4,1.97,2.74,2.79,4.02
		c0.07,0.1,0.13,0.2,0.18,0.29c3.5,5.44,5.3,9.92,5.92,13.61C1179.27,179.01,1179.07,181.38,1178.44,183.35z"/>
	<path class="st38" d="M1172.69,190.36"/>
	<path class="st38" d="M1178.44,183.35c0,0.03-0.01,0.05-0.03,0.08c-2.11,7.22-9.91,8.98-11.56,9.27c-0.2,0.04-0.3,0.05-0.3,0.05
		l-0.89-0.12c-0.3-2.24-0.16-4.06-0.16-4.06l0.05-0.05c-1.17-4.63-3.37-12.2-6.45-18.18c0,0-43.52-18.23-82.49,15.73l-1.43,3.34
		c0,0-1.48-3.43-1.89-8.17c6.82-11.26,29.89-22.82,52.84-28.96c22.61-6.04,45.88,9.54,46.53,9.98c0.01,0.01,0.01,0.01,0.01,0.01
		c0.05,0.09,0.12,0.18,0.17,0.28c3.39,5.51,5.15,10.03,5.79,13.72C1179.15,179.08,1179.01,181.41,1178.44,183.35z"/>
	<path class="st38" d="M1218.54,207.47c-3.93,0.76-6.17-11.44-15.55-7.3c-9.36,4.13-28.04,2.41-33.11,0
		c-2.82-1.35-3.87-4.76-4.22-7.54c0,0,9.12-0.31,11.34-6.12c0,0-1.15,9.11,9.04,6.24c10.21-2.87,10.49-8.95,21.5-9.19
		c3.08-0.07,6.33,1.22,9.41,3.12c0.58,0.54,1.11,1.17,1.59,1.89C1223.78,196.43,1222.47,206.72,1218.54,207.47z"/>
	<path class="st39" d="M243.78,212.84c0,0-33.02-3.51-36.76,0C203.28,216.35,212.89,199.72,243.78,212.84z"/>
	<circle class="st32" cx="433.25" cy="112.69" r="3.43"/>
	<circle class="st32" cx="444.23" cy="112.69" r="3.43"/>
	<circle class="st32" cx="422.27" cy="115.44" r="3.43"/>
	<circle class="st32" cx="468.95" cy="118.18" r="3.43"/>
	<path class="st40" d="M1125.21,74.25c0,0-9.95-5.69-15.27,12.26C1109.94,86.51,1123.84,87.98,1125.21,74.25z"/>
	<path class="st37" d="M1147.22,87.29c0,0,0.64,0,2.01,0s1.37-2.75,1.37-2.75l1.47,0.39c1.47-0.98,0-4.97,0-4.97
		c2.84-1.83,2.65-5.04,2.65-5.04s4.22,6.37-1.32,6.62c0,0,1.32,2.99-0.05,4.36l-1.61,0.63c0,0,0.24-0.63,0.24,2.11
		c0,2.75-1.37,2.75-1.37,2.75s1.37,1.37,0,2.75c-1.37,1.37-4.12-1.37-4.12-1.37s2.75,0,2.75-1.37S1147.22,87.29,1147.22,87.29z"/>
	<path class="st37" d="M1143.59,84.54c0,0,0.64,0,2.01,0s1.37-2.75,1.37-2.75l1.47,0.39c1.47-0.98,0-4.97,0-4.97
		c2.84-1.83,2.65-5.04,2.65-5.04s4.22,6.37-1.32,6.62c0,0,1.32,2.99-0.05,4.36l-1.61,0.63c0,0,0.24-0.63,0.24,2.11
		c0,2.75-1.37,2.75-1.37,2.75s1.37,1.37,0,2.75c-1.37,1.37-4.12-1.37-4.12-1.37s2.75,0,2.75-1.37
		C1145.6,87.29,1143.59,84.54,1143.59,84.54z"/>
	<path class="st37" d="M1140.06,96.9c0,0,0.64,0,2.01,0s1.37-2.75,1.37-2.75l1.47,0.39c1.47-0.98,0-4.97,0-4.97
		c2.84-1.83,2.65-5.04,2.65-5.04s4.22,6.37-1.32,6.62c0,0,1.32,2.99-0.05,4.36l-1.61,0.63c0,0,0.24-0.63,0.24,2.11
		c0,2.75-1.37,2.75-1.37,2.75s1.37,1.37,0,2.75c-1.37,1.37-4.12-1.37-4.12-1.37s2.75,0,2.75-1.37S1140.06,96.9,1140.06,96.9z"/>
	<path class="st37" d="M1128.28,84.74c3.76,0.19,2.71-2.75,2.71-2.75c2.36,0.19,1.76-2.94,1.76-2.94s1.37,1.76,1.37,2.94
		s0,1.18,0,1.18s2.75,1.37,1.37,2.75c-1.37,1.37-2.59,0-2.59,0s-0.7,1.27-2.49,0.63C1128.64,85.92,1128.28,84.74,1128.28,84.74z"/>
	<path class="st37" d="M1125.54,81.27c3.76,0.19,2.71-2.75,2.71-2.75c2.36,0.19,1.76-2.94,1.76-2.94s1.37,1.76,1.37,2.94
		s0,1.18,0,1.18s2.75,1.37,1.37,2.75c-1.37,1.37-2.59,0-2.59,0s-0.7,1.27-2.49,0.63C1125.89,82.45,1125.54,81.27,1125.54,81.27z"/>
	<path class="st37" d="M1116.65,116.7c3.26,1.89,3.67-1.21,3.67-1.21c2.01,1.25,2.91-1.81,2.91-1.81s0.42,2.19-0.12,3.24
		c-0.54,1.05-0.54,1.05-0.54,1.05s1.82,2.47-0.03,3.07c-1.85,0.6-2.3-1.18-2.3-1.18s-1.2,0.81-2.51-0.57
		C1116.43,117.91,1116.65,116.7,1116.65,116.7z"/>
	<path class="st37" d="M1128.24,135.82c2.55-2.77,0.09-3.49,0.09-3.49c1.64-1.7-0.65-2.86-0.65-2.86s1.96-0.14,2.68,0.47
		s0.72,0.61,0.72,0.61s2.61-1.38,2.56,0.37c-0.05,1.76-1.68,1.97-1.68,1.97s0.32,1.19-1.23,2.23S1128.24,135.82,1128.24,135.82z"/>
	<path class="st37" d="M1136.48,135.82c2.55-2.77,0.09-3.49,0.09-3.49c1.64-1.7-0.65-2.86-0.65-2.86s1.96-0.14,2.68,0.47
		c0.72,0.61,0.72,0.61,0.72,0.61s2.61-1.38,2.56,0.37c-0.05,1.76-1.68,1.97-1.68,1.97s0.32,1.19-1.23,2.23
		S1136.48,135.82,1136.48,135.82z"/>
	<path class="st37" d="M1144.72,134.45c2.55-2.77,0.09-3.49,0.09-3.49c1.64-1.7-0.65-2.86-0.65-2.86s1.96-0.14,2.68,0.47
		c0.72,0.61,0.72,0.61,0.72,0.61s2.61-1.38,2.56,0.37c-0.05,1.76-1.68,1.97-1.68,1.97s0.32,1.19-1.23,2.23
		C1145.67,134.78,1144.72,134.45,1144.72,134.45z"/>
	<path class="st37" d="M1099.41,160.53c2.55-2.77,0.09-3.49,0.09-3.49c1.64-1.7-0.65-2.86-0.65-2.86s1.96-0.14,2.68,0.47
		c0.72,0.61,0.72,0.61,0.72,0.61s2.61-1.38,2.56,0.37c-0.05,1.76-1.68,1.97-1.68,1.97s0.32,1.19-1.23,2.23
		S1099.41,160.53,1099.41,160.53z"/>
	<path class="st37" d="M1109.02,156.41c2.55-2.77,0.09-3.49,0.09-3.49c1.64-1.7-0.65-2.86-0.65-2.86s1.96-0.14,2.68,0.47
		s0.72,0.61,0.72,0.61s2.61-1.38,2.56,0.37c-0.05,1.76-1.67,1.97-1.67,1.97s0.32,1.19-1.23,2.23
		C1109.97,156.75,1109.02,156.41,1109.02,156.41z"/>
	<path class="st37" d="M1117.26,153.67c2.55-2.77,0.09-3.49,0.09-3.49c1.64-1.7-0.65-2.86-0.65-2.86s1.96-0.14,2.68,0.47
		c0.72,0.61,0.72,0.61,0.72,0.61s2.61-1.38,2.56,0.37c-0.05,1.76-1.68,1.97-1.68,1.97s0.32,1.19-1.23,2.23
		S1117.26,153.67,1117.26,153.67z"/>
	<g>
		<path class="st41" d="M1089.57,151.82c0,0,1.43,0.82,0,5.56"/>
		<path class="st28" d="M1089.57,151.82c0.58,0.12,0.91,0.72,1.08,1.22c0.18,0.52,0.18,1.06,0.16,1.58
			c-0.12,1.02-0.48,1.99-1.23,2.77c-0.12-0.54-0.13-1.03-0.12-1.51c0-0.48,0.05-0.93,0.09-1.38l0.13-1.31
			C1089.68,152.74,1089.76,152.32,1089.57,151.82z"/>
	</g>
	<g>
		<path class="st41" d="M1100.9,145.43c0,0,1.78,1.1,0,5.46"/>
		<path class="st28" d="M1100.9,145.43c0.57,0.09,0.98,0.62,1.18,1.13c0.22,0.52,0.25,1.09,0.21,1.61c-0.07,0.53-0.2,1.03-0.44,1.49
			c-0.23,0.46-0.53,0.88-0.95,1.23c-0.07-0.55-0.04-1.03,0-1.5c0.03-0.47,0.09-0.91,0.13-1.35c0.06-0.43,0.07-0.85,0.09-1.27
			C1101.1,146.36,1101.11,145.93,1100.9,145.43z"/>
	</g>
	<g>
		<path class="st41" d="M1114.42,139.63c0,0,3.84,1.11,0.45,7.68"/>
		<path class="st28" d="M1114.42,139.63c0.78,0,1.56,0.52,1.98,1.25c0.43,0.73,0.54,1.6,0.47,2.39c-0.05,0.39-0.13,0.78-0.23,1.15
			c-0.15,0.36-0.23,0.74-0.43,1.06c-0.34,0.68-0.79,1.29-1.33,1.82c0.08-0.77,0.26-1.47,0.4-2.15c0.14-0.69,0.28-1.35,0.33-2
			c0.08-0.65,0.04-1.27-0.1-1.86C1115.33,140.7,1115,140.13,1114.42,139.63z"/>
	</g>
	<g>
		<path class="st41" d="M1129.34,136.61c0,0,0.65,5.87-1.06,8.82"/>
		<path class="st28" d="M1129.34,136.61c0.34,0.72,0.51,1.48,0.61,2.24c0.11,0.76,0.12,1.53,0.07,2.3c-0.08,0.77-0.2,1.54-0.48,2.28
			c-0.27,0.74-0.65,1.46-1.26,1.99c0.13-0.78,0.21-1.5,0.29-2.22c0.07-0.72,0.13-1.44,0.18-2.16
			C1128.89,139.6,1128.98,138.15,1129.34,136.61z"/>
	</g>
	<g>
		<path class="st41" d="M1145.16,137.57c0,0,1.47,4.48-1.01,6.96"/>
		<path class="st28" d="M1145.16,137.57c0.43,0.51,0.69,1.12,0.86,1.75c0.17,0.63,0.22,1.29,0.18,1.95
			c-0.07,0.66-0.25,1.33-0.58,1.92c-0.34,0.59-0.85,1.09-1.46,1.35c0.23-0.64,0.41-1.17,0.54-1.72c0.1-0.55,0.19-1.1,0.24-1.66
			C1145.04,140.03,1145.02,138.88,1145.16,137.57z"/>
	</g>
	<g>
		<path class="st41" d="M1159.44,139.63c0,0,1.07,5.23-1.48,7.68"/>
		<path class="st28" d="M1159.44,139.63c0.38,0.62,0.59,1.3,0.71,2c0.12,0.7,0.14,1.41,0.05,2.12c-0.11,0.71-0.3,1.42-0.67,2.06
			c-0.37,0.64-0.9,1.2-1.57,1.49c0.29-0.67,0.49-1.26,0.65-1.87c0.14-0.61,0.25-1.23,0.33-1.85c0.1-0.63,0.14-1.27,0.22-1.92
			C1159.23,141,1159.31,140.34,1159.44,139.63z"/>
	</g>
	<g>
		<path class="st41" d="M1172.66,145.43c0,0-0.92,5.84-5.65,7.83"/>
		<path class="st28" d="M1172.66,145.43c0.11,0.87-0.02,1.75-0.26,2.59c-0.23,0.84-0.62,1.64-1.1,2.39
			c-0.49,0.74-1.13,1.39-1.85,1.9c-0.72,0.53-1.58,0.84-2.44,0.95c0.65-0.6,1.27-1.1,1.79-1.71c0.52-0.6,1.03-1.19,1.45-1.86
			C1171.14,148.39,1171.85,146.97,1172.66,145.43z"/>
	</g>
	<g>
		<path class="st41" d="M1174.46,166.5c0,0,1.27,11.03-10.26,17.05"/>
		<path class="st28" d="M1174.46,166.5c0.39,1.74,0.32,3.58-0.03,5.34c-0.35,1.77-1.02,3.5-1.98,5.05
			c-0.98,1.52-2.14,2.96-3.59,4.05c-0.67,0.61-1.48,1.03-2.23,1.51c-0.78,0.43-1.62,0.77-2.43,1.1c0.68-0.58,1.42-1.06,2.08-1.62
			c0.64-0.59,1.34-1.1,1.92-1.74l0.9-0.91l0.81-0.98c0.29-0.31,0.52-0.67,0.76-1.02c0.24-0.35,0.5-0.68,0.7-1.06
			c0.92-1.43,1.58-3,2.11-4.63C1173.98,169.97,1174.32,168.27,1174.46,166.5z"/>
	</g>
	<g>
		<path class="st41" d="M1165.47,158.2c0,0,3.07,8.85-4.87,15.31"/>
		<path class="st28" d="M1165.47,158.2c0.66,1.29,0.99,2.75,1.07,4.21c0.1,1.47-0.1,2.96-0.54,4.38c-0.46,1.41-1.13,2.77-2.09,3.89
			c-0.9,1.17-2.07,2.09-3.31,2.82c0.43-0.6,0.92-1.1,1.33-1.67c0.4-0.58,0.84-1.11,1.17-1.72c0.74-1.16,1.29-2.41,1.69-3.7
			C1165.63,163.83,1165.77,161.05,1165.47,158.2z"/>
	</g>
	<g>
		<path class="st41" d="M1151.38,153.26c0,0,5.57,6.76,0,14.67"/>
		<path class="st28" d="M1151.38,153.26c1,0.89,1.76,2.06,2.29,3.31c0.54,1.26,0.81,2.64,0.81,4.02c-0.02,1.38-0.25,2.78-0.83,4.02
			c-0.23,0.65-0.63,1.21-0.97,1.79c-0.38,0.55-0.84,1.05-1.3,1.54c0.22-0.64,0.53-1.22,0.74-1.83c0.2-0.62,0.46-1.2,0.59-1.82
			c0.35-1.21,0.49-2.46,0.5-3.69C1153.23,158.11,1152.51,155.65,1151.38,153.26z"/>
	</g>
	<g>
		<path class="st41" d="M1138.9,151.82c0,0,5.45,5.42,0,14.04"/>
		<path class="st28" d="M1138.9,151.82c1.05,0.76,1.83,1.88,2.34,3.09c0.52,1.22,0.74,2.57,0.71,3.9c-0.09,1.33-0.38,2.64-0.92,3.83
			c-0.24,0.61-0.61,1.15-0.92,1.71c-0.38,0.52-0.78,1.03-1.21,1.5c0.19-0.62,0.43-1.2,0.65-1.78c0.17-0.6,0.4-1.17,0.55-1.76
			c0.13-0.6,0.32-1.17,0.38-1.77c0.13-0.59,0.15-1.18,0.2-1.77C1140.74,156.39,1140.19,154.02,1138.9,151.82z"/>
	</g>
	<g>
		<path class="st41" d="M1124.98,153.26c0,0,5.06,1.23,1.96,12.6"/>
		<path class="st28" d="M1124.98,153.26c1.22,0.12,2.22,1.14,2.76,2.23c0.57,1.11,0.77,2.35,0.83,3.54c-0.03,0.6-0.02,1.2-0.1,1.79
			c-0.11,0.58-0.14,1.18-0.32,1.74c-0.27,1.15-0.69,2.25-1.22,3.29c0.02-1.19,0.16-2.32,0.24-3.45c0.09-1.13,0.14-2.24,0.13-3.34
			c-0.03-1.09-0.15-2.17-0.47-3.19C1126.51,154.88,1125.99,153.89,1124.98,153.26z"/>
	</g>
	<g>
		<path class="st41" d="M1112.78,156.47c0,0,4.44,2.96,2.25,10.48"/>
		<path class="st28" d="M1112.78,156.47c0.93,0.36,1.68,1.1,2.24,1.93c0.57,0.84,0.92,1.82,1.1,2.82c0.16,1,0.13,2.02-0.05,2.99
			c-0.08,0.49-0.25,0.96-0.39,1.42c-0.2,0.45-0.4,0.9-0.65,1.32c-0.02-0.5,0.01-0.97,0.03-1.44l0.02-1.39
			c-0.03-0.92-0.05-1.81-0.21-2.69C1114.58,159.68,1113.96,158.02,1112.78,156.47z"/>
	</g>
	<g>
		<path class="st41" d="M1099.98,161.71c0,0,4.07,4.63,0.92,9.38"/>
		<path class="st28" d="M1099.98,161.71c0.74,0.49,1.32,1.18,1.78,1.94c0.46,0.76,0.76,1.63,0.89,2.54c0.13,0.9,0.04,1.85-0.26,2.71
			c-0.27,0.87-0.84,1.62-1.49,2.2c0.21-0.87,0.46-1.63,0.52-2.42c0.08-0.78,0.1-1.55-0.03-2.31
			C1101.19,164.82,1100.63,163.32,1099.98,161.71z"/>
	</g>
	<g>
		<path class="st41" d="M1085.53,169.69c0,0,1.51,6.04,0,9.53"/>
		<path class="st28" d="M1085.53,169.69c0.44,0.72,0.72,1.51,0.93,2.31c0.21,0.8,0.32,1.62,0.36,2.45c0.01,0.83-0.02,1.67-0.22,2.49
			c-0.19,0.82-0.51,1.64-1.07,2.28c0.13-1.67,0.08-3.15,0.02-4.73C1085.51,172.93,1085.4,171.36,1085.53,169.69z"/>
	</g>
	<g>
		<path class="st41" d="M1104.81,111.23c0,0,3.41,2.98,10.53-1.22"/>
		<path class="st28" d="M1104.81,111.23c0.91,0.32,1.79,0.41,2.66,0.43c0.87,0.01,1.73-0.11,2.59-0.27c0.86-0.15,1.71-0.4,2.59-0.62
			c0.43-0.15,0.87-0.26,1.32-0.39c0.45-0.14,0.89-0.28,1.38-0.37c-0.33,0.35-0.7,0.66-1.07,0.97c-0.39,0.28-0.8,0.54-1.22,0.78
			c-0.86,0.43-1.77,0.82-2.75,0.98c-0.97,0.18-1.99,0.21-2.97-0.02C1106.36,112.49,1105.39,112.03,1104.81,111.23z"/>
	</g>
	<g>
		<path class="st41" d="M1099.98,121.17c0,0,2.73,2.98,8.49,0"/>
		<path class="st28" d="M1099.98,121.17c1.46,0.6,2.78,0.71,4.15,0.62c0.68-0.03,1.38-0.15,2.09-0.25c0.35-0.07,0.72-0.14,1.09-0.19
			c0.37-0.07,0.74-0.15,1.15-0.17c-0.27,0.3-0.58,0.54-0.89,0.79c-0.33,0.21-0.67,0.42-1.03,0.59c-0.73,0.31-1.51,0.57-2.33,0.6
			c-0.82,0.05-1.66-0.07-2.43-0.4C1101.03,122.43,1100.33,121.9,1099.98,121.17z"/>
	</g>
	<g>
		<path class="st41" d="M1096.62,131.29c0,0,7.45,2.58,11.84-1.83"/>
		<path class="st28" d="M1096.62,131.29c2.15,0.09,4.16,0.2,6.14,0c0.98-0.11,1.94-0.29,2.89-0.58c0.95-0.29,1.84-0.75,2.81-1.25
			c-0.56,0.92-1.39,1.72-2.38,2.24c-0.99,0.52-2.08,0.85-3.18,0.96c-1.1,0.1-2.21,0.03-3.27-0.19
			C1098.58,132.24,1097.54,131.88,1096.62,131.29z"/>
	</g>
	<g>
		<path class="st41" d="M1174.46,200.48c0,0,5.42-0.45,6.23-7.74"/>
		<path class="st28" d="M1174.46,200.48c1.67-0.8,2.92-1.85,3.89-3.15c0.47-0.67,0.89-1.37,1.26-2.14c0.19-0.38,0.34-0.79,0.54-1.19
			c0.17-0.41,0.32-0.83,0.54-1.25c0.08,0.46,0.1,0.92,0.12,1.39c-0.05,0.46-0.06,0.94-0.18,1.39c-0.21,0.92-0.6,1.82-1.17,2.61
			c-0.59,0.78-1.35,1.43-2.22,1.86C1176.37,200.43,1175.4,200.65,1174.46,200.48z"/>
	</g>
	<g>
		<path class="st41" d="M1187.75,202.65c0,0,7.82-0.6,3.53-10.96"/>
		<path class="st28" d="M1187.75,202.65c1.09-0.42,2.04-1,2.74-1.75c0.7-0.75,1.1-1.67,1.27-2.67c0.12-0.49,0.09-1.03,0.13-1.55
			c-0.02-0.53-0.06-1.07-0.11-1.62c-0.1-0.54-0.14-1.1-0.24-1.66c-0.1-0.56-0.21-1.12-0.27-1.71c0.34,0.48,0.62,0.99,0.91,1.51
			c0.26,0.52,0.45,1.09,0.65,1.65c0.18,0.57,0.26,1.17,0.36,1.77c0.02,0.62,0.06,1.23-0.08,1.86c-0.2,1.24-0.89,2.48-1.92,3.23
			C1190.18,202.47,1188.92,202.79,1187.75,202.65z"/>
	</g>
	<g>
		<path class="st41" d="M1203,200.17c0,0,3-9.87-3.07-15.04"/>
		<path class="st28" d="M1203,200.17c0.17-2.73,0.25-5.35-0.11-7.91c-0.19-1.28-0.52-2.51-0.98-3.71c-0.48-1.2-1.18-2.28-1.98-3.41
			c1.18,0.69,2.23,1.7,2.94,2.93c0.71,1.23,1.15,2.6,1.38,3.99c0.17,1.4,0.17,2.8-0.04,4.17
			C1203.99,197.59,1203.63,198.94,1203,200.17z"/>
	</g>
	<g>
		<path class="st41" d="M1210.47,200.48c0,0,7.79-4.47,5.2-14.56"/>
		<path class="st28" d="M1210.47,200.48c1.01-0.98,1.88-2.01,2.62-3.11c0.73-1.11,1.36-2.27,1.75-3.51c0.13-0.3,0.2-0.62,0.29-0.93
			c0.09-0.31,0.18-0.63,0.23-0.95l0.19-0.97c0.03-0.33,0.05-0.66,0.09-0.99c0.1-0.66,0.04-1.33,0.08-2.02
			c0-0.68-0.07-1.36-0.05-2.08c0.27,0.64,0.53,1.3,0.72,1.99c0.12,0.69,0.33,1.39,0.32,2.11c0.14,1.44-0.13,2.9-0.57,4.28
			c-0.47,1.38-1.24,2.66-2.21,3.72C1212.96,199.09,1211.79,199.98,1210.47,200.48z"/>
	</g>
	<path class="st42" d="M1123.38,75.59c0,0-5.8-0.27-11.94,9.15C1111.44,84.74,1116.75,72.13,1123.38,75.59z"/>
	<path class="st43" d="M1155.09,131.16c0,0,14.97,0.39,17.6,8.47C1172.69,139.63,1169.19,135.22,1155.09,131.16z"/>
	<path class="st44" d="M1102.54,139.63c0,0-12.83,3.17-23.57,14.54"/>
	<path class="st44" d="M1106.55,73.39c0,0-8.01,2.1-10.12,1.13c-2.11-0.96-5.11,4.78-5.67,12.21c0,0,2.29-7.68,5.67-7.68
		C1099.81,79.05,1106.55,73.39,1106.55,73.39z"/>
	<path class="st44" d="M1092.21,158.84c0,0-12.11,4.62-13.24,9.1s-1.99,5.57-1.99,5.57S1087.35,158.99,1092.21,158.84z"/>
	<path class="st45" d="M586.84,187.8c0.18,4.96-2.14,7.97-2.25,8.23c0-0.01,0.03-0.1,0.09-0.29c0,0-0.24-0.38-0.68-1.06
		c-5.53-8.2-43.56-59.69-87.75,3.96c-0.06,0.72-0.34,0.8-0.73,0.3c-0.52-0.63-1.25-2.2-2.02-4.48v-0.01
		c-5.32-8.1-13.86-71.81,47.3-74.98C594.45,116.69,586.22,171.05,586.84,187.8z"/>
	<path class="st46" d="M586.84,187.8l-2.85,6.87c-5.53-8.2-43.56-59.69-87.75,3.96c-0.06,0.72-0.34,0.8-0.73,0.3l-2.02-4.48v-0.01
		c0,0,28.22-43.34,45.99-42.71C557.24,152.37,586.84,187.8,586.84,187.8z"/>
	<path class="st47" d="M521.81,120.62l0.69,5.42l9.54,20.14c0,0,3.98-6.05,4.71-8.47c0.72-2.41,0.46-16.79-0.05-15.6
		c-0.51,1.19-3.4,1.36-3.4,1.36s0.85-0.34,1.53-3.57c0.68-3.23-1.19-10.36-1.19-10.36l-1.36,1.53c0,0,0.51-6.12-1.53-11.21
		s2.69-16.84,2.69-16.84s-7.45,0.03-10.68,4.27s-2.72,7.99-2.67,10.57c0.05,2.58,1.82,4.55,1.82,4.55l-3.93-2.44
		c-1.55,3.51,3.14,15.22,3.14,15.22l3.69,6.76C524.8,121.95,522.55,123.7,521.81,120.62z"/>
	<g>
		<path class="st48" d="M528.53,86.95c0,0-8.15-0.68-4.75,12.74s9.95,36.12,9.15,39.55"/>
		<path class="st6" d="M528.53,87c-1.16-0.02-2.34,0.36-3.24,1.09c-0.91,0.72-1.49,1.78-1.81,2.88c-0.57,2.26-0.3,4.65,0.15,6.93
			l0.39,1.71l0.46,1.71l0.93,3.41l1.88,6.82c1.26,4.55,2.57,9.08,3.64,13.69c0.52,2.31,1.04,4.61,1.46,6.94
			c0.37,2.33,0.9,4.68,0.59,7.07c0,0.03-0.03,0.04-0.05,0.04c-0.02,0-0.04-0.02-0.04-0.05l0-0.01l0.02-0.87l-0.1-0.87
			c-0.06-0.58-0.21-1.16-0.3-1.73c-0.23-1.15-0.48-2.3-0.76-3.44c-0.55-2.29-1.12-4.57-1.73-6.85l-3.45-13.72l-1.74-6.86l-0.86-3.43
			l-0.42-1.72l-0.36-1.75c-0.4-2.33-0.62-4.77,0.04-7.1c0.37-1.14,1-2.23,1.97-2.95c0.96-0.73,2.17-1.08,3.36-1.03
			c0.03,0,0.05,0.02,0.05,0.05C528.58,86.98,528.56,87,528.53,87L528.53,87z"/>
	</g>
	<path class="st49" d="M535.02,117.02l-1.37,5.29l1.37,22.24c0,0,5.95-4.14,7.52-6.11c1.57-1.97,6.67-15.41,5.75-14.5
		c-0.91,0.91-3.66,0-3.66,0s0.91,0,2.74-2.74c1.83-2.74,2.74-10.06,2.74-10.06l-1.83,0.91c0,0,2.74-5.49,2.74-10.98
		c0-5.49,8.76-14.64,8.76-14.64s-6.93-2.74-11.5,0c-4.57,2.74-5.49,6.4-6.4,8.82c-0.91,2.42,0,4.9,0,4.9l-2.74-3.72
		c-2.74,2.68-2.74,15.29-2.74,15.29l0.91,7.65C537.31,119.37,534.56,120.16,535.02,117.02z"/>
	<g>
		<path class="st50" d="M553.78,88.27c0,0-7.32-3.66-9.15,10.06c-1.83,13.72-4.18,37.23-6.21,40.11"/>
		<path class="st51" d="M553.76,88.31c-1.07-0.45-2.31-0.54-3.41-0.19c-1.12,0.33-2.04,1.1-2.75,2c-1.37,1.89-2.01,4.2-2.43,6.49
			l-0.28,1.73l-0.21,1.76l-0.41,3.51l-0.79,7.03c-0.52,4.69-0.99,9.39-1.71,14.06c-0.38,2.33-0.75,4.67-1.23,6.98
			c-0.52,2.3-0.91,4.68-2.08,6.79c-0.01,0.02-0.04,0.03-0.06,0.02c-0.02-0.01-0.03-0.04-0.02-0.06l0.01-0.01l0.34-0.8l0.23-0.85
			c0.16-0.56,0.24-1.15,0.36-1.72c0.21-1.15,0.41-2.31,0.57-3.48c0.34-2.33,0.66-4.66,0.94-7l1.89-14.02l0.93-7.02l0.48-3.51
			l0.25-1.75l0.32-1.75c0.49-2.31,1.2-4.66,2.67-6.57c0.76-0.92,1.75-1.7,2.92-2.01c1.16-0.33,2.42-0.2,3.5,0.29
			c0.02,0.01,0.03,0.04,0.02,0.06C553.81,88.31,553.78,88.32,553.76,88.31L553.76,88.31z"/>
	</g>
	<path class="st52" d="M547.55,117.43l-2.81,4.69l-4.95,21.73c0,0,6.87-2.3,8.93-3.75c2.06-1.45,10.74-12.91,9.6-12.29
		s-3.51-1.03-3.51-1.03s0.88,0.26,3.41-1.86s5.47-8.88,5.47-8.88l-2.01,0.36c0,0,4.18-4.49,5.73-9.76
		c1.55-5.27,12.52-11.58,12.52-11.58s-5.87-4.58-11.04-3.24c-5.16,1.35-7.07,4.6-8.63,6.66c-1.56,2.06-1.38,4.7-1.38,4.7l-1.58-4.35
		c-3.39,1.8-6.94,13.9-6.94,13.9l-1.28,7.59C549.08,120.34,546.23,120.32,547.55,117.43z"/>
	<g>
		<path class="st53" d="M573.64,95.13c0,0-5.99-5.57-11.61,7.08c-5.62,12.65-14.5,34.54-17.25,36.74"/>
		<path class="st25" d="M573.61,95.16c-0.9-0.73-2.06-1.17-3.22-1.15c-1.16,0-2.27,0.48-3.21,1.15c-1.85,1.42-3.11,3.47-4.16,5.54
			l-0.75,1.59l-0.7,1.62l-1.38,3.26l-2.74,6.53c-1.82,4.35-3.6,8.73-5.6,13.01c-1.02,2.13-2.03,4.27-3.15,6.36
			c-1.15,2.06-2.19,4.24-3.91,5.93l-0.06-0.07l0.56-0.67l0.46-0.75c0.31-0.49,0.55-1.04,0.83-1.55c0.53-1.05,1.04-2.1,1.53-3.18
			c0.98-2.14,1.95-4.29,2.87-6.45l5.76-12.92l2.87-6.47l1.45-3.23l0.73-1.61l0.8-1.59c1.12-2.08,2.46-4.13,4.42-5.55
			c0.99-0.67,2.16-1.13,3.37-1.1c1.21,0.01,2.37,0.49,3.28,1.27L573.61,95.16z"/>
	</g>
	<circle class="st54" cx="538.26" cy="140.98" r="8.86"/>
	<circle class="st55" cx="537" cy="143.51" r="4.43"/>
	<path class="st56" d="M530.52,142.97c2.38-13.2,13.36-6.98,13.36-6.98L530.52,142.97z"/>
	<path class="st57" d="M561.55,126.25c0,0,11.71,6.4,15.41,16.58c3.7,10.17,5.51,33.27,5.51,33.27s-24.05-30.83-29.38-28.86
		C553.09,147.24,572.81,137.46,561.55,126.25z"/>
	<path class="st58" d="M517.66,128.07c0,0-18.96,12.56-21.64,29.5s-2.68,16.94-2.68,16.94s20.65-39.1,26.77-38.53
		C520.11,135.98,515.41,133.51,517.66,128.07z"/>
</g>
</svg>
