<svg xmlns="http://www.w3.org/2000/svg" viewBox="0 0 1280 424"><defs><style>.cls-1,.cls-2{fill:#fff;stroke:#f9f9f9;}.cls-1,.cls-11,.cls-12,.cls-14,.cls-15,.cls-16,.cls-2,.cls-20,.cls-22,.cls-23,.cls-33,.cls-52,.cls-7{stroke-miterlimit:10;}.cls-1,.cls-12,.cls-13,.cls-14,.cls-15,.cls-16,.cls-17,.cls-18,.cls-33{stroke-width:1.37px;}.cls-2,.cls-23{stroke-width:1.57px;}.cls-3,.cls-4{fill:#498bea;}.cls-3,.cls-47,.cls-9{stroke:#09366d;}.cls-10,.cls-13,.cls-18,.cls-19,.cls-21,.cls-26,.cls-27,.cls-3,.cls-32,.cls-37,.cls-38,.cls-40,.cls-45,.cls-46,.cls-47,.cls-49,.cls-54,.cls-6,.cls-8,.cls-9{stroke-linecap:round;}.cls-10,.cls-13,.cls-17,.cls-18,.cls-19,.cls-21,.cls-26,.cls-27,.cls-3,.cls-32,.cls-37,.cls-38,.cls-40,.cls-45,.cls-46,.cls-47,.cls-49,.cls-54,.cls-6,.cls-8,.cls-9{stroke-linejoin:round;}.cls-3,.cls-45,.cls-47,.cls-49,.cls-52,.cls-54{stroke-width:0.95px;}.cls-5{fill:#09366d;}.cls-46,.cls-6{fill:#64ba09;}.cls-32,.cls-33,.cls-46,.cls-6{stroke:#116b08;}.cls-26,.cls-27,.cls-6{stroke-width:1.33px;}.cls-20,.cls-7{fill:#cf405c;}.cls-20,.cls-52,.cls-7{stroke:#870f2c;}.cls-7{stroke-width:1.33px;}.cls-45,.cls-8{fill:#edac29;}.cls-45,.cls-49,.cls-8{stroke:#845e08;}.cls-10,.cls-19,.cls-20,.cls-21,.cls-22,.cls-8,.cls-9{stroke-width:1.03px;}.cls-9{fill:#184db5;}.cls-10{fill:#f2d249;stroke:#140703;}.cls-11,.cls-14{fill:#ffdc9f;}.cls-11{stroke:#f9f7f7;stroke-width:3px;}.cls-12,.cls-13{fill:#232121;}.cls-12,.cls-13,.cls-14{stroke:#232121;}.cls-15{fill:#9b2405;stroke:#560606;}.cls-16,.cls-17,.cls-18{fill:#630808;stroke:#630808;}.cls-19{fill:#b22f10;}.cls-19,.cls-21{stroke:#6b270a;}.cls-21{fill:#af1238;}.cls-22{fill:#f7bf5c;stroke:#443007;}.cls-23{fill:#191817;stroke:#111010;}.cls-24{fill:#7daef4;}.cls-25{fill:#870f2c;}.cls-26{fill:#ea802a;stroke:#9b5808;}.cls-27{fill:#f7d239;}.cls-27,.cls-37,.cls-38,.cls-40{stroke:#960;}.cls-28{fill:#960;}.cls-29{fill:#116b08;}.cls-30{fill:#ff6490;}.cls-31{fill:#dd4a74;}.cls-32{fill:#3c0;}.cls-32,.cls-37,.cls-40{stroke-width:1.27px;}.cls-33,.cls-36{fill:#278c1c;}.cls-34{fill:#9c6;}.cls-35{fill:#ffe67d;}.cls-37,.cls-38,.cls-41{fill:#ebf43b;}.cls-38{stroke-width:1.27px;}.cls-39{fill:#d34e33;}.cls-40{fill:#f2c33d;}.cls-42{fill:#ffd366;}.cls-43{fill:#a1c518;}.cls-44{fill:#b4d81e;}.cls-46{stroke-width:1.23px;}.cls-47,.cls-48{fill:#3676dd;}.cls-49,.cls-50{fill:#fcdc56;}.cls-51{fill:#845e08;}.cls-52,.cls-53{fill:#e85679;}.cls-54{fill:#159b64;stroke:#086647;}.cls-55{fill:#088248;}.cls-56{fill:#44e29a;}.cls-57{fill:#c48618;}.cls-58{fill:#f4b65b;}</style></defs><g id="Capa_4" data-name="Capa 4"><path class="cls-1" d="M61.18,90.72S44.71,329.61,46.08,336.48s83.75,6.86,92,11l5.49-35.7-61.78-4.11,13-216.83Z"/><path class="cls-1" d="M249.77,206.05s-7.36-64.53-52.67-60.41-44.42,60.41-44.42,60.41h36.19s0-22,11-26.09,11,34.33,11,34.33-53.54,1.37-54.91,50.79,59,42.57,59,42.57v4.11l34.33,2.75C254.77,302.15,249.77,206.05,249.77,206.05Zm-51.29,67.56c-6.87-1.07-17.85-18.14,0-22.25s19.22,11,19.22,11C213.58,274.7,205.34,274.7,198.48,273.61Z"/><polygon class="cls-1" points="409.91 86.6 321.55 86.6 325.67 347.46 359.21 347.46 359.11 232.13 396.18 232.13 397.55 197.81 359.11 199.18 359.11 123.67 409.91 123.18 409.91 86.6"/><polygon class="cls-1" points="462.08 204.68 426.29 204.68 430.5 304.9 465.12 304.9 462.08 204.68"/><circle class="cls-2" cx="444.23" cy="167.61" r="21.97"/><path class="cls-1" d="M560.93,263.71s-1.49,15.5-20,16-24-28.33-24-28.33l83.75-4.12s-4.12-82.38-60.41-79.63-59,75.51-59,75.51-5.49,64.53,56.29,70S598,265.08,598,265.08Zm-20.54-58.94c12.3-2.84,16.42,15,16.42,15H524S528.08,207.61,540.39,204.77Z"/><path class="cls-1" d="M674.59,217l35.31-4.91s-5-44.51-48.84-47.26-45.9,47.26-45.9,47.26.69,32.37,24,46.1,32.95,16.48,31.58,23.34-8.24,6.37-8.24,6.37-11,1.87-13.73-11.86l-33.64,9.51s10.3,39.72,47.37,37.07,42.56-24.61,43.93-35.6-1-32.62-26.57-46.51-30.5-15.48-29.42-28.42,12.06-12.94,17.55-10.19S674.59,217,674.59,217Z"/><polygon class="cls-1" points="761.09 212.12 726.37 212.12 726.37 174.91 761.09 174.91 761.09 100.23 796.39 100.23 796.39 174.91 831.11 174.91 831.11 212.12 796.39 212.12 795.7 318.63 759.91 318.63 761.09 212.12"/><path class="cls-1" d="M926,263.71s-1.5,15.5-20,16-24-28.33-24-28.33l83.75-4.12s-4.12-82.38-60.41-79.63-59,75.51-59,75.51-5.49,64.53,56.29,70S963,265.08,963,265.08Zm-20.54-58.94c12.3-2.84,16.42,15,16.42,15H889S893.11,207.61,905.43,204.77Z"/><path class="cls-1" d="M978.3,170.35,983.8,309h34.42s-1.28-63.16,0-69.33,17.75-36.81,50-35.22V170.35s-17.16-5.49-52.86,15.1l-1.86-15.76Z"/><path class="cls-1" d="M1172.38,204.68s-7.36-64.53-52.66-60.41-44.43,60.41-44.43,60.41h36.19s0-22,11-26.09,11,34.32,11,34.32-53.55,1.38-54.92,50.8,59,42.56,59,42.56v4.12l34.33,2.75C1177.38,300.78,1172.38,204.68,1172.38,204.68Zm-51.29,67.56c-6.87-1.07-17.85-18.14,0-22.26s19.22,11,19.22,11C1136.19,273.32,1128,273.32,1121.09,272.24Z"/></g><g id="Capa_5" data-name="Capa 5"><path class="cls-3" d="M484.89,145.41l2.26,5,15,16.44s2-7,2-9.47-4.5-16.18-4.64-14.9-2.84,2.3-2.84,2.3.71-.57.41-3.86-4.19-9.55-4.19-9.55l-.85,1.86a28.34,28.34,0,0,0-4.76-10.27c-3.45-4.27-2.38-16.89-2.38-16.89s-7.11,2.22-8.95,7.23-.25,11,.56,13.41a2.09,2.09,0,0,0,3.08,1.29l-4.48-1.18c-.45,3.81,7.47,13.62,7.47,13.62l5.52,5.38S486.5,148.13,484.89,145.41Z"/><path class="cls-4" d="M481.42,111.25s-8,1.75-.79,13.58c6.68,11,20.63,39.18,20.36,35.11"/><path class="cls-5" d="M481.43,111.3a5.13,5.13,0,0,0-2.81,2,5.53,5.53,0,0,0-.85,3.34,15.54,15.54,0,0,0,2.26,6.65c2.48,4.07,4.87,8.24,7.18,12.42s4.67,8.34,6.89,12.57l3.34,6.34c.56,1.06,1.13,2.11,1.72,3.14.29.52.58,1,.9,1.54a6.16,6.16,0,0,0,.52.71.62.62,0,0,0,.29.24c.05,0,.08-.2.07-.33s0,0,.05-.05a.05.05,0,0,1,.05.05,1.69,1.69,0,0,1,0,.23.24.24,0,0,1-.17.24c-.22,0-.31-.16-.43-.25a7.8,7.8,0,0,1-.6-.69c-.37-.47-.72-1-1.06-1.46-.66-1-1.29-2-1.92-3-1.24-2.05-2.41-4.14-3.6-6.22-2.33-4.17-4.49-8.44-6.73-12.66s-4.52-8.4-6.93-12.55a15.86,15.86,0,0,1-2.12-6.87,5.74,5.74,0,0,1,1-3.46,5.36,5.36,0,0,1,3-2,.05.05,0,0,1,.06,0S481.46,111.29,481.43,111.3Z"/><path class="cls-3" d="M484,127.07l1.7,5.19,13.18,18s2.77-6.7,3-9.2-2.72-16.57-3-15.31-3.08,2-3.08,2,.77-.49.83-3.79-3.14-10-3.14-10l-1,1.76A28.39,28.39,0,0,0,488.85,105c-2-3-1.55-11.87-.55-17,0,0-7.31,1.44-9.67,6.22s-1.16,8.35-.62,10.88a7.82,7.82,0,0,0,2.65,4.13l-4.32-1.65c-.86,3.73,6,14.34,6,14.34l4.9,5.94S485.32,130,484,127.07Z"/><path class="cls-4" d="M484.24,92.74s-8.14.88-2.26,13.41c6.14,13.08,16.36,39.79,16.47,37.1"/><path class="cls-5" d="M484.24,92.79a5.17,5.17,0,0,0-3,1.68A5.5,5.5,0,0,0,480,97.68a15.15,15.15,0,0,0,1.49,6.81c2,4.28,4,8.62,5.86,13s3.81,8.7,5.59,13.1l2.64,6.61,1.34,3.29c.22.55.45,1.1.69,1.64.12.27.24.54.38.8a3.73,3.73,0,0,0,.23.37.29.29,0,0,0,.12.11.32.32,0,0,0,0-.13h0a0,0,0,0,1,.05-.05s.05,0,.05,0v0c0,.06,0,.18-.13.24s-.17-.09-.23-.15a3.07,3.07,0,0,1-.27-.36c-.17-.25-.32-.51-.47-.77-.29-.52-.57-1.05-.85-1.57-.53-1.07-1-2.14-1.55-3.22-1-2.15-1.95-4.33-2.91-6.5-1.89-4.36-3.61-8.78-5.41-13.17s-3.69-8.73-5.6-13.09a15.68,15.68,0,0,1-1.34-7,5.75,5.75,0,0,1,1.36-3.3,5.32,5.32,0,0,1,3.13-1.66,0,0,0,0,1,0,0S484.27,92.78,484.24,92.79Z"/><path class="cls-3" d="M494.38,123.29l1,5.38L506,148.25s3.64-6.26,4.23-8.71-.47-16.79-.91-15.57-3.32,1.54-3.32,1.54.83-.38,1.33-3.64-1.76-10.28-1.76-10.28l-1.27,1.6a28.35,28.35,0,0,0-2.15-11.11c-2.32-5,1.76-14.44,1.76-14.44s-7.44-2.09-10.43,2.33-2.27,8.12-2.08,10.7a7.74,7.74,0,0,0,2.07,4.44l-4.06-2.22c-1.36,3.59,4,15,4,15l4.06,6.55S495.29,126.33,494.38,123.29Z"/><path class="cls-4" d="M499.24,91.84s-8.18-.23-4.05,13,11.93,35.52,11.32,39"/><path class="cls-5" d="M499.24,91.89a5,5,0,0,0-3.18,1.26,5.7,5.7,0,0,0-1.65,3A15.84,15.84,0,0,0,495,103l.48,1.69.55,1.68,1.11,3.36,2.26,6.71c1.5,4.47,3.06,8.93,4.39,13.47.64,2.27,1.29,4.54,1.83,6.85a24.87,24.87,0,0,1,1,7,0,0,0,0,1-.05,0,0,0,0,0,1,0,0v0l0-.87-.15-.87c-.09-.57-.27-1.14-.4-1.71-.29-1.14-.6-2.27-.95-3.39q-1-3.39-2.1-6.75l-4.21-13.5L496.51,110l-1.05-3.38-.52-1.69-.45-1.73a16,16,0,0,1-.35-7.09,5.82,5.82,0,0,1,1.8-3,5.19,5.19,0,0,1,3.3-1.22,0,0,0,0,1,.05,0s0,0-.05,0Z"/><path class="cls-3" d="M503.4,112.53l0,5.47,6.85,21.2s4.73-5.48,5.76-7.78,2.64-16.58,2-15.47-3.54.91-3.54.91.88-.23,2-3.34.17-10.43.17-10.43L515,104.43A28.4,28.4,0,0,0,515,93.11c-.17-.68,3.67-14.24,4.85-16.35,0,0-7.39-.94-11.14,2.85s-3.73,7.57-4,10.13a7.82,7.82,0,0,0,1.22,4.75l-3.58-2.93c-2,3.28,1.13,15.5,1.13,15.5l2.78,7.18S503.74,115.68,503.4,112.53Z"/><path class="cls-4" d="M514.44,80s-8-1.73-6.37,12c2.24,18.89,4.57,38.71,3.94,40.4"/><path class="cls-5" d="M514.43,80.07a5.08,5.08,0,0,0-3.35.65,5.68,5.68,0,0,0-2.17,2.62,15.86,15.86,0,0,0-.75,6.88c.18,2.33.57,4.68.84,7l.89,7c.6,4.68,1.23,9.35,1.66,14,.2,2.35.41,4.7.54,7.06.06,1.18.13,2.36.15,3.54a17.05,17.05,0,0,1-.19,3.56s0,0,0,0,0,0,0-.05v0a17.07,17.07,0,0,0-.15-3.49c-.11-1.17-.24-2.34-.38-3.51l-.82-7c-.55-4.68-1-9.38-1.47-14.06l-.75-7c-.23-2.35-.57-4.66-.7-7a16,16,0,0,1,1-7A5.84,5.84,0,0,1,511,80.56a5.15,5.15,0,0,1,3.46-.58s0,0,0,0,0,0,0,0Z"/><path class="cls-3" d="M514.37,110.22l-.53,5.44,4.81,21.76s5.23-5,6.48-7.2S529.31,114,528.55,115s-3.61.57-3.61.57.9-.14,2.28-3.14,1.15-10.37,1.15-10.37l-1.67,1.19a28.41,28.41,0,0,0,1-11.27c0,.08,5.5-14.57,6.37-15.82,0,0-7.27-1.64-11.36,1.79s-4.43,7.18-5,9.71a7.81,7.81,0,0,0,.77,4.84l-3.29-3.25c-2.3,3.07-.34,15.53-.34,15.53l2.1,7.41S514.41,113.39,514.37,110.22Z"/><path class="cls-4" d="M528.43,78.9s-7.8-2.48-7.48,11.37c.48,20.28,1.51,37.73.11,40.59"/><path class="cls-5" d="M528.41,79a5,5,0,0,0-3.4.34,5.62,5.62,0,0,0-2.4,2.4,15.6,15.6,0,0,0-1.4,6.79v1.75l.06,1.77.13,3.54.28,7.07c.2,4.71.46,9.42.5,14.15,0,2.36,0,4.72-.09,7.09-.06,1.18-.12,2.36-.24,3.54a12.3,12.3,0,0,1-.75,3.49,0,0,0,0,1-.06,0,.06.06,0,0,1,0-.06h0a12.26,12.26,0,0,0,.4-3.47c0-1.18,0-2.35,0-3.53,0-2.35-.1-4.71-.19-7.06-.16-4.71-.21-9.43-.31-14.15l-.14-7.08L520.72,92l0-1.77,0-1.78a16.07,16.07,0,0,1,1.62-6.91,5.94,5.94,0,0,1,2.57-2.44,5.18,5.18,0,0,1,3.51-.25,0,0,0,0,1,0,0s0,0-.05,0Z"/><path class="cls-3" d="M529.28,109.31l-1,5.39,3.07,22.07s5.61-4.58,7-6.67,5.48-15.87,4.63-14.89-3.65.28-3.65.28.92-.07,2.53-2.95,2-10.24,2-10.24l-1.75,1A28.35,28.35,0,0,0,544,92.19c.05.71,7.14-14.68,7.61-15.26,0,0-7.11-2.21-11.47.88s-5,6.8-5.71,9.28a7.79,7.79,0,0,0,.37,4.89l-3-3.51c-2.53,2.89-1.57,15.46-1.57,15.46l1.5,7.56S529.06,112.48,529.28,109.31Z"/><path class="cls-4" d="M545.79,79.21s-7.58-3.09-8.36,10.74c-1.2,21.28-.91,36.73-3.13,40.47"/><path class="cls-5" d="M545.77,79.26a5,5,0,0,0-3.42.07,5.57,5.57,0,0,0-2.59,2.21,15.81,15.81,0,0,0-1.93,6.66c-.34,4.68-.44,9.42-.6,14.13s-.2,9.44-.49,14.16c-.18,2.36-.33,4.72-.63,7.07s-.6,4.77-1.77,6.88a0,0,0,0,1-.06,0s0,0,0-.06h0a11.89,11.89,0,0,0,.85-3.39c.15-1.16.26-2.33.34-3.5.16-2.35.26-4.7.34-7.06.17-4.71.43-9.43.68-14.14s.44-9.43.89-14.16a16,16,0,0,1,2.16-6.76,5.83,5.83,0,0,1,2.77-2.23,5.19,5.19,0,0,1,3.52,0,0,0,0,0,1,0,.06s0,0-.06,0Z"/><path class="cls-3" d="M541.54,106.38l-2.26,5-2.49,22.14s6.57-3.05,8.46-4.72,9.22-14,8.16-13.29-3.6-.63-3.6-.63.9.16,3.18-2.23,4.44-9.44,4.44-9.44l-2,.59a28.37,28.37,0,0,0,4.59-10.35c1-5.4,11.15-10.37,11.15-10.37s-6.34-6.43-11.32-4.52-6.52,5.36-7.83,7.59a7.79,7.79,0,0,0-.85,4.83l-2.06-4.15C546,89,543.81,101.4,543.81,101.4l-.42,7.69S540.55,109.39,541.54,106.38Z"/><path class="cls-4" d="M565,81.29s-6.58-4.87-10.75,8.34c-7.29,23.06-7.43,32.83-13,38.44"/><path class="cls-5" d="M565,81.33a5.13,5.13,0,0,0-3.34-.79,5.44,5.44,0,0,0-3.06,1.52,15.16,15.16,0,0,0-3.52,6c-1.49,4.47-2.73,9.06-3.95,13.62s-2.22,9.2-3.52,13.77a59.26,59.26,0,0,1-2.32,6.76,21.42,21.42,0,0,1-1.69,3.17,14.77,14.77,0,0,1-2.32,2.72,0,0,0,1,1-.07-.07,18.46,18.46,0,0,0,3.47-6.07,67.41,67.41,0,0,0,2-6.76q1.75-6.87,3.71-13.72c1.31-4.56,2.64-9.1,4.23-13.59a15.53,15.53,0,0,1,3.78-6,5.64,5.64,0,0,1,3.23-1.5,5.3,5.3,0,0,1,3.42.9,0,0,0,1,1-.06.08Z"/><path class="cls-3" d="M554.2,111.76l-2.13,5L550.19,139s6.48-3.23,8.32-4.95,8.85-14.27,7.81-13.5-3.62-.53-3.62-.53.9.13,3.11-2.32,4.19-9.56,4.19-9.56l-2,.64a28.35,28.35,0,0,0,4.32-10.46c.8-5.43,10.8-10.67,10.8-10.67s-6.45-6.26-11.38-4.21-6.36,5.53-7.62,7.79a7.79,7.79,0,0,0-.72,4.85L561.28,92c-3.11,2.25-4.95,14.72-4.95,14.72l-.21,7.7S553.29,114.8,554.2,111.76Z"/><path class="cls-4" d="M577,88.58s-6.7-4.69-10.52,8.62-9.57,36.22-12,38.78"/><path class="cls-5" d="M576.93,88.62a5.07,5.07,0,0,0-3.35-.69,5.65,5.65,0,0,0-3,1.58,15.63,15.63,0,0,0-3.35,6.06l-.53,1.68-.47,1.7-.92,3.42-1.8,6.84c-1.21,4.57-2.36,9.15-3.74,13.66-.72,2.25-1.42,4.51-2.24,6.73a24.89,24.89,0,0,1-3,6.42s0,0-.06,0a0,0,0,0,1,0-.06h0l.46-.74.35-.81c.24-.53.41-1.1.61-1.65.38-1.11.74-2.23,1.07-3.36.68-2.25,1.34-4.51,2-6.79L562.76,109l2-6.8,1-3.4.5-1.7.57-1.69a16,16,0,0,1,3.6-6.12,5.94,5.94,0,0,1,3.19-1.56,5.21,5.21,0,0,1,3.42.8.07.07,0,0,1,0,.07,0,0,0,0,1-.07,0Z"/><path class="cls-3" d="M562,114.5,558.87,119l-6.18,21.41s7-1.9,9.13-3.23,11.46-12.28,10.29-11.72-3.45-1.23-3.45-1.23.87.31,3.51-1.66,6-8.56,6-8.56l-2,.25a28.47,28.47,0,0,0,6.28-9.42c1.84-5.17,13.16-5.78,13.16-5.78s-5.6-10-10.83-8.93-7.32,4.19-9,6.16a7.77,7.77,0,0,0-1.64,4.61l-1.34-4.43C569.26,98.09,565,110,565,110l-1.71,7.51S560.46,117.3,562,114.5Z"/><path class="cls-4" d="M589.28,98.78s-5.67-11-12,1.34-16.46,33.66-19.34,35.7"/><path class="cls-5" d="M589.23,98.8A11.76,11.76,0,0,0,587.06,96,5.32,5.32,0,0,0,584,94.45a4.33,4.33,0,0,0-3.16,1.14,11.88,11.88,0,0,0-2.24,2.69c-1.21,2-2.19,4.21-3.27,6.33L572.19,111c-2.1,4.29-4.13,8.61-6.4,12.82-1.15,2.09-2.3,4.19-3.53,6.24-.63,1-1.27,2-1.94,3-.35.49-.7,1-1.08,1.44a6.47,6.47,0,0,1-1.27,1.29,0,0,0,0,1-.06-.07h0a12.84,12.84,0,0,0,2-2.89c.6-1,1.17-2.07,1.73-3.12,1.11-2.11,2.2-4.22,3.27-6.35,2.15-4.26,4.39-8.47,6.57-12.71l3.27-6.37c1.12-2.11,2.13-4.26,3.42-6.31a12.44,12.44,0,0,1,2.39-2.73A4.67,4.67,0,0,1,584,94.17a5.56,5.56,0,0,1,3.16,1.7,12.07,12.07,0,0,1,2.13,2.89,0,0,0,0,1,0,.06S589.25,98.83,589.23,98.8Z"/><path class="cls-3" d="M570.8,119.56l-3.07,4.52-6.18,21.41s7-1.9,9.13-3.23S582.14,130,581,130.54s-3.45-1.23-3.45-1.23.86.31,3.51-1.66a38.9,38.9,0,0,1,6-3.5l-2-4.81s4.43.81,6.27-4.36,13.17-10.84,13.17-10.84-5.6-4.91-10.83-3.86-7.32-.88-9,1.09a7.83,7.83,0,0,0-1.65,4.62l-1.33-4.44c-3.48,1.6-7.72,13.48-7.72,13.48l-1.71,7.51S569.32,122.36,570.8,119.56Z"/><path class="cls-4" d="M598.13,101.31s-5.66-11-12,1.34c-11.8,22.93-11,29.79-19.33,35.7"/><path class="cls-5" d="M598.09,101.33a12,12,0,0,0-2.19-2.81A5.3,5.3,0,0,0,592.82,97a4.38,4.38,0,0,0-3.17,1.19,12.22,12.22,0,0,0-2.23,2.72,35.16,35.16,0,0,0-1.69,3.15l-1.57,3.24q-1.54,3.24-3,6.53c-1.95,4.39-3.61,8.88-5.57,13.28a38.63,38.63,0,0,1-3.48,6.37,19.07,19.07,0,0,1-2.41,2.74,20.25,20.25,0,0,1-2.88,2.19,0,0,0,0,1-.07,0,.06.06,0,0,1,0-.06,20.56,20.56,0,0,0,4.8-5.23,40.71,40.71,0,0,0,3.16-6.38c1.83-4.42,3.71-8.85,5.75-13.21q1.51-3.27,3.13-6.49l1.64-3.21a34,34,0,0,1,1.78-3.16,12.29,12.29,0,0,1,2.38-2.76,4.74,4.74,0,0,1,3.43-1.18,5.52,5.52,0,0,1,3.19,1.7,11.94,11.94,0,0,1,2.15,2.9.07.07,0,0,1,0,.07A.05.05,0,0,1,598.09,101.33Z"/><path class="cls-3" d="M581.26,125.69l-3.61,4.1-8.83,20.46s7.17-1,9.46-2.05,12.91-5.68,11.68-5.27-3.26-1.66-3.26-1.66.82.41,3.69-1.21,7-7.73,7-7.73h-2a28.4,28.4,0,0,0,7.41-8.56c2.48-4.89,14.43-9.09,14.43-9.09s-4.94-5.58-10.26-5.2-7.79,3.23-9.7,5a7.73,7.73,0,0,0-2.21,4.37l-.77-4.56c-3.66,1.15-9.36,7.34-9.36,7.34l-2.64,7.23S579.44,128.28,581.26,125.69Z"/><path class="cls-4" d="M612.26,113.58s-4.88-6.57-12.71,4.84c-15.15,22.06-13.26,22.36-23.68,27.91"/><path class="cls-5" d="M612.22,113.61a5,5,0,0,0-5.92-1.35,13.39,13.39,0,0,0-5,4.16c-1.37,1.71-2.52,3.61-3.76,5.44l-3.63,5.55-3.58,5.6c-1.2,1.86-2.41,3.72-3.78,5.49a21.08,21.08,0,0,1-4.82,4.7,41,41,0,0,1-5.86,3.18.05.05,0,0,1-.07,0s0,0,0-.06a63.14,63.14,0,0,0,5.51-3.63,21.77,21.77,0,0,0,4.46-4.73c2.56-3.56,5-7.28,7.5-10.93l3.75-5.48c1.29-1.79,2.47-3.67,3.91-5.39A13.77,13.77,0,0,1,606.2,112a5.4,5.4,0,0,1,3.32-.25,5.24,5.24,0,0,1,2.77,1.8,0,0,0,0,1,0,.07.06.06,0,0,1-.07,0Z"/><path class="cls-3" d="M588.86,141.93l-3.62-1-8.83,20.46s7.17-1,9.46-2.05,12.92-10.74,11.69-10.33-3.27-1.66-3.27-1.66.82.42,3.69-1.21a34.18,34.18,0,0,1,7-2.67h-2.05a28.44,28.44,0,0,0,7.41-8.55c2.49-4.9,14.43-14.16,14.43-14.16a65.9,65.9,0,0,0-10.26-.14c-5.32.38-7.79,3.23-9.7,5A7.77,7.77,0,0,0,602.6,130l-.77-4.57c-3.66,1.15-9.36,12.4-9.36,12.4l-2.64,7.23S587,144.52,588.86,141.93Z"/><path class="cls-4" d="M622.38,118.44s-4.87-1.52-12.71,9.9c-15.14,22-13.25,22.36-23.67,27.91"/><path class="cls-5" d="M622.37,118.48a5.64,5.64,0,0,0-3.21.64,14.78,14.78,0,0,0-2.8,1.82,28.2,28.2,0,0,0-4.56,4.89c-1.37,1.77-2.59,3.65-3.83,5.52L604.28,137l-3.63,5.68c-1.22,1.89-2.45,3.78-3.82,5.58a21.54,21.54,0,0,1-4.86,4.81,39.87,39.87,0,0,1-6,3.23,0,0,0,0,1,0-.08,62.87,62.87,0,0,0,5.59-3.7,22.42,22.42,0,0,0,4.49-4.83c2.59-3.62,5.07-7.39,7.61-11.1l3.82-5.55c1.28-1.84,2.54-3.72,4-5.47a28.51,28.51,0,0,1,4.75-4.82,14.24,14.24,0,0,1,2.88-1.78,5.67,5.67,0,0,1,3.31-.57s.05,0,0,.06a0,0,0,0,1,0,0Z"/><path class="cls-3" d="M478.3,159l2.82,4.69L498,178.23s1.2-7.15.89-9.65-6.35-15.54-6.33-14.25-2.56,5.15-2.56,5.15a18,18,0,0,0,0-6.41c-.68-3.23-5.27-9-5.27-9L484,146a28.38,28.38,0,0,0-5.92-9.64c-3.92-3.84-4.33-16.5-4.33-16.5s-6.81,3-8,8.22.73,8.4,1.82,10.75a7.78,7.78,0,0,0,3.5,3.42l-4.58-.64c0,3.84,9,12.66,9,12.66l6.1,4.7S480.22,161.49,478.3,159Z"/><path class="cls-4" d="M470.88,125.45s-7.74,2.66.79,13.57c6.87,8.81,25.31,37.89,24.31,32.51"/><path class="cls-5" d="M470.89,125.49a5.18,5.18,0,0,0-2.57,2.36,5.61,5.61,0,0,0-.43,3.45,15.84,15.84,0,0,0,3.08,6.38c3,3.78,5.77,7.74,8.54,11.68s5.57,7.87,8.27,11.85c1.34,2,2.71,4,4.08,6,.68,1,1.38,2,2.1,2.92.36.48.73,1,1.13,1.4a2.89,2.89,0,0,0,.65.57c.25.18.24-.27.2-.54,0,0,0-.05,0-.05a.05.05,0,0,1,0,0,1.75,1.75,0,0,1,.05.46.29.29,0,0,1-.13.26.36.36,0,0,1-.29,0,3,3,0,0,1-.76-.55c-.45-.41-.86-.86-1.27-1.31-.8-.91-1.55-1.85-2.3-2.8-1.49-1.9-2.9-3.87-4.32-5.82-2.81-3.92-5.44-8-8.13-12s-5.39-8-8.3-11.83a16.17,16.17,0,0,1-3-6.61,5.71,5.71,0,0,1,.54-3.59,5.26,5.26,0,0,1,2.71-2.36,0,0,0,0,1,.06,0A0,0,0,0,1,470.89,125.49Z"/><path class="cls-6" d="M938,135.29s11.68-31.54-2.66-29.62-22.44,22.17-22.44,22.17,12.58,16.93,17.94,18.08S938,135.29,938,135.29Z"/><path class="cls-7" d="M849.55,202.06s-7.17-9.74-7.17-15.23,18.83-28.83,31.38-33,27.43-8,31.66-7.46,7,7.46,7,7.46S863.58,172,849.55,202.06Z"/><path class="cls-8" d="M465.42,91.88s-1.29-5.49,2.6-5.49,3.88,4.12,3.88,4.12,3.33-4.12,4.91-1.37,0,5.62-1.14,6.24,1.59,2.73-1.09,5.11a3.72,3.72,0,0,1-5.14,0s-4.85,2.48-6.38,1.06,0-6.12,0-6.12-2.82-2.61-1.52-3.77S465.42,91.88,465.42,91.88Z"/><path class="cls-8" d="M452.47,90.51S451.17,85,455.06,85,459,89.14,459,89.14s3.33-4.12,4.9-1.37,0,5.61-1.13,6.24,1.59,2.73-1.09,5.11a3.74,3.74,0,0,1-5.15,0s-4.84,2.48-6.37,1,0-6.11,0-6.11-2.82-2.62-1.53-3.77S452.47,90.51,452.47,90.51Z"/><path class="cls-8" d="M439.51,87.77s-1.29-5.5,2.6-5.5S446,86.39,446,86.39s3.33-4.12,4.91-1.37,0,5.62-1.14,6.24,1.59,2.73-1.09,5.11a3.72,3.72,0,0,1-5.14,0s-4.85,2.48-6.38,1.06,0-6.12,0-6.12-2.82-2.61-1.52-3.77S439.51,87.77,439.51,87.77Z"/><path class="cls-8" d="M426.56,90.51S425.26,85,429.15,85,433,89.14,433,89.14s3.33-4.12,4.9-1.37.05,5.61-1.13,6.24,1.59,2.73-1.09,5.11a3.74,3.74,0,0,1-5.15,0s-4.84,2.48-6.37,1,0-6.11,0-6.11-2.82-2.62-1.53-3.77S426.56,90.51,426.56,90.51Z"/><path class="cls-8" d="M416.2,93.26s-1.3-5.49,2.59-5.49,3.88,4.11,3.88,4.11,3.33-4.11,4.91-1.37,0,5.62-1.14,6.24,1.59,2.73-1.09,5.11a3.72,3.72,0,0,1-5.14,0s-4.85,2.48-6.37,1.06,0-6.11,0-6.11S411,94.19,412.31,93,416.2,93.26,416.2,93.26Z"/><path class="cls-9" d="M465.42,102.87s-1.29-5.49,2.6-5.49,3.88,4.11,3.88,4.11,3.33-4.11,4.91-1.37,0,5.62-1.14,6.24,1.59,2.73-1.09,5.11a3.72,3.72,0,0,1-5.14,0s-4.85,2.48-6.38,1.06,0-6.11,0-6.11-2.82-2.62-1.52-3.77S465.42,102.87,465.42,102.87Z"/><path class="cls-9" d="M452.47,101.49S451.17,96,455.06,96s3.89,4.12,3.89,4.12,3.33-4.12,4.9-1.37,0,5.62-1.13,6.24,1.59,2.73-1.09,5.11a3.73,3.73,0,0,1-5.15,0s-4.84,2.48-6.37,1.06,0-6.12,0-6.12-2.82-2.61-1.53-3.77S452.47,101.49,452.47,101.49Z"/><path class="cls-9" d="M439.51,98.75s-1.29-5.49,2.6-5.49S446,97.38,446,97.38s3.33-4.12,4.91-1.38,0,5.62-1.14,6.24,1.59,2.74-1.09,5.11a3.72,3.72,0,0,1-5.14,0s-4.85,2.49-6.38,1.06,0-6.11,0-6.11-2.82-2.62-1.52-3.77S439.51,98.75,439.51,98.75Z"/><path class="cls-9" d="M426.56,101.49S425.26,96,429.15,96s3.89,4.12,3.89,4.12,3.33-4.12,4.9-1.37.05,5.62-1.13,6.24,1.59,2.73-1.09,5.11a3.73,3.73,0,0,1-5.15,0s-4.84,2.48-6.37,1.06,0-6.12,0-6.12-2.82-2.61-1.53-3.77S426.56,101.49,426.56,101.49Z"/><path class="cls-9" d="M416.2,104.24s-1.3-5.49,2.59-5.49,3.88,4.12,3.88,4.12,3.33-4.12,4.91-1.38,0,5.62-1.14,6.25,1.59,2.73-1.09,5.11a3.73,3.73,0,0,1-5.14,0s-4.85,2.48-6.37,1.05,0-6.11,0-6.11-2.83-2.62-1.53-3.77S416.2,104.24,416.2,104.24Z"/><path class="cls-10" d="M464,143.71l2.83-24.16s-27.59-8.38-46.19,1.3l3.39,25Z"/><path class="cls-11" d="M316.55,191c-6.87,17.84-28.83,16.47-39.13,11.05-9.13-4.81-25.76-9.8-29.38-10.87l-.71-.21-1.61-5.62-.7-2.43-1-3.51-.22-.77c-.81,0-6,1.54-13.12,3.79l-.29.1c-17.09,5.4-44.92,14.78-49.74,16.7-6.87,2.75-86.5,12.36-82.38-31.57,3.93-41.84,56.39-28.9,61.4-27.56l.38.1.2-.4c1.26-2.68,8.77-18.37,13.19-24.86.15-.24.3-.44.44-.64a14.51,14.51,0,0,1,1.28-1.56,3.77,3.77,0,0,1,1.74-.73c2.66-.63,7.85-.82,14.29-.73h.25c.6,0,1.22,0,1.85,0,13.76.31,32.2,1.81,44.18,3.33a.42.42,0,0,1,.11,0c2.78.35,5.21.71,7.14,1.05a20.7,20.7,0,0,1,4.58,1.13,6.82,6.82,0,0,1,2.21,2.35,14.59,14.59,0,0,1,.83,1.33c5.74,9.77,13.43,34.76,13.43,34.76a31.45,31.45,0,0,1,3.89-.93h0c.47-.09,1-.18,1.56-.26a59.77,59.77,0,0,1,23.36,1.19C311.06,159.37,323.41,173.1,316.55,191Z"/><path class="cls-12" d="M316.55,191c-6.87,17.84-28.83,16.47-39.13,11.05-9.13-4.81-25.76-9.8-29.38-10.87l-1.51-4.3s34.32,12.35,38.44,13.73c3.1,1,17.08-.26,20.88-7.4,1.27-2.35,1.42-5.33-.28-9.08a31.43,31.43,0,0,0-4.05-6.71,19.48,19.48,0,0,0-6.06-5.07c-5.82-3.1-12.71-2.77-20.1-2a52.46,52.46,0,0,0-5.56,1c-3,.7-6.47,1.68-10.1,2.8s-7.71,2.43-11.5,3.74l-4.2,1.44-.22-.77c-.81,0-6,1.55-13.18,3.8l-.23.09c-17.09,5.4-44.92,14.78-49.74,16.7-6.87,2.75-86.5,12.36-82.38-31.57,3.93-41.84,56.39-28.9,61.4-27.56l.38.1.2-.4a3.38,3.38,0,0,1-.2,1.77,3.62,3.62,0,0,1-1.09,1.43,1.26,1.26,0,0,1-1.65-.06c-50.8-12.35-59,20.6-50.8,38.45,6.89,14.92,32,17.36,52.12,17,3.92-.09,7.66-.27,11-.5a52.08,52.08,0,0,0,7-1l.18,0A128.54,128.54,0,0,0,197.67,190l0,0a.19.19,0,0,0,.11,0l.3-.12c1.17-.48,2.35-1,3.51-1.49l.28-.12c3.64-1.58,7.23-3.25,10.68-4.94a191.41,191.41,0,0,0,21.25-12l.14-.09c1.21-.82,2.2-1.55,2.94-2.17a54.64,54.64,0,0,1,11.79-6.89c4.53-2.06,9-3.68,11.66-4.6l1.43-.48,1.2-.39,8.22-2.56a59.77,59.77,0,0,1,23.36,1.19C311.06,159.37,323.41,173.1,316.55,191Z"/><path class="cls-13" d="M243.78,178.59s39.82-19.22,56.29,4.12-54.36,2.6-54.36,2.6l-.7-2.44s46.83,13.57,48.2,5.33S287.1,171.62,243.78,178.59Z"/><path class="cls-12" d="M234,171.15s-65.72,15.68-79.45-9c0,0-1.37-1.93,1.38-3.71,0,0-16.48-.4-8.24,10.58S184,187.73,218,182.48Z"/><path class="cls-12" d="M158.66,153.88s-26.08,0-24.71,13.73,41.2,21.88,68,20.55L197.66,190c2.31-.45-62.56,4.07-67.83-22.34,0,0,1.37-17.85,30.2-15.11"/><path class="cls-12" d="M160,147s-23.34-4.69-37.06,5.21-1.38,29.12,8.23,34.61,22.72,8.81,45.69,9.9l-10,2.45s-36-2.51-46.68-13.73c-9.52-10-16.47-23.33,0-35.69,18.27-13.72,41.29-3.86,41.29-3.86"/><path class="cls-12" d="M176.89,112c30.56,23.49,74.44,6.54,72.39,4.85l3.05,3.68s-48.17,24.16-78.47-6.23"/><path class="cls-14" d="M230.37,182.48l1.06-6.64,7.08,3.32,4-8.33,7.26,5.31,6.4-12.65,8.24,5.44,6.86-9.56,9.61,8.24,10-8.24L296,169l9.61-1.37V179.3l10.17,3.18-4,7.51,2,2.33-8,4.46c-.78-.46,2.28-5-4.36-19.56C293.7,160.21,230.37,182.48,230.37,182.48Z"/><path class="cls-12" d="M244.7,115.68s-10.53-.24-16,2.5-31.33,1.85-37-2.51l-5.61-4.35,7.16-.11s-.54,2.93,5.07,4.27,20.72,4.07,29,1.33,10.29-2.18,10.29-2.18"/><polyline class="cls-12" points="193.62 126.57 186.12 175.86 216.32 175.84 217.7 129.16"/><polygon class="cls-14" points="213.09 129.59 215.41 134.29 210.83 138.78 215.41 144.91 210.83 150.4 213.58 156.62 208.29 161.43 213.09 167.16 206.52 175.55 193.5 175.55 189.68 167.39 195.73 160.74 191.29 151.21 197.1 148.39 193.06 142.44 197.1 138.78 194.36 130.54 198.13 128.11 213.09 129.59"/><polygon class="cls-12" points="206.72 129.16 209.46 133.28 206.74 137.12 200.56 137.12 198.48 131.91 201.91 128.66 206.72 129.16"/><polygon class="cls-12" points="207.02 140.43 209.77 144.55 207.05 148.39 200.87 148.39 198.78 143.17 202.22 139.92 207.02 140.43"/><polygon class="cls-12" points="205.65 151.41 208.4 155.53 205.67 159.37 199.5 159.37 197.41 154.16 200.84 150.9 205.65 151.41"/><polygon class="cls-12" points="204.28 163.77 207.02 167.89 204.3 171.72 198.12 171.72 196.04 166.51 199.47 163.26 204.28 163.77"/><path class="cls-12" d="M169.94,173.17c7.16-37,14.13-51,14.13-51l-7.06-5s-14,19.62-15.48,52.19"/><path class="cls-12" d="M236.92,169c2.75-17.85-6.55-41.24-6.55-41.24l9.94-2.6s6.81,25.53,8.57,38.12"/><path class="cls-12" d="M269.64,154.32,261.8,157l-1.43.48c.1-8.6-9.56-29.11-12.44-35.07-.51-1-.81-1.64-.81-1.64l4.16-1.54.21-.08a14.59,14.59,0,0,1,.83,1.33c5.74,9.77,13.43,34.76,13.43,34.76A31.45,31.45,0,0,1,269.64,154.32Z"/><path class="cls-12" d="M173.42,114.89c-1.72,4.06-9.33,22.51-13.77,37.59-.05.19-.11.38-.16.57a87.83,87.83,0,0,0-2.79,12.14l0-.05-2.12-3,.7-3.19c0-.16.07-.33.11-.5.28-1.25.62-2.76,1-4.46.12-.54.24-1.1.38-1.69.4-1.73.84-3.62,1.3-5.59.14-.61.29-1.23.44-1.85s.31-1.25.46-1.88c.23-1,.48-1.94.71-2.9l.38.1.2-.4C161.49,137.07,169,121.38,173.42,114.89Z"/><path class="cls-15" d="M252.33,212.62S230.67,193.69,207,199.18s-17.34,11.67-17.34,11.67-6.28,1.28-5.61,4.42l.68,3.14s54.37-8.24,65.62.68Z"/><path class="cls-15" d="M251.85,208.64a8.36,8.36,0,0,1,6.53,0c3.25,1.53,0,5.74,0,5.74s5.61-.09,3.74,4.71-6.53,2.06-11.75,0S251.85,208.64,251.85,208.64Z"/><path class="cls-15" d="M262.5,210.85s1.68-11.2,15.51-5.25,14.56,16.16,14.56,16.16-7.37-10.45-15-6.9S260.63,212.91,262.5,210.85Z"/><path class="cls-15" d="M263.26,219.73s8.73-7.22,15.05,6.44,0,21.76,0,21.76,1.5-12.7-6.58-15.18S260.48,220,263.26,219.73Z"/><path class="cls-16" d="M193,210.17s11.9-5.76,22.42-6.31A43.22,43.22,0,0,1,234,207s-17.26-2.63-25.7,1S193,215.66,193,210.17Z"/><path class="cls-17" d="M262.5,210.85a26.59,26.59,0,0,1,9.2-2.89c5-.54,7.24-.54,4.76,2.89S267.49,210.17,262.5,210.85Z"/><path class="cls-18" d="M264.38,221.15s6.6-2.74,8.79,2.06,3.3,4.36,0,6S272.62,222.52,264.38,221.15Z"/><path class="cls-9" d="M446.76,140.83s-14.26-1.37-16.85,4.12,2.59,5.49,6.48,5.49S440.28,140.83,446.76,140.83Z"/><path class="cls-19" d="M432.66,150.53s14.25,1.37,16.84-4.12-2.59-5.5-6.47-5.5S439.14,150.53,432.66,150.53Z"/><path class="cls-8" d="M441.73,150.53s14.25,1.37,16.84-4.12-2.59-5.5-6.47-5.5S448.21,150.53,441.73,150.53Z"/><path class="cls-9" d="M449.81,149.74s13.22,5.79,17.24,1.37-.94-6.06-4.65-7.29S456,151.78,449.81,149.74Z"/><path class="cls-8" d="M435.46,140.78s-13.92,3.52-14.72,9.6,4.11,4.33,7.79,3S429.32,143,435.46,140.78Z"/><path class="cls-20" d="M434.45,129.16h10.41l.83-12.92s-12.22.93-13,.75S434.45,129.16,434.45,129.16Z"/><path class="cls-8" d="M446.76,130.12s9.34-.05,10.17.87l-1.25,9.69-10,.25Z"/><polygon class="cls-9" points="456.47 129.16 459.17 118.18 466.83 119.55 465.6 130.12 456.47 129.16"/><path class="cls-19" d="M422.92,132.75A25.6,25.6,0,0,1,433.28,130l2.1,10.62-10.5,3.18Z"/><path class="cls-21" d="M418.9,112.69s-1.29-5.49,2.59-5.49,3.89,4.12,3.89,4.12,3.33-4.12,4.9-1.38.05,5.62-1.13,6.24,1.59,2.74-1.09,5.11a3.72,3.72,0,0,1-5.14,0s-4.85,2.49-6.38,1.06,0-6.11,0-6.11-2.82-2.62-1.52-3.77S418.9,112.69,418.9,112.69Z"/><path class="cls-21" d="M429.15,109.73s-1.3-5.49,2.59-5.49,3.89,4.12,3.89,4.12,3.33-4.12,4.9-1.37.05,5.61-1.13,6.24,1.59,2.73-1.09,5.11a3.72,3.72,0,0,1-5.14,0s-4.85,2.48-6.38,1,0-6.11,0-6.11-2.82-2.62-1.53-3.77S429.15,109.73,429.15,109.73Z"/><path class="cls-21" d="M442.11,108.36s-1.3-5.49,2.59-5.49,3.88,4.12,3.88,4.12,3.33-4.12,4.91-1.38,0,5.62-1.14,6.24,1.59,2.74-1.09,5.11a3.72,3.72,0,0,1-5.14,0s-4.85,2.49-6.37,1.06,0-6.11,0-6.11-2.83-2.62-1.53-3.77S442.11,108.36,442.11,108.36Z"/><path class="cls-21" d="M452.47,111.11s-1.3-5.5,2.59-5.5,3.89,4.12,3.89,4.12,3.33-4.12,4.9-1.37,0,5.62-1.13,6.24,1.59,2.73-1.09,5.11a3.73,3.73,0,0,1-5.15,0s-4.84,2.48-6.37,1.06,0-6.12,0-6.12-2.82-2.61-1.53-3.77S452.47,111.11,452.47,111.11Z"/><path class="cls-21" d="M464.13,113.85s-1.3-5.49,2.59-5.49,3.89,4.12,3.89,4.12,3.33-4.12,4.9-1.37.05,5.61-1.13,6.24,1.58,2.73-1.09,5.11a3.74,3.74,0,0,1-5.15,0s-4.84,2.48-6.37,1.05,0-6.11,0-6.11-2.82-2.62-1.53-3.77S464.13,113.85,464.13,113.85Z"/><path class="cls-22" d="M477.18,153.88v5.34h-2.45s-.29,15.25-3,16.62-18.29,1.38-20.13,0a5.48,5.48,0,0,1-1.33-1.73c-1.21-2.18-2.24-5.49-3.25-6.5-1.37-1.38-5.49-1.53-6.87-.76l-.52.58c-1.37,1.37-2.74,6.86-4.57,8.24s-17.4,1.37-20.14,0-3-16.63-3-16.63h-2.45V153.7l26.08-1.37,3.3,5.49,1.34,1.55c.07,1.23,4.44,1.73,7.71-1.37l3.28-5.5Z"/><path class="cls-23" d="M451.1,158s12.79-2.75,19.44,0a71.77,71.77,0,0,1-.55,11,4.15,4.15,0,0,1-4,3.51c-4,.16-10.66.41-11.82-.14C451.15,171,449.86,157.29,451.1,158Z"/><path class="cls-24" d="M463.72,156.8l-9.51,15.61h7.5L470.54,158S465.36,155.61,463.72,156.8Z"/><path class="cls-23" d="M435.76,158s-12.8-2.75-19.44,0a71.77,71.77,0,0,0,.55,11,4.15,4.15,0,0,0,4,3.51c4,.16,10.66.41,11.82-.14C435.71,171,437,157.29,435.76,158Z"/><path class="cls-24" d="M428.17,156.47l-7.34,16.08,7.34.2,6-15.06A40.91,40.91,0,0,1,428.17,156.47Z"/><path class="cls-25" d="M901.11,151.05s-8.91,3.71-17.69,7.73-23.87,8.14-29.37,21.87-3.78,19.29-3.78,19.29S879.2,165.37,892,163.4,901.11,151.05,901.11,151.05Z"/><path class="cls-26" d="M924.76,155.25s17.55,1.15,21.82,9.5,4,24.95,4,24.95-23.37-11.89-28.7-11.5-12.19-6.47-12.19-10.59S919.27,153.88,924.76,155.25Z"/><path class="cls-27" d="M921.85,155.25s-2.58,11-9.45,17.22c-.2.19-.44.38-.68.57h0c-7.78,5.91-32.65,9.89-45,16.66-12.74,7-17.86,35.82-17.86,35.82l0-.09c-.57-1-6.24-11.38-2.59-16,1.46-1.84,2.24-4.16,3.34-7.38l.73-2.11a101.54,101.54,0,0,1,11.32-22.72c8.15-12.66,27.6-18.77,39.93-21.46,6.4-1.4,10.87-1.88,10.87-1.88Z"/><path class="cls-7" d="M911.42,140.33s11.68-31.53-2.66-29.62-22.44,22.17-22.44,22.17S898.9,149.82,904.26,151,911.42,140.33,911.42,140.33Z"/><path class="cls-25" d="M912.12,111s-13.64.87-13.2,9.86S907,151.05,907,151.05,923.5,115.48,912.12,111Z"/><path class="cls-28" d="M911.72,173h0c-7.78,5.91-32.65,9.89-45,16.66-12.74,7-17.86,35.82-17.86,35.82l0-.09c-.28-.85-2.52-8.74,5.1-25.49,8.1-17.78,22.12-22,32.42-23.41a23.1,23.1,0,0,0,15.29-8.62C911.55,166.6,913,169.79,911.72,173Z"/><path class="cls-29" d="M937.8,107.88s-3.34-4.8-4.76,2.75,4.76,24.71,4.76,24.71S949,105.53,937.8,107.88Z"/><path class="cls-6" d="M933,181.57s13.69-9.84,21.92-3,5.44,38.66,5.44,38.66S946.82,183.18,933,181.57Z"/><path class="cls-7" d="M912.4,126.42s13.14-2.75,18.93,0,8.53,4.31,3,20.69-18.43,25.77-27.75,24.51S913.78,137.4,912.4,126.42Z"/><path class="cls-6" d="M933.82,131.43s13.33,1.64,17.92,6.1,6.68,6.84-3.8,20.57-25.75,18.45-34.16,14.25S931.58,142.27,933.82,131.43Z"/><path class="cls-30" d="M893.87,121.61s-3.73,6.87.19,13.73-5.07-3.91-5.07-3.91Z"/><path class="cls-30" d="M921.85,125.79s-1.32,13.75-5.73,20.58-6.46,18.38-6.46,18.38,8-21.37,14-25.39S921.85,125.79,921.85,125.79Z"/><path class="cls-30" d="M898.91,148.46S877.69,153,864.5,164.75l-13.19,11.78S857.27,150.6,898.91,148.46Z"/><circle class="cls-31" cx="456.59" cy="114.06" r="3.43"/><path class="cls-32" d="M1130.3,70.51H1151s12.94,6,8.86,19.31-32.65,22.44-36.73,32.65S1135.47,79.76,1130.3,70.51Z"/><path class="cls-29" d="M913.78,172.35s20.37-13.42,23.57-19.72,5.18-11.06,5.18-11.06A49.5,49.5,0,0,1,937.81,157C933.68,165.55,922.7,176.4,913.78,172.35Z"/><path class="cls-33" d="M1109.07,98.19a76.59,76.59,0,0,1-4.89,15.09c-.3.7-.49,1.1-.49,1.1,0-7.64-2.57-10.7-6-12.35a18,18,0,0,0-2.88-1.07l-1-.27c-5.06-1.38-10.58-2.2-12.6-9.78-3.25-12.18,6.29-16,10.32-17a16.71,16.71,0,0,1,1.71-.35s13.47,3.12,16,13.36C1110.14,90.18,1109.85,94.23,1109.07,98.19Z"/><path class="cls-34" d="M940.4,135.34S930,141,927.73,148.46s-10,14-10,14,13.17-11.86,16.6-15.39S944.37,140.83,940.4,135.34Z"/><path class="cls-32" d="M1218.54,207.47c-3.93.76-6.17-11.45-15.54-7.3s-28,2.41-33.11,0c-2.82-1.35-3.87-4.76-4.23-7.54a21,21,0,0,1-.15-4.06l0-.06,13.09-12.24.14-.12.27-.26s1.85,12.91,12.14,10.17c9.36-2.49,20-4.87,25.76.62a9.9,9.9,0,0,1,1.58,1.89C1223.78,196.43,1222.47,206.72,1218.54,207.47Z"/><path class="cls-29" d="M937.35,179.05s12.23,6.6,13.21,7.53,10.3,28.69,10.3,28.69-17.47-31.41-27.82-33.7"/><path class="cls-32" d="M1128.27,125.46a41.27,41.27,0,0,0,6.29,3.15s-21,6.74-31.07,7.11c-.38,0-.73,0-1.07,0-1.83,0-3.18-.32-3.83-1-4.08-4.08-2-10.2,3.18-16.93a16.39,16.39,0,0,0,2.41-4.57c2.34-6.52,1.55-14.21,1.55-14.21l-.06,0a33.9,33.9,0,0,1-5.66,1.65,18.67,18.67,0,0,1-3.46.37,9.21,9.21,0,0,1-1.75-.15,5.93,5.93,0,0,1-1-.27c-2-.75-2.95-2.44-4.44-4.68s-.7-16.47,2.16-22.15c.82-1.63,1.81-2.56,2.94-2.33,5.1,1,19.39-3.06,28.57-4.08a11.48,11.48,0,0,1,8.88,3.06,23.44,23.44,0,0,1,5.4,7.14l4.08,10.2c0,8.16-17.34,28.57-17.34,32.65a.28.28,0,0,0,0,.09C1124.17,122.33,1126.1,124,1128.27,125.46Z"/><path class="cls-35" d="M898.91,160.59s-22.89-3.28-38,22.81C860.92,183.4,886.1,158.38,898.91,160.59Z"/><path class="cls-32" d="M1177.45,156.7a16.82,16.82,0,0,1-6.1,7s-50.44-17.67-86.69-.6a7,7,0,0,1-8.67-2v0a3.26,3.26,0,0,1-.31-3.95,46.68,46.68,0,0,1,9.41-10.15h0a63.38,63.38,0,0,1,6-4.34,87.74,87.74,0,0,1,12.31-6.55l.18-.07a108.58,108.58,0,0,1,20.72-6.59c20.64-4.41,41-2.68,48.38,6.73C1179.83,145.26,1179.55,152.11,1177.45,156.7Z"/><path class="cls-36" d="M1120.8,137.52c2.55-2.77.08-3.49.08-3.49,1.65-1.69-.64-2.85-.64-2.85s2-.14,2.67.47l.72.61s2.61-1.39,2.56.37a2,2,0,0,1-1.68,2s.32,1.19-1.22,2.23A3,3,0,0,1,1120.8,137.52Z"/><path class="cls-37" d="M1105.67,99.09a33.9,33.9,0,0,1-5.66,1.65Z"/><path class="cls-37" d="M1122.43,105c-6.49,10.39-13.65,11.41-12.61,19.06.81,6.15,1.82,6.62,2.18,6.57l.09,0-8.6,5.1-5.71,3.4a48.85,48.85,0,0,1,4.64-3.38c-1.83,0-3.18-.32-3.83-1-4.08-4.08-2-10.2,3.18-16.93a16.39,16.39,0,0,0,2.41-4.57c2.34-6.52,1.55-14.21,1.55-14.21s1.39-.31,3.34-.88c4.07-1.2,10.59-3.49,12-6.26C1121,91.93,1128.9,94.63,1122.43,105Z"/><path class="cls-38" d="M1177.45,156.7a19.62,19.62,0,0,0-1.42-7.38c-3.18-7.8-27-14.5-49.09-12.53s-51,24.27-51,24.27v0a7,7,0,0,0,8.67,2c36.25-17.07,86.69.6,86.69.6"/><path class="cls-32" d="M1178.44,183.35a.31.31,0,0,1,0,.08,12.75,12.75,0,0,1-5.73,6.93,19.52,19.52,0,0,1-5.83,2.33l-.3.06s-.34-1.67-1-4.24a91.94,91.94,0,0,0-6.45-18.18s-43.52-18.23-82.49,15.73l-1.43,3.34a28.79,28.79,0,0,1-1.88-8.16,21.42,21.42,0,0,1,5-16.33c9.17-10.43,69.14-37,91.6-6.68,1,1.41,2,2.74,2.79,4,.06.1.13.19.18.29,3.5,5.44,5.3,9.92,5.93,13.6A15.14,15.14,0,0,1,1178.44,183.35Z"/><path class="cls-38" d="M1178.44,183.35a.31.31,0,0,1,0,.08c-2.11,7.22-9.91,9-11.56,9.26l-.3.06-.9-.12a21,21,0,0,1-.15-4.06l0-.06a91.94,91.94,0,0,0-6.45-18.18s-43.52-18.23-82.49,15.73l-1.43,3.34a28.79,28.79,0,0,1-1.88-8.16c6.81-11.26,29.88-22.82,52.83-29,22.62-6,45.88,9.55,46.54,10h0c0,.09.12.18.17.28,3.4,5.5,5.15,10,5.79,13.72A15.36,15.36,0,0,1,1178.44,183.35Z"/><path class="cls-38" d="M1218.54,207.47c-3.93.76-6.17-11.45-15.54-7.3s-28,2.41-33.11,0c-2.82-1.35-3.87-4.76-4.23-7.54,0,0,9.13-.32,11.34-6.12,0,0-1.15,9.11,9,6.24s10.48-9,21.49-9.19c3.08-.07,6.34,1.22,9.42,3.12a9.9,9.9,0,0,1,1.58,1.89C1223.78,196.43,1222.47,206.72,1218.54,207.47Z"/><path class="cls-39" d="M243.78,212.84s-33-3.51-36.76,0S212.89,199.72,243.78,212.84Z"/><circle class="cls-31" cx="433.25" cy="112.69" r="3.43"/><circle class="cls-31" cx="444.23" cy="112.69" r="3.43"/><circle class="cls-31" cx="422.27" cy="115.44" r="3.43"/><circle class="cls-31" cx="468.95" cy="118.18" r="3.43"/><path class="cls-40" d="M1125.21,74.25s-10-5.69-15.27,12.26C1109.94,86.51,1123.84,88,1125.21,74.25Z"/><path class="cls-36" d="M1147.22,87.29h2c1.38,0,1.38-2.75,1.38-2.75l1.47.4c1.47-1,0-5,0-5a5.94,5.94,0,0,0,2.65-5s4.22,6.38-1.33,6.62c0,0,1.33,3-.05,4.37l-1.61.63s.24-.63.24,2.11-1.37,2.75-1.37,2.75a1.9,1.9,0,0,1,0,2.74c-1.38,1.38-4.12-1.37-4.12-1.37s2.74,0,2.74-1.37S1147.22,87.29,1147.22,87.29Z"/><path class="cls-36" d="M1143.59,84.54h2c1.38,0,1.38-2.74,1.38-2.74l1.47.39c1.47-1,0-5,0-5a5.94,5.94,0,0,0,2.65-5s4.22,6.37-1.33,6.62c0,0,1.33,3,0,4.36l-1.61.64s.24-.64.24,2.11-1.37,2.74-1.37,2.74a1.91,1.91,0,0,1,0,2.75c-1.38,1.37-4.12-1.37-4.12-1.37s2.74,0,2.74-1.38S1143.59,84.54,1143.59,84.54Z"/><path class="cls-36" d="M1140.06,96.9h2c1.38,0,1.38-2.75,1.38-2.75l1.47.4c1.47-1,0-5,0-5a5.94,5.94,0,0,0,2.65-5s4.22,6.38-1.33,6.62c0,0,1.33,3,0,4.37l-1.61.63s.24-.63.24,2.11-1.37,2.75-1.37,2.75a1.91,1.91,0,0,1,0,2.75c-1.38,1.37-4.12-1.38-4.12-1.38s2.74,0,2.74-1.37S1140.06,96.9,1140.06,96.9Z"/><path class="cls-36" d="M1128.28,84.74c3.77.19,2.72-2.75,2.72-2.75,2.36.19,1.76-2.94,1.76-2.94a6.71,6.71,0,0,1,1.37,2.94v1.18s2.75,1.37,1.38,2.75a1.71,1.71,0,0,1-2.59,0,1.93,1.93,0,0,1-2.49.63A3.24,3.24,0,0,1,1128.28,84.74Z"/><path class="cls-36" d="M1125.54,81.27c3.76.2,2.71-2.74,2.71-2.74,2.36.19,1.76-2.94,1.76-2.94a6.69,6.69,0,0,1,1.38,2.94v1.18s2.74,1.37,1.37,2.74a1.7,1.7,0,0,1-2.59,0,1.94,1.94,0,0,1-2.49.64A3.23,3.23,0,0,1,1125.54,81.27Z"/><path class="cls-36" d="M1116.65,116.7c3.26,1.89,3.67-1.21,3.67-1.21,2,1.25,2.9-1.81,2.9-1.81a6.63,6.63,0,0,1-.11,3.24l-.54,1s1.82,2.48,0,3.07a1.7,1.7,0,0,1-2.3-1.18,1.94,1.94,0,0,1-2.51-.57A3.24,3.24,0,0,1,1116.65,116.7Z"/><path class="cls-36" d="M1128.24,135.82c2.56-2.77.09-3.49.09-3.49,1.65-1.7-.65-2.86-.65-2.86s2-.14,2.68.47l.72.61s2.61-1.38,2.56.38a2,2,0,0,1-1.68,2s.32,1.19-1.23,2.22A3,3,0,0,1,1128.24,135.82Z"/><path class="cls-36" d="M1136.48,135.82c2.55-2.77.09-3.49.09-3.49,1.64-1.7-.65-2.86-.65-2.86s2-.14,2.68.47l.72.61s2.61-1.38,2.55.38a2,2,0,0,1-1.67,2s.31,1.19-1.23,2.22A3,3,0,0,1,1136.48,135.82Z"/><path class="cls-36" d="M1144.72,134.45c2.55-2.77.09-3.49.09-3.49,1.64-1.7-.65-2.86-.65-2.86s2-.14,2.68.47l.71.61s2.62-1.38,2.56.37a2,2,0,0,1-1.67,2s.31,1.2-1.23,2.23A3,3,0,0,1,1144.72,134.45Z"/><path class="cls-36" d="M1099.41,160.53c2.56-2.77.09-3.49.09-3.49,1.64-1.69-.65-2.86-.65-2.86s2-.13,2.68.48l.72.61s2.61-1.39,2.55.37a2,2,0,0,1-1.67,2s.32,1.19-1.23,2.23A3,3,0,0,1,1099.41,160.53Z"/><path class="cls-36" d="M1109,156.41c2.56-2.77.09-3.48.09-3.48,1.64-1.7-.65-2.86-.65-2.86s2-.14,2.68.47l.72.61s2.61-1.38,2.56.37a2,2,0,0,1-1.68,2s.32,1.19-1.23,2.23A3,3,0,0,1,1109,156.41Z"/><path class="cls-36" d="M1117.26,153.67c2.55-2.77.09-3.49.09-3.49,1.64-1.7-.65-2.86-.65-2.86s2-.14,2.68.47l.71.61s2.62-1.38,2.56.37a2,2,0,0,1-1.67,2s.31,1.19-1.23,2.22A3,3,0,0,1,1117.26,153.67Z"/><path class="cls-41" d="M1089.57,151.82s1.43.82,0,5.56"/><path class="cls-28" d="M1089.57,151.82a1.69,1.69,0,0,1,1.08,1.21,4.07,4.07,0,0,1,.15,1.58,4.62,4.62,0,0,1-1.23,2.77,6.67,6.67,0,0,1-.12-1.51c0-.48,0-.93.09-1.38l.13-1.31A3.21,3.21,0,0,0,1089.57,151.82Z"/><path class="cls-41" d="M1100.9,145.43s1.77,1.1,0,5.46"/><path class="cls-28" d="M1100.9,145.43a1.72,1.72,0,0,1,1.18,1.13,3.57,3.57,0,0,1,.21,1.61,4.68,4.68,0,0,1-.44,1.49,3.74,3.74,0,0,1-.95,1.23,7.55,7.55,0,0,1,0-1.5c0-.47.1-.91.13-1.35a10.83,10.83,0,0,0,.09-1.26A3.38,3.38,0,0,0,1100.9,145.43Z"/><path class="cls-41" d="M1114.42,139.63s3.83,1.11.45,7.68"/><path class="cls-28" d="M1114.42,139.63a2.37,2.37,0,0,1,2,1.25,4,4,0,0,1,.48,2.39,8.68,8.68,0,0,1-.24,1.15,6.19,6.19,0,0,1-.43,1.06,6.6,6.6,0,0,1-1.33,1.83,18.92,18.92,0,0,1,.39-2.16,18.59,18.59,0,0,0,.34-2,5,5,0,0,0-.11-1.86A3.3,3.3,0,0,0,1114.42,139.63Z"/><path class="cls-41" d="M1129.34,136.61s.65,5.87-1.06,8.82"/><path class="cls-28" d="M1129.34,136.61a7.47,7.47,0,0,1,.61,2.24,11.12,11.12,0,0,1,.07,2.31,9,9,0,0,1-.48,2.28,4.7,4.7,0,0,1-1.26,2c.14-.78.22-1.49.29-2.21s.13-1.44.18-2.17A32.45,32.45,0,0,1,1129.34,136.61Z"/><path class="cls-41" d="M1145.16,137.57s1.48,4.49-1,7"/><path class="cls-28" d="M1145.16,137.57a4.48,4.48,0,0,1,.86,1.75,6.07,6.07,0,0,1,.18,2,4.86,4.86,0,0,1-.58,1.92,3.15,3.15,0,0,1-1.46,1.34,15,15,0,0,0,.54-1.71,15.76,15.76,0,0,0,.23-1.66C1145,140,1145,138.88,1145.16,137.57Z"/><path class="cls-41" d="M1159.44,139.63s1.07,5.22-1.48,7.68"/><path class="cls-28" d="M1159.44,139.63a5.41,5.41,0,0,1,.71,2,7.23,7.23,0,0,1,0,2.13,5.87,5.87,0,0,1-.67,2.06,3.5,3.5,0,0,1-1.57,1.5,13.53,13.53,0,0,0,.65-1.87c.14-.62.25-1.23.33-1.86s.14-1.27.22-1.92S1159.31,140.34,1159.44,139.63Z"/><path class="cls-41" d="M1172.66,145.43s-.92,5.84-5.65,7.83"/><path class="cls-28" d="M1172.66,145.43a6.48,6.48,0,0,1-.26,2.59,8.3,8.3,0,0,1-1.1,2.38,7.15,7.15,0,0,1-1.85,1.91,5.36,5.36,0,0,1-2.44.95,21.06,21.06,0,0,0,1.79-1.71,14.5,14.5,0,0,0,1.45-1.86A42.53,42.53,0,0,0,1172.66,145.43Z"/><path class="cls-41" d="M1174.46,166.5s1.27,11-10.26,17.06"/><path class="cls-28" d="M1174.46,166.5a13,13,0,0,1,0,5.35,15.51,15.51,0,0,1-5.57,9.09,15.88,15.88,0,0,1-2.23,1.51,25.24,25.24,0,0,1-2.43,1.11c.68-.59,1.41-1.06,2.08-1.62s1.34-1.1,1.91-1.74l.9-.91.82-1c.28-.31.51-.67.76-1a9.16,9.16,0,0,0,.69-1.06,19.79,19.79,0,0,0,2.11-4.63A23.15,23.15,0,0,0,1174.46,166.5Z"/><path class="cls-41" d="M1165.47,158.2a14.31,14.31,0,0,1-4.87,15.31"/><path class="cls-28" d="M1165.47,158.2a10.71,10.71,0,0,1,1.08,4.21,11.92,11.92,0,0,1-.55,4.39,11.84,11.84,0,0,1-5.4,6.71c.43-.6.92-1.1,1.33-1.67s.84-1.12,1.17-1.72a15.25,15.25,0,0,0,1.69-3.7A19.8,19.8,0,0,0,1165.47,158.2Z"/><path class="cls-41" d="M1151.38,153.26a12.18,12.18,0,0,1,0,14.67"/><path class="cls-28" d="M1151.38,153.26a9.09,9.09,0,0,1,2.28,3.31,10.24,10.24,0,0,1,.81,4,9.85,9.85,0,0,1-.83,4,10,10,0,0,1-1,1.79,13.55,13.55,0,0,1-1.29,1.53c.22-.64.52-1.21.74-1.82a16,16,0,0,0,.58-1.82,13,13,0,0,0,.5-3.7A16.78,16.78,0,0,0,1151.38,153.26Z"/><path class="cls-41" d="M1138.9,151.82s5.45,5.42,0,14"/><path class="cls-28" d="M1138.9,151.82a7.2,7.2,0,0,1,2.34,3.09,9.61,9.61,0,0,1,.71,3.9,11.09,11.09,0,0,1-.92,3.83,14.74,14.74,0,0,1-.92,1.71c-.39.52-.78,1-1.21,1.5.19-.62.43-1.2.65-1.78s.4-1.17.54-1.76a14,14,0,0,0,.39-1.77,13.47,13.47,0,0,0,.2-1.78A12.92,12.92,0,0,0,1138.9,151.82Z"/><path class="cls-41" d="M1125,153.26s5.06,1.23,2,12.59"/><path class="cls-28" d="M1125,153.26a3.8,3.8,0,0,1,2.77,2.23,8.78,8.78,0,0,1,.83,3.54c0,.6,0,1.2-.1,1.79a14.41,14.41,0,0,1-.32,1.74,14.61,14.61,0,0,1-1.22,3.29c0-1.18.16-2.31.24-3.44s.14-2.24.12-3.34a12,12,0,0,0-.46-3.19A4.62,4.62,0,0,0,1125,153.26Z"/><path class="cls-41" d="M1112.78,156.47s4.44,2.95,2.26,10.48"/><path class="cls-28" d="M1112.78,156.47a5,5,0,0,1,2.25,1.93,7.51,7.51,0,0,1,1.1,2.81,8.57,8.57,0,0,1-.06,3,11.61,11.61,0,0,1-.39,1.43A11.45,11.45,0,0,1,1115,167a13.86,13.86,0,0,1,0-1.45v-1.39a17,17,0,0,0-.21-2.69A10.93,10.93,0,0,0,1112.78,156.47Z"/><path class="cls-41" d="M1100,161.71s4.07,4.63.92,9.38"/><path class="cls-28" d="M1100,161.71a5.69,5.69,0,0,1,1.77,1.94,7,7,0,0,1,.9,2.53,5.71,5.71,0,0,1-.27,2.72,5,5,0,0,1-1.48,2.19,17,17,0,0,0,.52-2.42,8.5,8.5,0,0,0,0-2.31A19.24,19.24,0,0,0,1100,161.71Z"/><path class="cls-41" d="M1085.53,169.69s1.51,6,0,9.53"/><path class="cls-28" d="M1085.53,169.69a8.61,8.61,0,0,1,.93,2.3,11.88,11.88,0,0,1,.36,2.45,9.62,9.62,0,0,1-.22,2.5,5.32,5.32,0,0,1-1.07,2.28,39.36,39.36,0,0,0,0-4.73A45.08,45.08,0,0,1,1085.53,169.69Z"/><path class="cls-41" d="M1104.81,111.23s3.41,3,10.53-1.21"/><path class="cls-28" d="M1104.81,111.23a8.41,8.41,0,0,0,2.65.44,13.32,13.32,0,0,0,2.59-.27c.86-.15,1.71-.4,2.59-.62.43-.15.87-.27,1.32-.4a13.9,13.9,0,0,1,1.38-.36,12.32,12.32,0,0,1-1.07,1c-.39.27-.8.53-1.22.78a9.7,9.7,0,0,1-2.75,1,7.25,7.25,0,0,1-3,0A4.34,4.34,0,0,1,1104.81,111.23Z"/><path class="cls-41" d="M1100,121.17s2.72,3,8.48,0"/><path class="cls-28" d="M1100,121.17a9,9,0,0,0,4.15.61c.68,0,1.37-.15,2.09-.25.35-.07.72-.14,1.09-.19a8.15,8.15,0,0,1,1.15-.17,8.37,8.37,0,0,1-.89.79,10.38,10.38,0,0,1-1,.59,6.63,6.63,0,0,1-2.34.6,5.3,5.3,0,0,1-2.42-.39A3.49,3.49,0,0,1,1100,121.17Z"/><path class="cls-41" d="M1096.62,131.29s7.46,2.58,11.84-1.83"/><path class="cls-28" d="M1096.62,131.29a41.93,41.93,0,0,0,6.14,0,15.85,15.85,0,0,0,2.9-.58,16.29,16.29,0,0,0,2.8-1.25,6.26,6.26,0,0,1-2.38,2.24,8.87,8.87,0,0,1-3.18,1,10.86,10.86,0,0,1-3.27-.19A8.94,8.94,0,0,1,1096.62,131.29Z"/><path class="cls-41" d="M1174.46,200.48s5.42-.44,6.23-7.73"/><path class="cls-28" d="M1174.46,200.48a10.16,10.16,0,0,0,3.9-3.15,15.39,15.39,0,0,0,1.25-2.14c.19-.38.34-.79.54-1.19a12.1,12.1,0,0,1,.54-1.25,10.56,10.56,0,0,1,.12,1.39,10.78,10.78,0,0,1-.18,1.39,7.26,7.26,0,0,1-1.17,2.62,6.11,6.11,0,0,1-2.22,1.85A4.51,4.51,0,0,1,1174.46,200.48Z"/><path class="cls-41" d="M1187.75,202.65s7.82-.6,3.53-11"/><path class="cls-28" d="M1187.75,202.65a7.22,7.22,0,0,0,2.74-1.75,5,5,0,0,0,1.28-2.66,9.92,9.92,0,0,0,.13-1.55c0-.54-.07-1.07-.11-1.62s-.14-1.11-.24-1.66-.21-1.12-.27-1.71a16.17,16.17,0,0,1,.91,1.5,15.7,15.7,0,0,1,.65,1.65,12.9,12.9,0,0,1,.36,1.77,7.76,7.76,0,0,1-.08,1.86,5.06,5.06,0,0,1-1.92,3.23A4.86,4.86,0,0,1,1187.75,202.65Z"/><path class="cls-41" d="M1203,200.17s3-9.87-3.07-15"/><path class="cls-28" d="M1203,200.17a40.89,40.89,0,0,0-.11-7.92,17.65,17.65,0,0,0-1-3.71,16.67,16.67,0,0,0-2-3.41,8.25,8.25,0,0,1,2.94,2.93,11.61,11.61,0,0,1,1.37,4,14.63,14.63,0,0,1,0,4.18A12.94,12.94,0,0,1,1203,200.17Z"/><path class="cls-41" d="M1210.47,200.48s7.78-4.47,5.19-14.55"/><path class="cls-28" d="M1210.47,200.48a20,20,0,0,0,2.62-3.11,14.58,14.58,0,0,0,1.75-3.51,7.69,7.69,0,0,0,.29-.93,8.2,8.2,0,0,0,.23-1l.18-1c0-.33,0-.66.09-1,.1-.66,0-1.33.09-2s-.08-1.36-.06-2.07a14.74,14.74,0,0,1,.73,2,12.35,12.35,0,0,1,.32,2.11,11,11,0,0,1-.57,4.28,10.78,10.78,0,0,1-2.21,3.72A9.21,9.21,0,0,1,1210.47,200.48Z"/><path class="cls-42" d="M1123.38,75.59s-5.8-.27-11.94,9.15C1111.44,84.74,1116.75,72.13,1123.38,75.59Z"/><path class="cls-43" d="M1155.09,131.16s15,.4,17.6,8.47C1172.69,139.63,1169.19,135.22,1155.09,131.16Z"/><path class="cls-44" d="M1102.54,139.63A53.77,53.77,0,0,0,1079,154.17"/><path class="cls-44" d="M1106.55,73.39s-8,2.1-10.12,1.13-5.12,4.78-5.67,12.21c0,0,2.29-7.68,5.67-7.68S1106.55,73.39,1106.55,73.39Z"/><path class="cls-44" d="M1092.21,158.84s-12.11,4.62-13.24,9.09-2,5.58-2,5.58S1087.35,159,1092.21,158.84Z"/><path class="cls-45" d="M586.84,187.8a13.83,13.83,0,0,1-2.25,8.23,1.46,1.46,0,0,1,.09-.3l-.69-1.06c-5.53-8.2-43.55-59.69-87.74,4-.06.72-.34.8-.74.31a17.59,17.59,0,0,1-2-4.48v0c-5.32-8.09-13.86-71.8,47.3-75C594.45,116.69,586.22,171.05,586.84,187.8Z"/><path class="cls-46" d="M586.84,187.8,584,194.67c-5.53-8.2-43.55-59.69-87.74,4-.06.72-.34.8-.74.31l-2-4.48v0s28.22-43.34,46-42.7S586.84,187.8,586.84,187.8Z"/><path class="cls-47" d="M521.81,120.62l.69,5.42L532,146.18s4-6.05,4.71-8.47.46-16.78,0-15.59-3.4,1.36-3.4,1.36.85-.34,1.53-3.57-1.2-10.36-1.2-10.36l-1.35,1.52a28.47,28.47,0,0,0-1.54-11.21c-2-5.09,2.69-16.84,2.69-16.84s-7.45,0-10.68,4.27-2.71,8-2.66,10.57a7.77,7.77,0,0,0,1.82,4.55L518,100c-1.56,3.5,3.13,15.21,3.13,15.21L524.8,122S522.55,123.7,521.81,120.62Z"/><path class="cls-48" d="M528.53,87s-8.16-.68-4.75,12.74,10,36.12,9.14,39.55"/><path class="cls-5" d="M528.53,87a5,5,0,0,0-3.24,1.09A5.59,5.59,0,0,0,523.48,91a15.56,15.56,0,0,0,.15,6.92l.39,1.72.45,1.71.93,3.41,1.88,6.82c1.26,4.55,2.57,9.09,3.64,13.69.52,2.3,1,4.61,1.46,6.94a25.07,25.07,0,0,1,.59,7.07s0,.05-.05,0a0,0,0,0,1,0,0v0l0-.87-.1-.87c-.06-.58-.21-1.16-.31-1.73-.23-1.15-.48-2.3-.76-3.45-.55-2.28-1.12-4.57-1.73-6.84l-3.45-13.72-1.75-6.86-.85-3.44-.43-1.72L523.17,98a16,16,0,0,1,0-7.09,5.87,5.87,0,0,1,2-3,5.22,5.22,0,0,1,3.36-1s.05,0,.05,0a0,0,0,0,1-.05,0Z"/><path class="cls-49" d="M535,117l-1.37,5.29L535,144.55s6-4.14,7.52-6.11S549.2,123,548.29,124s-3.66,0-3.66,0,.91,0,2.74-2.75,2.75-10.06,2.75-10.06l-1.83.91a28.43,28.43,0,0,0,2.74-11c0-5.49,8.76-14.63,8.76-14.63s-6.93-2.75-11.5,0-5.49,6.4-6.41,8.82a7.81,7.81,0,0,0,0,4.9l-2.74-3.73c-2.75,2.68-2.75,15.3-2.75,15.3l.92,7.64S534.56,120.16,535,117Z"/><path class="cls-50" d="M553.78,88.27s-7.32-3.66-9.15,10.06-4.18,37.23-6.21,40.11"/><path class="cls-51" d="M553.76,88.31a5.07,5.07,0,0,0-3.41-.2,5.6,5.6,0,0,0-2.76,2,15.69,15.69,0,0,0-2.43,6.48l-.27,1.74-.22,1.75-.41,3.52-.79,7c-.52,4.69-1,9.39-1.7,14.06-.38,2.33-.75,4.66-1.23,7a25,25,0,0,1-2.08,6.79,0,0,0,0,1-.06,0,0,0,0,0,1,0-.06h0l.35-.8.22-.85c.17-.56.24-1.15.37-1.72.21-1.16.41-2.32.57-3.48.34-2.33.66-4.66.94-7l1.89-14,.93-7,.48-3.51.25-1.75.32-1.76a16.09,16.09,0,0,1,2.67-6.57,5.84,5.84,0,0,1,2.92-2,5.24,5.24,0,0,1,3.51.29.06.06,0,0,1,0,.07,0,0,0,0,1-.06,0Z"/><path class="cls-52" d="M547.55,117.43l-2.81,4.7-5,21.73s6.88-2.3,8.94-3.75,10.73-12.91,9.6-12.29-3.51-1-3.51-1,.87.25,3.4-1.86,5.47-8.89,5.47-8.89l-2,.37a28.37,28.37,0,0,0,5.72-9.77c1.55-5.26,12.53-11.58,12.53-11.58s-5.88-4.58-11-3.24-7.07,4.6-8.63,6.67a7.76,7.76,0,0,0-1.38,4.7l-1.58-4.35c-3.39,1.8-6.94,13.9-6.94,13.9l-1.28,7.6S546.23,120.32,547.55,117.43Z"/><path class="cls-53" d="M573.64,95.13s-6-5.58-11.61,7.08-14.5,34.54-17.25,36.74"/><path class="cls-25" d="M573.61,95.16A5,5,0,0,0,570.39,94a5.56,5.56,0,0,0-3.2,1.14A15.73,15.73,0,0,0,563,100.7l-.76,1.59-.69,1.62-1.39,3.26-2.74,6.52c-1.82,4.36-3.59,8.73-5.59,13-1,2.13-2,4.27-3.15,6.36a25.56,25.56,0,0,1-3.9,5.93l-.06-.08.55-.67.46-.75c.31-.49.55-1,.83-1.55.53-1,1-2.1,1.53-3.18,1-2.13,2-4.28,2.87-6.45l5.77-12.92,2.87-6.47,1.45-3.23.73-1.61.8-1.6A16.09,16.09,0,0,1,567,94.93a5.85,5.85,0,0,1,3.37-1.1,5.17,5.17,0,0,1,3.28,1.26Z"/><circle class="cls-54" cx="538.26" cy="140.98" r="8.86"/><circle class="cls-55" cx="537" cy="143.51" r="4.43"/><path class="cls-56" d="M530.52,143c2.38-13.2,13.35-7,13.35-7Z"/><path class="cls-57" d="M561.55,126.25s11.7,6.4,15.4,16.58,5.52,33.27,5.52,33.27-24.05-30.83-29.38-28.86C553.09,147.24,572.81,137.46,561.55,126.25Z"/><path class="cls-58" d="M517.66,128.07s-19,12.56-21.64,29.5l-2.68,16.94S514,135.41,520.11,136A6,6,0,0,1,517.66,128.07Z"/></g></svg>