<svg xmlns="http://www.w3.org/2000/svg" viewBox="0 0 330 424"><defs><style>.cls-1{fill:#ffe67d;}.cls-2{fill:#e56565;}.cls-3{fill:#b72544;}.cls-4{fill:#e8b1bf;stroke:#7f1429;}.cls-11,.cls-12,.cls-13,.cls-14,.cls-26,.cls-28,.cls-29,.cls-30,.cls-4,.cls-5,.cls-7{stroke-linecap:round;}.cls-11,.cls-12,.cls-13,.cls-14,.cls-26,.cls-28,.cls-29,.cls-30,.cls-4,.cls-5,.cls-7,.cls-8{stroke-linejoin:round;}.cls-5{fill:#f7f7f5;}.cls-21,.cls-22,.cls-23,.cls-5{stroke:#000;}.cls-6{fill:#f7bf5c;stroke:#443007;}.cls-10,.cls-20,.cls-21,.cls-22,.cls-23,.cls-24,.cls-25,.cls-36,.cls-6{stroke-miterlimit:10;}.cls-10,.cls-11,.cls-12,.cls-13,.cls-14,.cls-25,.cls-26,.cls-28,.cls-29,.cls-30,.cls-36,.cls-6,.cls-7{stroke-width:0.75px;}.cls-7{fill:#f2d249;stroke:#140703;}.cls-8{fill:#191817;stroke:#111010;}.cls-9{fill:#7daef4;}.cls-10{fill:#cf405c;stroke:#870f2c;}.cls-11{fill:#b22f10;}.cls-11,.cls-14{stroke:#6b270a;}.cls-12{fill:#edac29;stroke:#845e08;}.cls-13{fill:#184db5;stroke:#09366d;}.cls-14{fill:#af1238;}.cls-15{fill:#6b270a;}.cls-16{fill:#845e08;}.cls-17{fill:#dd4a74;}.cls-18{fill:#ffce88;}.cls-19{fill:#8ad2ff;}.cls-20{fill:#ffdc9f;stroke:#111;}.cls-20,.cls-23{stroke-width:2px;}.cls-21{fill:#262525;stroke-width:1.03px;}.cls-22,.cls-23{fill:none;}.cls-24,.cls-25{fill:#9b2405;stroke:#560606;}.cls-26{fill:#eab0ce;stroke:#82143e;}.cls-27{fill:#870f2c;}.cls-28{fill:#f7d239;stroke:#960;}.cls-29{fill:#ea802a;stroke:#9b5808;}.cls-30{fill:#64ba09;stroke:#116b08;}.cls-31{fill:#960;}.cls-32{fill:#9b5808;}.cls-33{fill:#116b08;}.cls-34{fill:#ff6490;}.cls-35{fill:#9c6;}.cls-36{fill:#630808;stroke:#630808;}.cls-37{fill:#d34e33;}</style></defs><g id="Capa_5" data-name="Capa 5"><path class="cls-1" d="M206.5,202s1.94.89-1.28,4.45-8.22,6.84-10.72,11.7-3.8,5.89-3.8,5.89S195,208,206.5,202Z"/></g><g id="Capa_7" data-name="Capa 7"><rect class="cls-2" width="330" height="424"/></g><g id="Capa_9" data-name="Capa 9"><path class="cls-3" d="M137.94,311s-17.22.64-7.31,11.61,17.21,9.73,11,17.17S125.94,355,119.16,350.6s12.59-16.51-.22-19.92-47.28,8.64-45.17,15.21-13.55,12.87-18.24,18.64S71.42,369.4,69,375.1s11.39,13.57,20.63,8.06,14.17-27.7,50.82-22.9,55.51,7.34,57.6,12.14,14,15.22,24.7,10.76,11.48.26,22,0,9.21-5.81,9.21-5.81-39.17-6-40.3-14.39,8.62-8.95,3.23-17.07-28-6.58-36-8.4-26-8.85-18.56-12.16,5-11.18,2.06-12S137.94,311,137.94,311Z"/></g><g id="Capa_8" data-name="Capa 8"><path class="cls-4" d="M158.5,260.14,156,271.71l-14.5,35.58s14-.36,17,3.42-15,6.79-25,1.79l12-42,5-32"/><path class="cls-5" d="M178.5,252.5l6,35.07-18,47.93s18,4,18,8-20,2-26-1l14-50L164.88,259"/><polygon class="cls-5" points="158.5 260.14 157.1 256.3 149.5 235.5 149.5 131.5 189.5 145.5 189.5 254.57 158.5 260.14 158.5 260.14"/><polygon class="cls-4" points="189.5 145.5 158.5 151.5 149.5 131.5 176.5 128.5 189.5 145.5"/><polygon class="cls-4" points="158.5 254.57 158.5 151.5 149.5 131.5 149.5 213.71 158.5 254.57"/><circle class="cls-5" cx="170.5" cy="108.5" r="23"/><path class="cls-5" d="M197.86,149.5s1.64-6-.16-7-6.2-8-6.2-8-1.28.89-.64,3.45a24.88,24.88,0,0,0,1.64,4.55"/><path class="cls-5" d="M180.5,156.5s15,18,16,21l-3-16a5.23,5.23,0,0,1-.95-5c.95-3,.95-3-.05-6s-2-8,0-8c0,0,4.71,6,5.36,7s.43,12,.43,12c8.78,27,5.21,27,5.21,27-9,3-26-19-26-19"/><path class="cls-4" d="M129.5,109.5v-9.43c0-2.57,3-.57,3,4.43s1,7.43,3,9.71,0,6.22,0,6.22l5.27,25.5-3.27,3.57c1-3,12-9.5,12-9.5v11.5s-9,9-14,10l-5-44s-7-13-9-19.36c0,0-1-5.64,1-2.64s5,8.29,7,10.14"/><polygon class="cls-6" points="191.5 86.5 182 86.5 185.29 91.07 189.88 91.07 191.5 86.5"/><path class="cls-6" d="M173.5,113.5s-20.43-3-21.71-2-1.72,7.71,0,7.86-.29-4.28,4.21-4.07,19.5,2.21,19.5,2.21Z"/><path class="cls-7" d="M176.64,78.25,173.5,57s-13,31.5-42,19.5l13.21,18.43s1.32,5.57,8.55,5.57,22.24-11,24.24-14S176.64,78.25,176.64,78.25Z"/><path class="cls-6" d="M173.5,113.5c4-1,12.14-12,12.14-12h1.86l1-1-.93-2.88L191.5,86.5s4,2,4,3-1,2,0,3.5,3,12.07,0,13.29-3-1.79-4-.79,0,9-1,11-5,8-8,7-4-6-5-6h-2C174.5,117.5,173.5,113.5,173.5,113.5Z"/><path class="cls-8" d="M193.5,93.5s-2,5-3,6,1,4.71,3,4.86S197.5,102.5,193.5,93.5Z"/><path class="cls-8" d="M184.92,120.4l2.21-2.45a10,10,0,0,0,2.55-7.23l-.18-3.22-1.71-2.44s-6.29,9.44-8.29,9.44C179.5,114.5,181.5,121.21,184.92,120.4Z"/><path class="cls-9" d="M182.93,111.6l2.87-3.7,2.42,8.58-2.37,2.88S185.85,117.2,182.93,111.6Z"/><polygon class="cls-9" points="191.5 97.93 193.02 94.65 195.14 103.77 193.5 104.36 191.5 97.93"/><path class="cls-10" d="M137,79.21s7.64,3,11.57.65l2.09,7.27s-6.45,1.64-9.8,0Z"/><path class="cls-11" d="M152.21,87.13s6.29-.1,8.79-2.87l2.08,9.24a11.76,11.76,0,0,1-8.22,1.15Z"/><path class="cls-12" d="M162.07,83.3l-3.21-6.83s7.85-3.89,8.24-6.43l1.83,8.73S167.64,83.09,162.07,83.3Z"/><path class="cls-13" d="M170.38,77.4s4.56-3.07,4.84-6L176.43,82l-3.86,2.79Z"/><path class="cls-13" d="M182,88.79c2.74-5.91.11-8.81-2.37-10.17A3,3,0,0,0,175.24,81a10.14,10.14,0,0,0,.26,3c1,4.5,4.49,8.64,5.24,7.07A18,18,0,0,1,182,88.79Z"/><path class="cls-12" d="M172.5,81.5a6.33,6.33,0,0,1,7,1.64c3,3.36,0,12.6-3,14.48a31.47,31.47,0,0,1-6,2.88s4-9,1-13S172.5,81.5,172.5,81.5Z"/><path class="cls-11" d="M159.71,105.06c13.22,1.55,16.79-12.56,13.79-16.27s-7.14,0-7.14,0a6.31,6.31,0,0,0-1.93,4.71c.07,3,1.5,4-.22,7A13.25,13.25,0,0,1,159.71,105.06Z"/><path class="cls-13" d="M159.71,94.93s5.89-.19,5.34,2.69-2.84,8.23-10.69,7.56-8.15-4.68-8.15-4.68,5,1.16,8.15-.42a5.83,5.83,0,0,0,2.49-2.46C157.6,96.37,158.08,95.18,159.71,94.93Z"/><path class="cls-12" d="M144.71,94.93s1.93,2.81,3.86,2.69,4.93-4.57,7.43-1.34-.36,10-7.43,8.08-5.14-10.86-5.14-10.86Z"/><path class="cls-14" d="M164.76,53.5s-1.3-5.5,2.59-5.5,3.88,4.12,3.88,4.12,3.34-4.12,4.91-1.37,0,5.62-1.14,6.24,1.59,2.73-1.09,5.11a3.72,3.72,0,0,1-5.14,0s-4.85,2.48-6.37,1.06,0-6.12,0-6.12-2.83-2.61-1.53-3.77S164.76,53.5,164.76,53.5Z"/><path class="cls-15" d="M169.43,55s4.81-3,5-1.38-1.19,5.3-4,3.44c0,0,2.25,1.34.72,2.74s-4-1.67-4-1.67-.16,2.57-1.34,2.82-.38-3.9-.38-3.9-4.19-3-3-3.43,4.72,0,4.72,0,1.09-3.22,2.28-1.82S169.43,55,169.43,55Z"/><path class="cls-14" d="M127.76,59.5s-1.3-5.5,2.59-5.5,3.88,4.12,3.88,4.12,3.34-4.12,4.91-1.37,0,5.62-1.14,6.24,1.59,2.73-1.09,5.11a3.72,3.72,0,0,1-5.14,0s-4.85,2.48-6.37,1.06,0-6.12,0-6.12-2.83-2.61-1.53-3.77S127.76,59.5,127.76,59.5Z"/><path class="cls-13" d="M153.76,48.5s-1.3-5.5,2.59-5.5,3.88,4.12,3.88,4.12,3.34-4.12,4.91-1.37,0,5.62-1.14,6.24,1.59,2.73-1.09,5.11a3.72,3.72,0,0,1-5.14,0s-4.85,2.48-6.37,1.06,0-6.12,0-6.12-2.83-2.61-1.53-3.77S153.76,48.5,153.76,48.5Z"/><path class="cls-15" d="M132.43,62s4.81-3,5-1.38-1.19,5.3-4,3.44c0,0,2.25,1.34.72,2.74s-4-1.67-4-1.67-.16,2.57-1.34,2.82-.38-3.9-.38-3.9-4.19-3-3-3.43,4.72,0,4.72,0,1.09-3.22,2.28-1.82S132.43,62,132.43,62Z"/><path class="cls-13" d="M148.76,58.5s-1.3-5.5,2.59-5.5,3.88,4.12,3.88,4.12,3.34-4.12,4.91-1.37,0,5.62-1.14,6.24,1.59,2.73-1.09,5.11a3.72,3.72,0,0,1-5.14,0s-4.85,2.48-6.37,1.06,0-6.12,0-6.12-2.83-2.61-1.53-3.77S148.76,58.5,148.76,58.5Z"/><path class="cls-13" d="M135.76,60.5s-1.3-5.5,2.59-5.5,3.88,4.12,3.88,4.12,3.34-4.12,4.91-1.37,0,5.62-1.14,6.24,1.59,2.73-1.09,5.11a3.72,3.72,0,0,1-5.14,0s-4.85,2.48-6.37,1.06,0-6.12,0-6.12-2.83-2.61-1.53-3.77S135.76,60.5,135.76,60.5Z"/><path class="cls-13" d="M134.76,51.5s-1.3-5.5,2.59-5.5,3.88,4.12,3.88,4.12,3.34-4.12,4.91-1.37,0,5.62-1.14,6.24,1.59,2.73-1.09,5.11a3.72,3.72,0,0,1-5.14,0s-4.85,2.48-6.37,1.06,0-6.12,0-6.12-2.83-2.61-1.53-3.77S134.76,51.5,134.76,51.5Z"/><path class="cls-13" d="M143.76,48.5s-1.3-5.5,2.59-5.5,3.88,4.12,3.88,4.12,3.34-4.12,4.91-1.37,0,5.62-1.14,6.24,1.59,2.73-1.09,5.11a3.72,3.72,0,0,1-5.14,0s-4.85,2.48-6.37,1.06,0-6.12,0-6.12-2.83-2.61-1.53-3.77S143.76,48.5,143.76,48.5Z"/><path class="cls-12" d="M135.49,48s-2-5.28,1.87-5.78,4.38,3.58,4.38,3.58,2.78-4.51,4.69-2,.77,5.57-.33,6.34,1.93,2.51-.42,5.21a3.73,3.73,0,0,1-5.1.66s-4.49,3.08-6.19,1.86-.78-6.06-.78-6.06-3.14-2.24-2-3.55S135.49,48,135.49,48Z"/><path class="cls-12" d="M145.76,45.5s-1.3-5.5,2.59-5.5,3.88,4.12,3.88,4.12,3.34-4.12,4.91-1.37,0,5.62-1.14,6.24,1.59,2.73-1.09,5.11a3.72,3.72,0,0,1-5.14,0s-4.85,2.48-6.37,1.06,0-6.12,0-6.12-2.83-2.61-1.53-3.77S145.76,45.5,145.76,45.5Z"/><path class="cls-16" d="M149.43,47s4.81-3,5-1.38-1.19,5.3-4,3.44c0,0,2.25,1.34.72,2.74s-4-1.67-4-1.67-.16,2.57-1.34,2.82-.38-3.9-.38-3.9-4.19-3-3-3.43,4.72,0,4.72,0,1.09-3.22,2.28-1.82S149.43,47,149.43,47Z"/><path class="cls-12" d="M150.76,51.5s-1.3-5.5,2.59-5.5,3.88,4.12,3.88,4.12,3.34-4.12,4.91-1.37,0,5.62-1.14,6.24,1.59,2.73-1.09,5.11a3.72,3.72,0,0,1-5.14,0s-4.85,2.48-6.37,1.06,0-6.12,0-6.12-2.83-2.61-1.53-3.77S150.76,51.5,150.76,51.5Z"/><path class="cls-16" d="M155.43,53s4.81-3,5-1.38-1.19,5.3-4,3.44c0,0,2.25,1.34.72,2.74s-4-1.67-4-1.67-.16,2.57-1.34,2.82-.38-3.9-.38-3.9-4.19-3-3-3.43,4.72,0,4.72,0,1.09-3.22,2.28-1.82S155.43,53,155.43,53Z"/><path class="cls-12" d="M139.76,53.5s-1.3-5.5,2.59-5.5,3.88,4.12,3.88,4.12,3.34-4.12,4.91-1.37,0,5.62-1.14,6.24,1.59,2.73-1.09,5.11a3.72,3.72,0,0,1-5.14,0s-4.85,2.48-6.37,1.06,0-6.12,0-6.12-2.83-2.61-1.53-3.77S139.76,53.5,139.76,53.5Z"/><path class="cls-14" d="M159.76,60.5s-1.3-5.5,2.59-5.5,3.88,4.12,3.88,4.12,3.34-4.12,4.91-1.37,0,5.62-1.14,6.24,1.59,2.73-1.09,5.11a3.72,3.72,0,0,1-5.14,0s-4.85,2.48-6.37,1.06,0-6.12,0-6.12-2.83-2.61-1.53-3.77S159.76,60.5,159.76,60.5Z"/><path class="cls-15" d="M165.43,63s4.81-3,5-1.38-1.19,5.3-4,3.44c0,0,2.25,1.34.72,2.74s-4-1.67-4-1.67-.16,2.57-1.34,2.82-.38-3.9-.38-3.9-4.19-3-3-3.43,4.72,0,4.72,0,1.09-3.22,2.28-1.82S165.43,63,165.43,63Z"/><path class="cls-14" d="M152.76,67.5s-1.3-5.5,2.59-5.5,3.88,4.12,3.88,4.12,3.34-4.12,4.91-1.37,0,5.62-1.14,6.24,1.59,2.73-1.09,5.11a3.72,3.72,0,0,1-5.14,0s-4.85,2.48-6.37,1.06,0-6.12,0-6.12-2.83-2.61-1.53-3.77S152.76,67.5,152.76,67.5Z"/><path class="cls-15" d="M157.43,70s4.81-3,5-1.38-1.19,5.3-4,3.44c0,0,2.25,1.34.72,2.74s-4-1.67-4-1.67-.16,2.57-1.34,2.82-.38-3.9-.38-3.9-4.19-3-3-3.43,4.72,0,4.72,0,1.09-3.22,2.28-1.82S157.43,70,157.43,70Z"/><path class="cls-14" d="M142.76,71.5s-1.3-5.5,2.59-5.5,3.88,4.12,3.88,4.12,3.34-4.12,4.91-1.37,0,5.62-1.14,6.24,1.59,2.73-1.09,5.11a3.72,3.72,0,0,1-5.14,0s-4.85,2.48-6.37,1.06,0-6.12,0-6.12-2.83-2.61-1.53-3.77S142.76,71.5,142.76,71.5Z"/><path class="cls-15" d="M146.81,72.8s4.81-3,5-1.39-1.19,5.3-4,3.45c0,0,2.25,1.34.72,2.74s-4-1.67-4-1.67-.15,2.57-1.34,2.82-.38-3.9-.38-3.9-4.19-3-3-3.44,4.72,0,4.72,0,1.09-3.21,2.28-1.81S146.81,72.8,146.81,72.8Z"/><path class="cls-14" d="M130.76,70.5s-1.3-5.5,2.59-5.5,3.88,4.12,3.88,4.12,3.34-4.12,4.91-1.37,0,5.62-1.14,6.24,1.59,2.73-1.09,5.11a3.72,3.72,0,0,1-5.14,0s-4.85,2.48-6.37,1.06,0-6.12,0-6.12-2.83-2.61-1.53-3.77S130.76,70.5,130.76,70.5Z"/><path class="cls-15" d="M135.43,73s4.81-3,5-1.38-1.19,5.3-4,3.44c0,0,2.25,1.34.72,2.74s-4-1.67-4-1.67-.16,2.57-1.34,2.82-.38-3.9-.38-3.9-4.19-3-3-3.43,4.72,0,4.72,0,1.09-3.22,2.28-1.82S135.43,73,135.43,73Z"/><path class="cls-16" d="M144.43,55s4.81-3,5-1.38-1.19,5.3-4,3.44c0,0,2.25,1.34.72,2.74s-4-1.67-4-1.67-.16,2.57-1.34,2.82-.38-3.9-.38-3.9-4.19-3-3-3.43,4.72,0,4.72,0,1.09-3.22,2.28-1.82S144.43,55,144.43,55Z"/><ellipse class="cls-17" cx="134.5" cy="74" rx="1.5" ry="1"/><circle class="cls-17" cx="146.5" cy="74.5" r="1.5"/><circle class="cls-17" cx="157.5" cy="71.5" r="1.5"/><circle class="cls-17" cx="165.5" cy="64.5" r="1.5"/><circle class="cls-17" cx="168.5" cy="55.5" r="1.5"/><ellipse class="cls-18" cx="143" cy="56" rx="2" ry="1"/><circle class="cls-18" cx="153.5" cy="54.5" r="1.5"/><circle class="cls-18" cx="148.5" cy="47.5" r="1.5"/><circle class="cls-17" cx="129.5" cy="63.5" r="1.5"/><path class="cls-17" d="M167,101.64c9-3.35,3.5-12,3.5-12s-2.5-1.06-2,1.16,3.5,2.79,1,7L167,102"/><path class="cls-18" d="M177.5,84.26s4.36,4-1.07,10.36"/><path class="cls-18" d="M144.53,97s.47,3.82,2,4.42c5.24,2.09,7.86-1.32,7.86-1.32S152.06,104,144.53,97Z"/><path class="cls-19" d="M180.74,80.6s2.26,1,1.26,2.7a11.38,11.38,0,0,0-1.26,3.83"/><path class="cls-19" d="M163.89,97s-.27,4.16-6.08,6.59"/></g><g id="Capa_6" data-name="Capa 6"><path class="cls-20" d="M81.46,141.64S52,148,50,182s43,55,49,61,30.86,20.29,38.43,20.14,40.28-19.38,19.93-57.26S119.91,142.29,81.46,141.64Z"/><path class="cls-21" d="M67.37,211.39s-12.87-12-12.87-19S53,159.29,69.24,152.89a55.15,55.15,0,0,1,40.31,0c9,3.61,23,21.61,29,28.61s16.16,25,17.08,41.5,1.08,20.5-3.5,25.5-19.77,10-27.18,5S78.23,224.29,67.37,211.39Z"/><path class="cls-20" d="M65.5,162.5s24.07-14,46.54,0,32.25,27.25,35.35,50.62,3.32,29.58-1.28,33.48-16.25,7-28.93-2.07-54.29-37.39-58-53.71S65.5,162.5,65.5,162.5Z"/><path class="cls-4" d="M75.35,232.32h8S86.39,220,94.5,216.5c0,0-6.09-14.86-13-9.43S75.35,232.32,75.35,232.32Z"/><path class="cls-4" d="M79,272.35c2.45.1-12.25,2.58-4.79,15.8,0,0-9.34,1.48-12-1.59s-4.11-11.36-1.89-14.21.94-4.85,7.08-4.85,9.06,1.93,10.09,2S79,272.35,79,272.35Z"/><path class="cls-5" d="M80.23,324.7l4.27,35.8s-9,12-10,14,.46,4.36,5.73,3.68,12.16-13.1,12.16-13.1l-2.51-7.47v-29"/><path class="cls-4" d="M77.52,323.6l2.71,36.26S65.07,364.5,60.29,365s-5.79-1.5-5.79-1.5c6-6,19-12,19-12l-9.67-36.75"/><path class="cls-5" d="M53.86,255S41.5,245.5,40.5,241.5s-3-18-3-18V221l0-.75c0-1.25-9-3.75-10-4.75s-3-5-3-6,1-5,2-6a15.58,15.58,0,0,1,4-2.11V194.5c1-3,4-1.36,4-1.36V191.5c0-2,2-2,3-1.14s0,12.14,1,14.14a92,92,0,0,1,3,9,20.43,20.43,0,0,0,5-5c2-3,4-1,4-1s-2,6-2,8-5.55,4-5.55,4L43,220l2.62,15.73s14.41,10.87,14.63,10.81"/><path class="cls-21" d="M80.61,191.27s-5.26-8.11,1.31-11.18,26.76,3.73,31.57,7.69,16.75,16.35,16.18,22.69-3.53,11.3-11.69,10S80.61,191.27,80.61,191.27Z"/><path class="cls-22" d="M72.82,175.71a26.91,26.91,0,0,1,22.68-2.25c12.5,4.54,32.13,14.8,37.32,31.67s4.27,25.08-6.77,23S54.64,194.43,72.82,175.71Z"/><path class="cls-23" d="M69.24,169.93s10.69-11.57,31-4.5,35.43,27.37,37.86,35.72,8.59,28.28,6,35.31-72.58-26-77.58-44C66.5,192.5,59,176.36,69.24,169.93Z"/><path class="cls-4" d="M106.5,189.5s19,12,21,18c0,0,5,23-2,51S102,331.25,102,331.25L89.88,328.6"/><path class="cls-5" d="M115.4,244.27s13.85-51.09-16.9-56.77-42,37-42,37l18.85,7.82s7-16.77,15.15-17.82S87.88,243,87.88,243s-31-11.75-43.38,26.46,24.41,47,24.41,47l-1,3.21,21.93,8.87C96.36,320.06,115.4,244.27,115.4,244.27ZM66,286.79c-4.27-2.18-7.52-17.62,5.17-17.32s10.08,12.32,10.08,12.32C75.66,290.6,70.24,289,66,286.79Z"/><path class="cls-5" d="M120.5,253.5l11,23s26.27-1,34.37-6.28a4.79,4.79,0,0,1,2.63-.75h2s1-10,4-11,2.11,1.85,2.11,1.85,1.89-3.85,3.89-3.85a2,2,0,0,1,2,2s4-3,5-3,2.5.69-1.25,4.85a78.52,78.52,0,0,0-7.75,11.15s4-5,7-4,3.16,3,3.16,3-11.52,2.56-13.34,5.28-10.93.72-10.93.72-27.89,11-34.89,10-14-19-14-19"/><path class="cls-4" d="M241.55,324.4l-9.05,23.1-20.7,13.75v10s9.81,2.2,8.76,3.74-11.63,3.46-15.35,0L202.5,360.5l22-18.58,3.1-18.36"/><path class="cls-4" d="M239.55,270.47s2.31,12.53-3.05,15-12-1-12-1,1,19,21,15S259.29,279,259.29,279Z"/><path class="cls-4" d="M244.71,195.41s-12.57,1.33-23.21.09c-14.61-1.7-55.28,34.56-43,87,11.6,49.57,54.44,43.41,54.44,43.41s-40-36.66-33.32-64.54S230.57,200.33,244.71,195.41Z"/><path class="cls-4" d="M242.35,230.43c1.85-8.07-4.35-7.78-4.35-7.78s10.48-4.84,13.49,0,0,9.68,0,9.68l-9.14-1.9-14.75,7.29v8.81l27.9-14"/><path class="cls-24" d="M84.91,242.2s-3.59-4.77,0-5.74,5.68,0,5.68,0-2.33-3.33-.71-4.14,3.05-2.82,10.33-1.32,20.29,6.5,23.29,8.5a6.46,6.46,0,0,1,3,5s-5,4-10,4-10-6-17.5-5.5a56.48,56.48,0,0,1-12.67-.45"/><path class="cls-25" d="M126.5,239.48s2.36-3,4.18,0a9.55,9.55,0,0,1,0,9c-1.18,2-4.18,2.43-4.18,2.43l-1.6-5.32Z"/><path class="cls-5" d="M211.8,323.56l8.7,41.94v5.07s-3,4.93,4,6.43,19.43.93,20.21-1.29S226.5,365.5,226.5,365.5l1.1-39.34"/><path class="cls-5" d="M262,217.11l14.57-2,8.57-13s-1.28-6.65,2-10.65,9.32-10,11.32-8-2.57,6-3.29,8a13.48,13.48,0,0,0-.71,4s7.51-7.76,12-11.05c1.51-1.1,2.68-1.7,3.14-1.35,1.82,1.4,6.82.4,6.82,2.4a5.31,5.31,0,0,1-1.6,3.48s4-1.52,3.78,0-15.61,8.63-16.39,11.07-13.29,5.3-13.29,5.3l-7.91,15.75-16.95,9.33"/><path class="cls-25" d="M124.9,238.14s6.32-.19,3.46,4.58-6.79,4.84-7.32,1.81S124.9,238.14,124.9,238.14Z"/><path class="cls-25" d="M130.5,237.5s.63-7.79,5.32-7.39,5.82,5,10.75,3.69a17.56,17.56,0,0,0,7.39-3.71s-.46,3.41-5.46,7.41S131.5,239.5,130.5,237.5Z"/><path class="cls-25" d="M132.6,246.19s5.33-5.71,8.76-2.49,1.46,7.53,6.13,9.58a17.49,17.49,0,0,0,8.09,1.69s-2.48,2.38-8.88,2.41S132.14,248.37,132.6,246.19Z"/><path class="cls-5" d="M251.5,275.5s4.5,20.57-12,21-12-29-12-29l40-23c-4.92-.06,14.61-51.54-28-49-50.26,3-50,66-50,66s-12.29,69.31,42.9,64.41c53.2-4.73,38.24-65.59,39.1-61.41ZM239.7,222c11.28.31,11.79,10.3,11.79,10.3L227.6,244.72S228.41,221.72,239.7,222Z"/><polygon class="cls-26" points="271.5 264.5 255.5 263.5 239.55 270.47 251.5 275.5 271.5 264.5"/><path class="cls-5" d="M180.43,275.26l-15.5,14.79-28.06-1.53-17.36-4s-3.56,2-1.79,4a4.92,4.92,0,0,0,4.27,1.54s-8.88,12.31-9.18,13.38,2.48,1.71,2.48,1.71-.79,3.5,1.21,3.43,5.49-5.14,5.49-5.14l14.88-10.72L164.93,297l21.57-12.5"/><path class="cls-10" d="M208.43,183.39s-7.45,1.07-9.58,4.26-18.71,21.23-21.07,26,4.45,20.73,4.45,20.73L212,204.15l11.33-15.43S220.15,181.27,208.43,183.39Z"/><path class="cls-27" d="M213.13,191s-6.77-2.66-11.45,2.69-15.83,23.13-18.75,22.73L180,216s.31,5.41,8.66-2.3c0,0-7.66,5.11-8.66,8.71s2.23,12,2.23,12l33-39S215.26,191.94,213.13,191Z"/><path class="cls-28" d="M226,197.14s-16.24,24.79-22.25,27.35-17.95,3.48-21.56,9.94c0,0,.57-11.35,2.74-13.09s14.94-24.1,22.4-26.23A69,69,0,0,1,223.64,193Z"/><path class="cls-10" d="M232.54,164.91s-12.39-2.81-23,1.45c0,0-3.73,5.11-4,7.88S212.84,193,215.43,193h8.21S235.36,168.79,232.54,164.91Z"/><path class="cls-29" d="M230.21,188.86s7.72-8,15.22-5.52,17.62,15.67,19.38,21.1c0,0-18.88-7.57-26-7.08S230.21,188.86,230.21,188.86Z"/><path class="cls-27" d="M232.54,164.91s-11.06-1-13.3,4.54,4.4,23.53,4.4,23.53S236.09,173.82,232.54,164.91Z"/><path class="cls-30" d="M223.34,197.14s27.68.1,25.55-21.2c0,0-11.71-7.45-20.23-6.39S223.34,197.14,223.34,197.14Z"/><path class="cls-5" d="M314.9,189s-4.9-.52-9.65,4"/><path class="cls-5" d="M311.68,183.81a28,28,0,0,0-8.75,7.16"/><path class="cls-5" d="M115.29,305.14s5.21-6.64,8.21-7.64"/><path class="cls-5" d="M112.81,303.43s7.69-8.29,10.69-8.61"/><path class="cls-5" d="M30.5,201.39s4.71,4.37,4.36,6.74-3.22,1.8-5.79-1.41"/><line class="cls-5" x1="34.5" y1="193.14" x2="34.5" y2="202.55"/><path class="cls-5" d="M32,210.5s7.89.28,7.71,5.64"/><line class="cls-5" x1="176.22" y1="265.61" x2="174.68" y2="270.47"/><path class="cls-31" d="M223.34,199a14.82,14.82,0,0,0-12.88,5.41c-5.46,6.56-8.38,12.24-11.92,13.4L195,219s13.34-12.43,14.17-18.71,14.17-3.15,14.17-3.15Z"/><path class="cls-32" d="M251.47,187s1.55,6-2.46,6l-4,0s11.21,1.28,12.61,4.14c0,0-15.06-2.42-18.83.22s-5.6-6.39-5.6-6.39l9.17-7.68S249.94,185,251.47,187Z"/><path class="cls-33" d="M248.89,175.94s-9.13-3-13,2.55-10.2,20.79-12.54,18.65S251.79,199.88,248.89,175.94Z"/><path class="cls-1" d="M206.08,200S193,208,193.5,211s-5.5,11-5.5,11S206.15,209,206.08,200Z"/><path class="cls-34" d="M219.24,165.64s-2.88-1.14-4.06,5.11,2,16.64,2,16.64-8.28-13.49-6.75-17.94S219.24,165.64,219.24,165.64Z"/><path class="cls-34" d="M204.22,187c-.13,1.89-6.32.68-5.68,4,1.15,5.94-15.61,16.71-15.61,16.71S202.44,197,204.22,187Z"/><path class="cls-35" d="M236.15,171.9s-5.61-1.26-7.88,1.42S226,187.39,226,187.39,233.3,170.8,236.15,171.9Z"/><path class="cls-36" d="M130.5,237.5s12.33,1.86,15.67-1.07c0,0-7.94,1-10.3-1.48S130.5,237.5,130.5,237.5Z"/><path class="cls-36" d="M132.6,246.19s6.19-2.49,7,.41,2,7.9,4.44,8.4c0,0-6.85-3.5-8.21-6.5S132.6,246.19,132.6,246.19Z"/><path class="cls-36" d="M128.36,242.72a2.78,2.78,0,0,1,0,3.88c-1.86,1.9-3.16,0-3.16,0Z"/><path class="cls-36" d="M90.59,236.46s5.62-2.41,8.77-2.19,8.71,4.85,13.42,5.54c0,0-4.74,1.74-8.51.21S96.68,236.43,90.59,236.46Z"/><path class="cls-37" d="M88.21,239.48s.79-1.48,6.29-1,10.37,3.08,12.43,3.29c0,0-8-.49-11-1.14S88.21,239.48,88.21,239.48Z"/></g></svg>