<svg xmlns="http://www.w3.org/2000/svg" viewBox="0 0 295.18 339.17"><defs><style>.cls-1{fill:#ffe67d;}.cls-2{fill:#e8b1bf;stroke:#7f1429;}.cls-10,.cls-11,.cls-12,.cls-2,.cls-24,.cls-26,.cls-27,.cls-28,.cls-3,.cls-5,.cls-9{stroke-linecap:round;}.cls-10,.cls-11,.cls-12,.cls-2,.cls-24,.cls-26,.cls-27,.cls-28,.cls-3,.cls-5,.cls-6,.cls-9{stroke-linejoin:round;}.cls-3{fill:#f7f7f5;}.cls-19,.cls-20,.cls-21,.cls-3{stroke:#000;}.cls-4{fill:#f7bf5c;stroke:#443007;}.cls-18,.cls-19,.cls-20,.cls-21,.cls-22,.cls-23,.cls-34,.cls-4,.cls-8{stroke-miterlimit:10;}.cls-10,.cls-11,.cls-12,.cls-23,.cls-24,.cls-26,.cls-27,.cls-28,.cls-34,.cls-4,.cls-5,.cls-8,.cls-9{stroke-width:0.75px;}.cls-5{fill:#f2d249;stroke:#140703;}.cls-6{fill:#191817;stroke:#111010;}.cls-7{fill:#7daef4;}.cls-8{fill:#cf405c;stroke:#870f2c;}.cls-9{fill:#b22f10;}.cls-12,.cls-9{stroke:#6b270a;}.cls-10{fill:#edac29;stroke:#845e08;}.cls-11{fill:#184db5;stroke:#09366d;}.cls-12{fill:#af1238;}.cls-13{fill:#6b270a;}.cls-14{fill:#845e08;}.cls-15{fill:#dd4a74;}.cls-16{fill:#ffce88;}.cls-17{fill:#8ad2ff;}.cls-18{fill:#ffdc9f;stroke:#111;}.cls-18,.cls-21{stroke-width:2px;}.cls-19{fill:#262525;stroke-width:1.03px;}.cls-20,.cls-21{fill:none;}.cls-22,.cls-23{fill:#9b2405;stroke:#560606;}.cls-24{fill:#eab0ce;stroke:#82143e;}.cls-25{fill:#870f2c;}.cls-26{fill:#f7d239;stroke:#960;}.cls-27{fill:#ea802a;stroke:#9b5808;}.cls-28{fill:#64ba09;stroke:#116b08;}.cls-29{fill:#960;}.cls-30{fill:#9b5808;}.cls-31{fill:#116b08;}.cls-32{fill:#ff6490;}.cls-33{fill:#9c6;}.cls-34{fill:#630808;stroke:#630808;}.cls-35{fill:#d34e33;}</style></defs><g id="Capa_2" data-name="Capa 2"><g id="Capa_5" data-name="Capa 5"><path class="cls-1" d="M182.5,162.36s1.94.89-1.28,4.45-8.22,6.84-10.72,11.7-3.8,5.89-3.8,5.89S171,168.35,182.5,162.36Z"/></g><g id="Capa_8" data-name="Capa 8"><path class="cls-2" d="M134.5,220.51,132,232.09l-14.5,35.57s14-.36,17,3.43-15,6.78-25,1.78l12-42,5-32"/><path class="cls-3" d="M154.5,212.87l6,35.07-18,47.93s18,4,18,8-20,2-26-1l14-50-7.62-33.5"/><polygon class="cls-3" points="134.5 220.51 133.1 216.67 125.5 195.87 125.5 91.87 165.5 105.87 165.5 214.94 134.5 220.51 134.5 220.51"/><polygon class="cls-2" points="165.5 105.87 134.5 111.87 125.5 91.87 152.5 88.87 165.5 105.87"/><polygon class="cls-2" points="134.5 214.94 134.5 111.87 125.5 91.87 125.5 174.08 134.5 214.94"/><circle class="cls-3" cx="146.5" cy="68.87" r="23"/><path class="cls-3" d="M173.86,109.87s1.64-6-.16-7-6.2-8-6.2-8-1.28.89-.64,3.45a24.88,24.88,0,0,0,1.64,4.55"/><path class="cls-3" d="M156.5,116.87s15,18,16,21l-3-16a5.23,5.23,0,0,1-.95-5c.95-3,.95-3-.05-6s-2-8,0-8c0,0,4.71,6,5.36,7s.43,12,.43,12c8.78,27,5.21,27,5.21,27-9,3-26-19-26-19"/><path class="cls-2" d="M105.5,69.87V60.44c0-2.57,3-.57,3,4.43s1,7.43,3,9.72,0,6.21,0,6.21l5.27,25.5-3.27,3.57c1-3,12-9.5,12-9.5v11.5s-9,9-14,10l-5-44s-7-13-9-19.36c0,0-1-5.64,1-2.64s5,8.29,7,10.14"/><polygon class="cls-4" points="167.5 46.87 158 46.87 161.29 51.44 165.88 51.44 167.5 46.87"/><path class="cls-4" d="M149.5,73.87s-20.43-3-21.71-2-1.72,7.72,0,7.86-.29-4.28,4.21-4.07,19.5,2.21,19.5,2.21Z"/><path class="cls-5" d="M152.64,38.62,149.5,17.37s-13,31.5-42,19.5L120.71,55.3s1.32,5.57,8.55,5.57,22.24-11,24.24-14S152.64,38.62,152.64,38.62Z"/><path class="cls-4" d="M149.5,73.87c4-1,12.14-12,12.14-12h1.86l1-1L163.57,58l3.93-11.12s4,2,4,3-1,2,0,3.5,3,12.07,0,13.29-3-1.79-4-.79,0,9-1,11-5,8-8,7-4-6-5-6h-2C150.5,77.87,149.5,73.87,149.5,73.87Z"/><path class="cls-6" d="M169.5,53.87s-2,5-3,6,1,4.72,3,4.86S173.5,62.87,169.5,53.87Z"/><path class="cls-6" d="M160.92,80.77l2.21-2.45a10,10,0,0,0,2.55-7.23l-.18-3.22-1.71-2.44s-6.29,9.44-8.29,9.44C155.5,74.87,157.5,81.59,160.92,80.77Z"/><path class="cls-7" d="M158.93,72l2.87-3.7,2.42,8.58-2.37,2.88S161.85,77.57,158.93,72Z"/><polygon class="cls-7" points="167.5 58.3 169.02 55.02 171.14 64.14 169.5 64.73 167.5 58.3"/><path class="cls-8" d="M113,39.58s7.64,3,11.57.65l2.09,7.28s-6.45,1.63-9.8,0Z"/><path class="cls-9" d="M128.21,47.51s6.29-.11,8.79-2.87l2.08,9.23A11.7,11.7,0,0,1,130.86,55Z"/><path class="cls-10" d="M138.07,43.67l-3.21-6.83s7.85-3.89,8.24-6.43l1.83,8.73S143.64,43.46,138.07,43.67Z"/><path class="cls-11" d="M146.38,37.77s4.56-3.07,4.84-6l1.21,10.62-3.86,2.79Z"/><path class="cls-11" d="M158,49.16c2.74-5.91.11-8.81-2.37-10.17a3,3,0,0,0-4.39,2.42,10.1,10.1,0,0,0,.26,3c1,4.5,4.49,8.64,5.24,7.07A18,18,0,0,1,158,49.16Z"/><path class="cls-10" d="M148.5,41.87a6.33,6.33,0,0,1,7,1.64c3,3.36,0,12.6-3,14.48a31.47,31.47,0,0,1-6,2.88s4-9,1-13S148.5,41.87,148.5,41.87Z"/><path class="cls-9" d="M135.71,65.43C148.93,67,152.5,52.87,149.5,49.16s-7.14,0-7.14,0a6.31,6.31,0,0,0-1.93,4.71c.07,3,1.5,4-.22,7A13.25,13.25,0,0,1,135.71,65.43Z"/><path class="cls-11" d="M135.71,55.3s5.89-.19,5.34,2.69-2.84,8.23-10.69,7.56-8.15-4.68-8.15-4.68,5,1.16,8.15-.42A5.83,5.83,0,0,0,132.85,58C133.6,56.74,134.08,55.55,135.71,55.3Z"/><path class="cls-10" d="M120.71,55.3s1.93,2.81,3.86,2.69,4.93-4.57,7.43-1.34-.36,9.95-7.43,8.09-5.14-10.87-5.14-10.87Z"/><path class="cls-12" d="M140.76,13.87s-1.3-5.49,2.59-5.49,3.88,4.11,3.88,4.11,3.34-4.11,4.91-1.37,0,5.62-1.14,6.24,1.59,2.73-1.09,5.11a3.72,3.72,0,0,1-5.14,0s-4.85,2.48-6.37,1.06,0-6.11,0-6.11-2.83-2.62-1.53-3.77S140.76,13.87,140.76,13.87Z"/><path class="cls-13" d="M145.43,15.32s4.81-3,5-1.38-1.19,5.3-4,3.44c0,0,2.25,1.34.72,2.74s-4-1.67-4-1.67S143,21,141.81,21.27s-.38-3.9-.38-3.9-4.19-3-3-3.43,4.72,0,4.72,0,1.09-3.22,2.28-1.82S145.43,15.32,145.43,15.32Z"/><path class="cls-12" d="M103.76,19.87s-1.3-5.49,2.59-5.49,3.88,4.11,3.88,4.11,3.34-4.11,4.91-1.37,0,5.62-1.14,6.24,1.59,2.73-1.09,5.11a3.72,3.72,0,0,1-5.14,0s-4.85,2.48-6.37,1.06,0-6.11,0-6.11-2.83-2.62-1.53-3.77S103.76,19.87,103.76,19.87Z"/><path class="cls-11" d="M129.76,8.87s-1.3-5.49,2.59-5.49,3.88,4.11,3.88,4.11,3.34-4.11,4.91-1.37,0,5.62-1.14,6.24,1.59,2.73-1.09,5.11a3.72,3.72,0,0,1-5.14,0s-4.85,2.48-6.37,1.06,0-6.11,0-6.11-2.83-2.62-1.53-3.77S129.76,8.87,129.76,8.87Z"/><path class="cls-13" d="M108.43,22.32s4.81-3,5-1.38-1.19,5.3-4,3.44c0,0,2.25,1.34.72,2.74s-4-1.67-4-1.67S106,28,104.81,28.27s-.38-3.9-.38-3.9-4.19-3-3-3.43,4.72,0,4.72,0,1.09-3.22,2.28-1.82S108.43,22.32,108.43,22.32Z"/><path class="cls-11" d="M124.76,18.87s-1.3-5.49,2.59-5.49,3.88,4.11,3.88,4.11,3.34-4.11,4.91-1.37,0,5.62-1.14,6.24,1.59,2.73-1.09,5.11a3.72,3.72,0,0,1-5.14,0s-4.85,2.48-6.37,1.06,0-6.11,0-6.11-2.83-2.62-1.53-3.77S124.76,18.87,124.76,18.87Z"/><path class="cls-11" d="M111.76,20.87s-1.3-5.49,2.59-5.49,3.88,4.11,3.88,4.11,3.34-4.11,4.91-1.37,0,5.62-1.14,6.24,1.59,2.73-1.09,5.11a3.72,3.72,0,0,1-5.14,0s-4.85,2.48-6.37,1.06,0-6.11,0-6.11-2.83-2.62-1.53-3.77S111.76,20.87,111.76,20.87Z"/><path class="cls-11" d="M110.76,11.87s-1.3-5.49,2.59-5.49,3.88,4.11,3.88,4.11,3.34-4.11,4.91-1.37,0,5.62-1.14,6.24,1.59,2.73-1.09,5.11a3.72,3.72,0,0,1-5.14,0s-4.85,2.48-6.37,1.06,0-6.11,0-6.11-2.83-2.62-1.53-3.77S110.76,11.87,110.76,11.87Z"/><path class="cls-11" d="M119.76,8.87s-1.3-5.49,2.59-5.49,3.88,4.11,3.88,4.11,3.34-4.11,4.91-1.37,0,5.62-1.14,6.24,1.59,2.73-1.09,5.11a3.72,3.72,0,0,1-5.14,0s-4.85,2.48-6.37,1.06,0-6.11,0-6.11-2.83-2.62-1.53-3.77S119.76,8.87,119.76,8.87Z"/><path class="cls-10" d="M111.49,8.39s-2-5.28,1.87-5.78,4.38,3.59,4.38,3.59,2.78-4.52,4.69-2,.77,5.56-.33,6.33,1.93,2.51-.42,5.21a3.73,3.73,0,0,1-5.1.66s-4.49,3.08-6.19,1.86-.78-6.06-.78-6.06-3.14-2.24-2-3.54S111.49,8.39,111.49,8.39Z"/><path class="cls-10" d="M121.76,5.87S120.46.38,124.35.38s3.88,4.11,3.88,4.11,3.34-4.11,4.91-1.37,0,5.62-1.14,6.24,1.59,2.73-1.09,5.11a3.72,3.72,0,0,1-5.14,0s-4.85,2.48-6.37,1.06,0-6.11,0-6.11-2.83-2.62-1.53-3.77S121.76,5.87,121.76,5.87Z"/><path class="cls-14" d="M125.43,7.32s4.81-3,5-1.38-1.19,5.3-4,3.44c0,0,2.25,1.34.72,2.74s-4-1.67-4-1.67S123,13,121.81,13.27s-.38-3.9-.38-3.9-4.19-3-3-3.43,4.72,0,4.72,0,1.09-3.22,2.28-1.82S125.43,7.32,125.43,7.32Z"/><path class="cls-10" d="M126.76,11.87s-1.3-5.49,2.59-5.49,3.88,4.11,3.88,4.11,3.34-4.11,4.91-1.37,0,5.62-1.14,6.24,1.59,2.73-1.09,5.11a3.72,3.72,0,0,1-5.14,0s-4.85,2.48-6.37,1.06,0-6.11,0-6.11-2.83-2.62-1.53-3.77S126.76,11.87,126.76,11.87Z"/><path class="cls-14" d="M131.43,13.32s4.81-3,5-1.38-1.19,5.3-4,3.44c0,0,2.25,1.34.72,2.74s-4-1.67-4-1.67S129,19,127.81,19.27s-.38-3.9-.38-3.9-4.19-3-3-3.43,4.72,0,4.72,0,1.09-3.22,2.28-1.82S131.43,13.32,131.43,13.32Z"/><path class="cls-10" d="M115.76,13.87s-1.3-5.49,2.59-5.49,3.88,4.11,3.88,4.11,3.34-4.11,4.91-1.37,0,5.62-1.14,6.24,1.59,2.73-1.09,5.11a3.72,3.72,0,0,1-5.14,0s-4.85,2.48-6.37,1.06,0-6.11,0-6.11-2.83-2.62-1.53-3.77S115.76,13.87,115.76,13.87Z"/><path class="cls-12" d="M135.76,20.87s-1.3-5.49,2.59-5.49,3.88,4.11,3.88,4.11,3.34-4.11,4.91-1.37,0,5.62-1.14,6.24,1.59,2.73-1.09,5.11a3.72,3.72,0,0,1-5.14,0s-4.85,2.48-6.37,1.06,0-6.11,0-6.11-2.83-2.62-1.53-3.77S135.76,20.87,135.76,20.87Z"/><path class="cls-13" d="M141.43,23.32s4.81-3,5-1.38-1.19,5.3-4,3.44c0,0,2.25,1.34.72,2.74s-4-1.67-4-1.67S139,29,137.81,29.27s-.38-3.9-.38-3.9-4.19-3-3-3.43,4.72,0,4.72,0,1.09-3.22,2.28-1.82S141.43,23.32,141.43,23.32Z"/><path class="cls-12" d="M128.76,27.87s-1.3-5.49,2.59-5.49,3.88,4.11,3.88,4.11,3.34-4.11,4.91-1.37,0,5.62-1.14,6.24,1.59,2.73-1.09,5.11a3.72,3.72,0,0,1-5.14,0s-4.85,2.48-6.37,1.06,0-6.11,0-6.11-2.83-2.62-1.53-3.77S128.76,27.87,128.76,27.87Z"/><path class="cls-13" d="M133.43,30.32s4.81-3,5-1.38-1.19,5.3-4,3.44c0,0,2.25,1.34.72,2.74s-4-1.67-4-1.67S131,36,129.81,36.27s-.38-3.9-.38-3.9-4.19-3-3-3.43,4.72,0,4.72,0,1.09-3.22,2.28-1.82S133.43,30.32,133.43,30.32Z"/><path class="cls-12" d="M118.76,31.87s-1.3-5.49,2.59-5.49,3.88,4.11,3.88,4.11,3.34-4.11,4.91-1.37,0,5.62-1.14,6.24,1.59,2.73-1.09,5.11a3.72,3.72,0,0,1-5.14,0s-4.85,2.48-6.37,1.06,0-6.11,0-6.11-2.83-2.62-1.53-3.77S118.76,31.87,118.76,31.87Z"/><path class="cls-13" d="M122.81,33.17s4.81-3,5-1.38-1.19,5.3-4,3.44c0,0,2.25,1.34.72,2.74s-4-1.67-4-1.67-.15,2.57-1.34,2.82-.38-3.9-.38-3.9-4.19-3-3-3.43,4.72,0,4.72,0,1.09-3.22,2.28-1.82S122.81,33.17,122.81,33.17Z"/><path class="cls-12" d="M106.76,30.87s-1.3-5.49,2.59-5.49,3.88,4.11,3.88,4.11,3.34-4.11,4.91-1.37,0,5.62-1.14,6.24,1.59,2.73-1.09,5.11a3.72,3.72,0,0,1-5.14,0s-4.85,2.48-6.37,1.06,0-6.11,0-6.11-2.83-2.62-1.53-3.77S106.76,30.87,106.76,30.87Z"/><path class="cls-13" d="M111.43,33.32s4.81-3,5-1.38-1.19,5.3-4,3.44c0,0,2.25,1.34.72,2.74s-4-1.67-4-1.67S109,39,107.81,39.27s-.38-3.9-.38-3.9-4.19-3-3-3.43,4.72,0,4.72,0,1.09-3.22,2.28-1.82S111.43,33.32,111.43,33.32Z"/><path class="cls-14" d="M120.43,15.32s4.81-3,5-1.38-1.19,5.3-4,3.44c0,0,2.25,1.34.72,2.74s-4-1.67-4-1.67S118,21,116.81,21.27s-.38-3.9-.38-3.9-4.19-3-3-3.43,4.72,0,4.72,0,1.09-3.22,2.28-1.82S120.43,15.32,120.43,15.32Z"/><ellipse class="cls-15" cx="110.5" cy="34.37" rx="1.5" ry="1"/><circle class="cls-15" cx="122.5" cy="34.87" r="1.5"/><circle class="cls-15" cx="133.5" cy="31.87" r="1.5"/><circle class="cls-15" cx="141.5" cy="24.87" r="1.5"/><circle class="cls-15" cx="144.5" cy="15.87" r="1.5"/><ellipse class="cls-16" cx="119" cy="16.37" rx="2" ry="1"/><circle class="cls-16" cx="129.5" cy="14.87" r="1.5"/><circle class="cls-16" cx="124.5" cy="7.87" r="1.5"/><circle class="cls-15" cx="105.5" cy="23.87" r="1.5"/><path class="cls-15" d="M143,62c9-3.35,3.5-12,3.5-12s-2.5-1.06-2,1.16,3.5,2.79,1,7L143,62.37"/><path class="cls-16" d="M153.5,44.64s4.36,4-1.07,10.35"/><path class="cls-16" d="M120.53,57.35s.47,3.83,2,4.42c5.24,2.09,7.86-1.32,7.86-1.32S128.06,64.34,120.53,57.35Z"/><path class="cls-17" d="M156.74,41s2.26,1,1.26,2.7a11.4,11.4,0,0,0-1.26,3.84"/><path class="cls-17" d="M139.89,57.35s-.27,4.16-6.08,6.59"/></g><g id="Capa_6" data-name="Capa 6"><path class="cls-18" d="M57.46,102S28,108.37,26,142.37s43,55,49,61,30.86,20.29,38.43,20.14,40.28-19.38,19.93-57.26S95.91,102.66,57.46,102Z"/><path class="cls-19" d="M43.37,171.76s-12.87-12-12.87-19S29,119.66,45.24,113.26a55.15,55.15,0,0,1,40.31,0c9,3.61,23,21.61,29,28.61s16.16,25,17.08,41.5,1.08,20.5-3.5,25.5-19.77,10-27.18,5S54.23,184.66,43.37,171.76Z"/><path class="cls-18" d="M41.5,122.87s24.07-14,46.54,0,32.25,27.25,35.35,50.63,3.32,29.57-1.28,33.47-16.25,7-28.93-2.07-54.29-37.39-58-53.71S41.5,122.87,41.5,122.87Z"/><path class="cls-2" d="M51.35,192.69H59.3s3.09-12.29,11.2-15.82c0,0-6.09-14.86-13-9.43S51.35,192.69,51.35,192.69Z"/><path class="cls-2" d="M55,232.72c2.45.1-12.25,2.58-4.79,15.81,0,0-9.34,1.47-12-1.59s-4.11-11.37-1.89-14.22.94-4.85,7.08-4.85,9.06,1.93,10.09,2S55,232.72,55,232.72Z"/><path class="cls-3" d="M56.23,285.07l4.27,35.8s-9,12-10,14,.46,4.36,5.73,3.68,12.16-13.1,12.16-13.1L65.88,318V289"/><path class="cls-2" d="M53.52,284l2.71,36.26s-15.16,4.64-19.94,5.14-5.79-1.5-5.79-1.5c6-6,19-12,19-12l-9.67-36.75"/><path class="cls-3" d="M29.86,215.37s-12.36-9.5-13.36-13.5-3-18-3-18v-2.5l0-.75c0-1.25-9-3.75-10-4.75s-3-5-3-6,1-5,2-6a15.58,15.58,0,0,1,4-2.11v-6.89c1-3,4-1.36,4-1.36v-1.64c0-2,2-2,3-1.14s0,12.14,1,14.14a92,92,0,0,1,3,9,20.43,20.43,0,0,0,5-5c2-3,4-1,4-1s-2,6-2,8-5.55,4-5.55,4l.09.52,2.62,15.73S36.07,207,36.29,206.93"/><path class="cls-19" d="M56.61,151.64s-5.26-8.11,1.31-11.17,26.76,3.72,31.57,7.69,16.75,16.34,16.18,22.69-3.53,11.29-11.69,10S56.61,151.64,56.61,151.64Z"/><path class="cls-20" d="M48.82,136.09a26.87,26.87,0,0,1,22.68-2.25c12.5,4.53,32.13,14.79,37.32,31.66s4.27,25.09-6.77,23S30.64,154.8,48.82,136.09Z"/><path class="cls-21" d="M45.24,130.3s10.69-11.57,31-4.5,35.43,27.37,37.86,35.72,8.59,28.28,6,35.32-72.58-26-77.58-44C42.5,152.87,35,136.73,45.24,130.3Z"/><path class="cls-2" d="M82.5,149.87s19,12,21,18c0,0,5,23-2,51S78,291.62,78,291.62L65.88,289"/><path class="cls-3" d="M91.4,204.64s13.85-51.09-16.9-56.77-42,37-42,37l18.85,7.82s7-16.77,15.15-17.82-2.62,28.54-2.62,28.54-31-11.74-43.38,26.46,24.41,47,24.41,47l-1,3.21L65.88,289C72.36,280.43,91.4,204.64,91.4,204.64ZM42,247.17c-4.27-2.18-7.52-17.62,5.17-17.33s10.08,12.32,10.08,12.32C51.66,251,46.24,249.36,42,247.17Z"/><path class="cls-3" d="M96.5,213.87l11,23s26.27-1,34.37-6.28a4.79,4.79,0,0,1,2.63-.75h2s1-10,4-11,2.11,1.85,2.11,1.85,1.89-3.85,3.89-3.85a2,2,0,0,1,2,2s4-3,5-3,2.5.69-1.25,4.85a78.52,78.52,0,0,0-7.75,11.15s4-5,7-4,3.16,3,3.16,3-11.52,2.57-13.34,5.28-10.93.72-10.93.72-27.89,11-34.89,10-14-19-14-19"/><path class="cls-2" d="M217.55,284.77l-9.05,23.1-20.7,13.75v10s9.81,2.19,8.76,3.73-11.63,3.46-15.35,0l-2.71-14.45,22-18.58,3.1-18.36"/><path class="cls-2" d="M215.55,230.84s2.31,12.53-3.05,15-12-1-12-1,1,19,21,15,13.79-20.49,13.79-20.49Z"/><path class="cls-2" d="M220.71,155.79s-12.57,1.32-23.21.08c-14.61-1.7-55.28,34.56-43,87,11.6,49.57,54.44,43.41,54.44,43.41s-40-36.66-33.32-64.53S206.57,160.7,220.71,155.79Z"/><path class="cls-2" d="M218.35,190.8C220.2,182.73,214,183,214,183s10.48-4.85,13.49,0,0,9.67,0,9.67l-9.14-1.9-14.75,7.29v8.81l27.9-14"/><path class="cls-22" d="M60.91,202.57s-3.59-4.77,0-5.73,5.68,0,5.68,0-2.33-3.34-.71-4.15,3.05-2.82,10.33-1.32,20.29,6.5,23.29,8.5a6.46,6.46,0,0,1,3,5s-5,4-10,4-10-6-17.5-5.5a56.48,56.48,0,0,1-12.67-.45"/><path class="cls-23" d="M102.5,199.85s2.36-3,4.18,0a9.55,9.55,0,0,1,0,9c-1.18,2-4.18,2.43-4.18,2.43L100.9,206Z"/><path class="cls-3" d="M187.8,283.93l8.7,41.94v5.07s-3,4.93,4,6.43,19.43.93,20.21-1.28-18.21-10.22-18.21-10.22l1.1-39.34"/><path class="cls-3" d="M238,177.48l14.57-2,8.57-13s-1.28-6.65,2-10.65,9.32-10,11.32-8-2.57,6-3.29,8a13.48,13.48,0,0,0-.71,4s7.51-7.76,12-11.05c1.51-1.1,2.68-1.7,3.14-1.35,1.82,1.4,6.82.4,6.82,2.4a5.31,5.31,0,0,1-1.6,3.48s4-1.52,3.78,0-15.61,8.63-16.39,11.08S265,165.72,265,165.72l-7.91,15.75-16.95,9.33"/><path class="cls-23" d="M100.9,198.51s6.32-.19,3.46,4.59-6.79,4.84-7.32,1.8S100.9,198.51,100.9,198.51Z"/><path class="cls-23" d="M106.5,197.87s.63-7.78,5.32-7.39,5.82,5,10.75,3.69a17.56,17.56,0,0,0,7.39-3.71s-.46,3.41-5.46,7.41S107.5,199.87,106.5,197.87Z"/><path class="cls-23" d="M108.6,206.56s5.33-5.71,8.76-2.49,1.46,7.53,6.13,9.58a17.59,17.59,0,0,0,8.09,1.7s-2.48,2.38-8.88,2.4S108.14,208.75,108.6,206.56Z"/><path class="cls-3" d="M227.5,235.87s4.5,20.57-12,21-12-29-12-29l40-23c-4.92-.05,14.61-51.54-28-49-50.26,3-50,66-50,66s-12.29,69.32,42.9,64.41c53.2-4.73,38.24-65.59,39.1-61.41ZM215.7,182.4c11.28.31,11.79,10.3,11.79,10.3L203.6,205.09S204.41,182.09,215.7,182.4Z"/><polygon class="cls-24" points="247.5 224.87 231.5 223.87 215.55 230.84 227.5 235.87 247.5 224.87"/><path class="cls-3" d="M156.43,235.63l-15.5,14.79-28.06-1.53-17.36-4s-3.56,2-1.79,4A4.92,4.92,0,0,0,98,250.42s-8.88,12.31-9.18,13.38,2.48,1.71,2.48,1.71-.79,3.5,1.21,3.43S98,263.8,98,263.8l14.88-10.71,28.06,4.28,21.57-12.5"/><path class="cls-8" d="M184.43,143.77s-7.45,1.06-9.58,4.26-18.71,21.22-21.07,26.05,4.45,20.72,4.45,20.72L188,164.52l11.33-15.43S196.15,141.64,184.43,143.77Z"/><path class="cls-25" d="M189.13,151.34s-6.77-2.65-11.45,2.69-15.83,23.13-18.75,22.73l-2.93-.39s.31,5.41,8.66-2.29c0,0-7.66,5.1-8.66,8.7s2.23,12,2.23,12l33-39S191.26,152.31,189.13,151.34Z"/><path class="cls-26" d="M202,157.51s-16.24,24.8-22.25,27.35-17.95,3.48-21.56,9.94c0,0,.57-11.34,2.74-13.09s14.94-24.1,22.4-26.23a69,69,0,0,1,16.27-2.13Z"/><path class="cls-8" d="M208.54,125.28s-12.39-2.81-23,1.45c0,0-3.73,5.12-4,7.88s7.34,18.74,9.93,18.74h8.21S211.36,129.16,208.54,125.28Z"/><path class="cls-27" d="M206.21,149.23s7.72-8,15.22-5.52,17.62,15.67,19.38,21.1c0,0-18.88-7.57-26-7.08S206.21,149.23,206.21,149.23Z"/><path class="cls-25" d="M208.54,125.28s-11.06-1-13.3,4.54,4.4,23.53,4.4,23.53S212.09,134.19,208.54,125.28Z"/><path class="cls-28" d="M199.34,157.51s27.68.1,25.55-21.2c0,0-11.71-7.45-20.23-6.39S199.34,157.51,199.34,157.51Z"/><path class="cls-3" d="M290.9,149.35s-4.9-.52-9.65,4"/><path class="cls-3" d="M287.68,144.19a27.88,27.88,0,0,0-8.75,7.15"/><path class="cls-3" d="M91.29,265.51s5.21-6.64,8.21-7.64"/><path class="cls-3" d="M88.81,263.8s7.69-8.29,10.69-8.61"/><path class="cls-3" d="M6.5,161.76s4.71,4.37,4.36,6.74-3.22,1.81-5.79-1.41"/><line class="cls-3" x1="10.5" y1="153.51" x2="10.5" y2="162.92"/><path class="cls-3" d="M8,170.87s7.89.28,7.71,5.64"/><line class="cls-3" x1="152.22" y1="225.98" x2="150.68" y2="230.84"/><path class="cls-29" d="M199.34,159.4a14.82,14.82,0,0,0-12.88,5.41c-5.46,6.56-8.38,12.24-11.92,13.4L171,179.37s13.34-12.43,14.17-18.71,14.17-3.15,14.17-3.15Z"/><path class="cls-30" d="M227.47,147.35s1.55,6-2.46,6l-4,0s11.21,1.28,12.61,4.14c0,0-15.06-2.42-18.83.22s-5.6-6.39-5.6-6.39l9.17-7.67S225.94,145.33,227.47,147.35Z"/><path class="cls-31" d="M224.89,136.31s-9.13-3-13,2.55-10.2,20.79-12.54,18.65S227.79,160.25,224.89,136.31Z"/><path class="cls-1" d="M182.08,160.36s-13.08,8-12.58,11-5.5,11-5.5,11S182.15,169.35,182.08,160.36Z"/><path class="cls-32" d="M195.24,126s-2.88-1.14-4.06,5.11,2,16.64,2,16.64-8.28-13.49-6.75-17.94S195.24,126,195.24,126Z"/><path class="cls-32" d="M180.22,147.35c-.13,1.89-6.32.68-5.68,4,1.15,5.94-15.61,16.71-15.61,16.71S178.44,157.33,180.22,147.35Z"/><path class="cls-33" d="M212.15,132.27s-5.61-1.26-7.88,1.42S202,147.76,202,147.76,209.3,131.18,212.15,132.27Z"/><path class="cls-34" d="M106.5,197.87s12.33,1.86,15.67-1.07c0,0-7.94,1-10.3-1.48S106.5,197.87,106.5,197.87Z"/><path class="cls-34" d="M108.6,206.56s6.19-2.49,7,.41,2,7.9,4.44,8.4c0,0-6.85-3.5-8.21-6.5S108.6,206.56,108.6,206.56Z"/><path class="cls-34" d="M104.36,203.1a2.76,2.76,0,0,1,0,3.87c-1.86,1.9-3.16,0-3.16,0Z"/><path class="cls-34" d="M66.59,196.84s5.62-2.42,8.77-2.19,8.71,4.84,13.42,5.53c0,0-4.74,1.74-8.51.22S72.68,196.8,66.59,196.84Z"/><path class="cls-35" d="M64.21,199.85s.79-1.48,6.29-1,10.37,3.09,12.43,3.29c0,0-8-.49-11-1.14S64.21,199.85,64.21,199.85Z"/></g></g></svg>